Black.ufo
<glyph name="A" format="2">
	<advance width="612"/>
	<outline>
		<contour>
			<point x="12" y="0" type="line"/>
			<point x="202" y="0" type="line"/>
			<point x="202" y="16" type="line"/>
			<point x="108" y="26" type="line"/>
			<point x="88" y="26" type="line"/>
			<point x="12" y="16" type="line"/>
		</contour>
		<contour>
			<point x="72" y="0" type="line"/>
			<point x="102" y="0" type="line"/>
			<point x="288" y="588" type="line"/>
			<point x="292" y="600" type="line"/>
			<point x="274" y="600" type="line"/>
			<point x="459" y="0" type="line"/>
			<point x="542" y="0" type="line"/>
			<point x="318" y="677" type="line"/>
			<point x="290" y="677" type="line"/>
		</contour>
		<contour>
			<point x="166" y="238" type="line"/>
			<point x="423" y="238" type="line"/>
			<point x="423" y="262" type="line"/>
			<point x="166" y="262" type="line"/>
		</contour>
		<contour>
			<point x="364" y="0" type="line"/>
			<point x="600" y="0" type="line"/>
			<point x="600" y="16" type="line"/>
			<point x="516" y="28" type="line"/>
			<point x="472" y="28" type="line"/>
			<point x="364" y="16" type="line"/>
		</contour>
	</outline>
	<anchor name="aboveUC" x="304" y="689"/>
	<anchor name="belowLC" x="287" y="-20"/>
	<anchor name="ogonek" x="499" y="0"/>
</glyph>
<glyph name="AE" format="2">
	<advance width="865"/>
	<outline>
		<contour>
			<point x="440" y="0" type="curve"/>
			<point x="522" y="0" type="line"/>
			<point x="518" y="80"/>
			<point x="518" y="210"/>
			<point x="518" y="316" type="curve" smooth="yes"/>
			<point x="518" y="360" type="line" smooth="yes"/>
			<point x="518" y="463"/>
			<point x="518" y="590"/>
			<point x="522" y="669" type="curve"/>
			<point x="444" y="669" type="line"/>
			<point x="444" y="316" type="line" smooth="yes"/>
			<point x="444" y="210"/>
			<point x="444" y="80"/>
		</contour>
		<contour>
			<point x="12" y="0" type="line"/>
			<point x="206" y="0" type="line"/>
			<point x="206" y="16" type="line"/>
			<point x="108" y="26" type="line"/>
			<point x="88" y="26" type="line"/>
			<point x="12" y="16" type="line"/>
		</contour>
		<contour>
			<point x="678" y="232" type="line"/>
			<point x="694" y="232" type="line"/>
			<point x="694" y="452" type="line"/>
			<point x="678" y="452" type="line"/>
			<point x="646" y="352" type="line"/>
			<point x="646" y="332" type="line"/>
		</contour>
		<contour>
			<point x="790" y="491" type="line"/>
			<point x="806" y="491" type="line"/>
			<point x="794" y="669" type="line"/>
			<point x="479" y="669" type="line"/>
			<point x="479" y="645" type="line"/>
			<point x="732" y="645" type="line"/>
		</contour>
		<contour>
			<point x="480" y="0" type="line"/>
			<point x="810" y="0" type="line"/>
			<point x="822" y="188" type="line"/>
			<point x="806" y="188" type="line"/>
			<point x="748" y="24" type="line"/>
			<point x="480" y="24" type="line"/>
		</contour>
		<contour>
			<point x="335" y="653" type="line"/>
			<point x="439" y="641" type="line"/>
			<point x="468" y="641" type="line"/>
			<point x="468" y="669" type="line"/>
			<point x="335" y="669" type="line"/>
		</contour>
		<contour>
			<point x="361" y="0" type="line"/>
			<point x="493" y="0" type="line"/>
			<point x="493" y="28" type="line"/>
			<point x="465" y="28" type="line"/>
			<point x="361" y="16" type="line"/>
		</contour>
		<contour>
			<point x="67" y="0" type="line"/>
			<point x="99" y="0" type="line"/>
			<point x="224" y="237" type="line"/>
			<point x="453" y="669" type="line"/>
			<point x="423" y="669" type="line"/>
		</contour>
		<contour>
			<point x="209" y="226" type="line"/>
			<point x="480" y="226" type="line"/>
			<point x="480" y="250" type="line"/>
			<point x="209" y="250" type="line"/>
		</contour>
		<contour>
			<point x="480" y="330" type="line"/>
			<point x="660" y="330" type="line"/>
			<point x="660" y="354" type="line"/>
			<point x="480" y="354" type="line"/>
		</contour>
	</outline>
	<anchor name="aboveUC" x="569" y="689"/>
</glyph>
<glyph name="B" format="2">
	<advance width="550"/>
	<outline>
		<contour>
			<point x="39" y="0" type="line"/>
			<point x="170" y="0" type="line"/>
			<point x="170" y="28" type="line"/>
			<point x="143" y="28" type="line"/>
			<point x="39" y="16" type="line"/>
		</contour>
		<contour>
			<point x="118" y="0" type="curve"/>
			<point x="200" y="0" type="line"/>
			<point x="196" y="80"/>
			<point x="196" y="210"/>
			<point x="196" y="316" type="curve" smooth="yes"/>
			<point x="196" y="360" type="line" smooth="yes"/>
			<point x="196" y="463"/>
			<point x="196" y="590"/>
			<point x="200" y="669" type="curve"/>
			<point x="118" y="669" type="line"/>
			<point x="122" y="590"/>
			<point x="122" y="463"/>
			<point x="122" y="360" type="curve" smooth="yes"/>
			<point x="122" y="316" type="line" smooth="yes"/>
			<point x="122" y="210"/>
			<point x="122" y="80"/>
		</contour>
		<contour>
			<point x="149" y="0" type="line"/>
			<point x="266" y="0" type="line" smooth="yes"/>
			<point x="434" y="0"/>
			<point x="511" y="87"/>
			<point x="511" y="181" type="curve" smooth="yes"/>
			<point x="511" y="275"/>
			<point x="435" y="352"/>
			<point x="267" y="352" type="curve"/>
			<point x="267" y="344" type="line"/>
			<point x="411" y="344"/>
			<point x="481" y="421"/>
			<point x="481" y="513" type="curve" smooth="yes"/>
			<point x="481" y="607"/>
			<point x="407" y="669"/>
			<point x="278" y="669" type="curve" smooth="yes"/>
			<point x="149" y="669" type="line"/>
			<point x="149" y="645" type="line"/>
			<point x="257" y="645" type="line" smooth="yes"/>
			<point x="353" y="645"/>
			<point x="409" y="606"/>
			<point x="409" y="507" type="curve" smooth="yes"/>
			<point x="409" y="406"/>
			<point x="353" y="358"/>
			<point x="240" y="358" type="curve" smooth="yes"/>
			<point x="149" y="358" type="line"/>
			<point x="149" y="334" type="line"/>
			<point x="244" y="334" type="line" smooth="yes"/>
			<point x="372" y="334"/>
			<point x="434" y="281"/>
			<point x="434" y="179" type="curve" smooth="yes"/>
			<point x="434" y="82"/>
			<point x="370" y="24"/>
			<point x="251" y="24" type="curve" smooth="yes"/>
			<point x="149" y="24" type="line"/>
		</contour>
		<contour>
			<point x="39" y="653" type="line"/>
			<point x="143" y="641" type="line"/>
			<point x="170" y="641" type="line"/>
			<point x="170" y="669" type="line"/>
			<point x="39" y="669" type="line"/>
		</contour>
	</outline>
	<anchor name="aboveUC" x="270" y="689"/>
	<anchor name="belowLC" x="287" y="-20"/>
</glyph>
<glyph name="C" format="2">
	<advance width="572"/>
	<outline>
		<contour>
			<point x="343" y="-16" type="curve" smooth="yes"/>
			<point x="403" y="-16"/>
			<point x="461" y="-5"/>
			<point x="518" y="32" type="curve"/>
			<point x="528" y="188" type="line"/>
			<point x="511" y="188" type="line"/>
			<point x="452" y="20" type="line"/>
			<point x="498" y="28" type="line"/>
			<point x="498" y="55" type="line"/>
			<point x="446" y="12"/>
			<point x="389" y="5"/>
			<point x="345" y="5" type="curve" smooth="yes"/>
			<point x="221" y="5"/>
			<point x="129" y="120"/>
			<point x="129" y="334" type="curve" smooth="yes"/>
			<point x="129" y="546"/>
			<point x="229" y="664"/>
			<point x="348" y="664" type="curve" smooth="yes"/>
			<point x="396" y="664"/>
			<point x="442" y="655"/>
			<point x="494" y="616" type="curve"/>
			<point x="490" y="641" type="line"/>
			<point x="444" y="651" type="line"/>
			<point x="504" y="484" type="line"/>
			<point x="520" y="484" type="line"/>
			<point x="510" y="639" type="line"/>
			<point x="453" y="678"/>
			<point x="391" y="685"/>
			<point x="344" y="685" type="curve" smooth="yes"/>
			<point x="178" y="685"/>
			<point x="47" y="550"/>
			<point x="47" y="336" type="curve" smooth="yes"/>
			<point x="47" y="118"/>
			<point x="171" y="-16"/>
		</contour>
	</outline>
	<anchor name="aboveUC" x="345" y="689"/>
	<anchor name="baseLC" x="346" y="0"/>
	<anchor name="belowLC" x="342" y="-20"/>
</glyph>
<glyph name="D" format="2">
	<advance width="636"/>
	<outline>
		<contour>
			<point x="39" y="0" type="line"/>
			<point x="170" y="0" type="line"/>
			<point x="170" y="28" type="line"/>
			<point x="143" y="28" type="line"/>
			<point x="39" y="16" type="line"/>
		</contour>
		<contour>
			<point x="118" y="0" type="curve"/>
			<point x="200" y="0" type="line"/>
			<point x="196" y="80"/>
			<point x="196" y="210"/>
			<point x="196" y="316" type="curve" smooth="yes"/>
			<point x="196" y="360" type="line" smooth="yes"/>
			<point x="196" y="463"/>
			<point x="196" y="590"/>
			<point x="200" y="669" type="curve"/>
			<point x="118" y="669" type="line"/>
			<point x="122" y="590"/>
			<point x="122" y="463"/>
			<point x="122" y="360" type="curve" smooth="yes"/>
			<point x="122" y="316" type="line" smooth="yes"/>
			<point x="122" y="210"/>
			<point x="122" y="80"/>
		</contour>
		<contour>
			<point x="169" y="0" type="line"/>
			<point x="278" y="0" type="line" smooth="yes"/>
			<point x="453" y="0"/>
			<point x="590" y="118"/>
			<point x="590" y="334" type="curve" smooth="yes"/>
			<point x="590" y="550"/>
			<point x="467" y="669"/>
			<point x="285" y="669" type="curve" smooth="yes"/>
			<point x="169" y="669" type="line"/>
			<point x="169" y="645" type="line"/>
			<point x="277" y="645" type="line" smooth="yes"/>
			<point x="426" y="645"/>
			<point x="507" y="548"/>
			<point x="507" y="334" type="curve" smooth="yes"/>
			<point x="507" y="147"/>
			<point x="425" y="24"/>
			<point x="268" y="24" type="curve" smooth="yes"/>
			<point x="169" y="24" type="line"/>
		</contour>
		<contour>
			<point x="39" y="653" type="line"/>
			<point x="143" y="641" type="line"/>
			<point x="170" y="641" type="line"/>
			<point x="170" y="669" type="line"/>
			<point x="39" y="669" type="line"/>
		</contour>
	</outline>
	<anchor name="aboveUC" x="302" y="689"/>
	<anchor name="belowLC" x="292" y="-20"/>
</glyph>
<glyph name="Eng" format="2">
	<advance width="669"/>
	<outline>
		<contour>
			<point x="38" y="0" type="line"/>
			<point x="243" y="0" type="line"/>
			<point x="243" y="16" type="line"/>
			<point x="144" y="26" type="line"/>
			<point x="130" y="26" type="line"/>
			<point x="38" y="16" type="line"/>
		</contour>
		<contour>
			<point x="123" y="0" type="line"/>
			<point x="151" y="0" type="line"/>
			<point x="151" y="335" type="line"/>
			<point x="151" y="657" type="line"/>
			<point x="123" y="657" type="line"/>
		</contour>
		<contour>
			<point x="400" y="-132" type="curve" smooth="yes"/>
			<point x="445" y="-132"/>
			<point x="472" y="-112"/>
			<point x="507" y="-67" type="curve" smooth="yes"/>
			<point x="542" y="-22"/>
			<point x="554" y="32"/>
			<point x="554" y="109" type="curve" smooth="yes"/>
			<point x="554" y="669" type="line"/>
			<point x="526" y="669" type="line"/>
			<point x="526" y="335" type="line"/>
			<point x="526" y="101" type="line" smooth="yes"/>
			<point x="526" y="5"/>
			<point x="504" y="-51"/>
			<point x="443" y="-101" type="curve"/>
			<point x="443" y="-109" type="line"/>
			<point x="461" y="-110" type="line"/>
			<point x="461" y="-96" type="line"/>
			<point x="433" y="-73" type="line" smooth="yes"/>
			<point x="413" y="-57"/>
			<point x="402" y="-48"/>
			<point x="378" y="-48" type="curve" smooth="yes"/>
			<point x="351" y="-48"/>
			<point x="330" y="-65"/>
			<point x="328" y="-87" type="curve"/>
			<point x="333" y="-116"/>
			<point x="361" y="-132"/>
		</contour>
		<contour>
			<point x="528" y="0" type="line"/>
			<point x="537" y="0" type="line"/>
			<point x="537" y="131" type="line"/>
			<point x="532" y="131" type="line"/>
			<point x="177" y="669" type="line"/>
			<point x="38" y="669" type="line"/>
			<point x="38" y="653" type="line"/>
			<point x="103" y="646" type="line"/>
			<point x="143" y="583" type="line"/>
			<point x="145" y="583" type="line"/>
		</contour>
		<contour>
			<point x="532" y="643" type="line"/>
			<point x="547" y="643" type="line"/>
			<point x="630" y="653" type="line"/>
			<point x="630" y="669" type="line"/>
			<point x="433" y="669" type="line"/>
			<point x="433" y="653" type="line"/>
		</contour>
	</outline>
</glyph>
<glyph name="Eth" format="2">
	<advance width="636"/>
	<outline>
		<contour>
			<point x="373" y="332" type="line"/>
			<point x="373" y="354" type="line"/>
			<point x="51" y="354" type="line"/>
			<point x="51" y="332" type="line"/>
		</contour>
		<component base="D"/>
	</outline>
</glyph>
<glyph name="F" format="2">
	<advance width="508"/>
	<outline>
		<contour>
			<point x="39" y="0" type="line"/>
			<point x="291" y="0" type="line"/>
			<point x="291" y="16" type="line"/>
			<point x="172" y="28" type="line"/>
			<point x="143" y="28" type="line"/>
			<point x="39" y="16" type="line"/>
		</contour>
		<contour>
			<point x="118" y="0" type="curve"/>
			<point x="200" y="0" type="line"/>
			<point x="196" y="80"/>
			<point x="196" y="210"/>
			<point x="196" y="316" type="curve" smooth="yes"/>
			<point x="196" y="360" type="line" smooth="yes"/>
			<point x="196" y="463"/>
			<point x="196" y="590"/>
			<point x="200" y="669" type="curve"/>
			<point x="118" y="669" type="line"/>
			<point x="122" y="590"/>
			<point x="122" y="463"/>
			<point x="122" y="360" type="curve" smooth="yes"/>
			<point x="122" y="316" type="line" smooth="yes"/>
			<point x="122" y="210"/>
			<point x="122" y="80"/>
		</contour>
		<contour>
			<point x="159" y="330" type="line"/>
			<point x="335" y="330" type="line"/>
			<point x="335" y="354" type="line"/>
			<point x="159" y="354" type="line"/>
		</contour>
		<contour>
			<point x="352" y="232" type="line"/>
			<point x="368" y="232" type="line"/>
			<point x="368" y="452" type="line"/>
			<point x="352" y="452" type="line"/>
			<point x="321" y="352" type="line"/>
			<point x="321" y="332" type="line"/>
		</contour>
		<contour>
			<point x="39" y="653" type="line"/>
			<point x="143" y="641" type="line"/>
			<point x="172" y="641" type="line"/>
			<point x="172" y="669" type="line"/>
			<point x="39" y="669" type="line"/>
		</contour>
		<contour>
			<point x="464" y="491" type="line"/>
			<point x="480" y="491" type="line"/>
			<point x="468" y="669" type="line"/>
			<point x="157" y="669" type="line"/>
			<point x="157" y="645" type="line"/>
			<point x="440" y="645" type="line"/>
			<point x="402" y="657" type="line"/>
		</contour>
	</outline>
	<anchor name="aboveUC" x="290" y="689"/>
	<anchor name="belowLC" x="161" y="-20"/>
</glyph>
<glyph name="G" format="2">
	<advance width="604"/>
	<outline>
		<contour>
			<point x="352" y="-16" type="curve" smooth="yes"/>
			<point x="411" y="-16"/>
			<point x="473" y="2"/>
			<point x="526" y="35" type="curve"/>
			<point x="526" y="88" type="line" smooth="yes"/>
			<point x="526" y="174"/>
			<point x="527" y="249"/>
			<point x="530" y="318" type="curve"/>
			<point x="452" y="318" type="line"/>
			<point x="455" y="249"/>
			<point x="456" y="174"/>
			<point x="456" y="88" type="curve" smooth="yes"/>
			<point x="456" y="19" type="line"/>
			<point x="475" y="37" type="line"/>
			<point x="432" y="13"/>
			<point x="389" y="5"/>
			<point x="352" y="5" type="curve" smooth="yes"/>
			<point x="213" y="5"/>
			<point x="129" y="120"/>
			<point x="129" y="334" type="curve" smooth="yes"/>
			<point x="129" y="546"/>
			<point x="233" y="664"/>
			<point x="354" y="664" type="curve" smooth="yes"/>
			<point x="400" y="664"/>
			<point x="450" y="655"/>
			<point x="503" y="614" type="curve"/>
			<point x="499" y="643" type="line"/>
			<point x="452" y="651" type="line"/>
			<point x="512" y="484" type="line"/>
			<point x="528" y="484" type="line"/>
			<point x="518" y="639" type="line"/>
			<point x="463" y="678"/>
			<point x="391" y="685"/>
			<point x="352" y="685" type="curve" smooth="yes"/>
			<point x="178" y="685"/>
			<point x="47" y="550"/>
			<point x="47" y="336" type="curve" smooth="yes"/>
			<point x="47" y="118"/>
			<point x="163" y="-16"/>
		</contour>
		<contour>
			<point x="355" y="302" type="line"/>
			<point x="478" y="290" type="line"/>
			<point x="506" y="290" type="line"/>
			<point x="588" y="302" type="line"/>
			<point x="588" y="318" type="line"/>
			<point x="355" y="318" type="line"/>
		</contour>
	</outline>
	<anchor name="aboveUC" x="346" y="689"/>
	<anchor name="belowLC" x="349" y="-20"/>
</glyph>
<glyph name="Germandbls" format="2">
	<advance width="651"/>
	<outline>
		<contour>
			<point x="24" y="0" type="line"/>
			<point x="155" y="0" type="line"/>
			<point x="155" y="28" type="line"/>
			<point x="128" y="28" type="line"/>
			<point x="24" y="16" type="line"/>
		</contour>
		<contour>
			<point x="103" y="0" type="curve"/>
			<point x="185" y="0" type="line"/>
			<point x="181" y="82"/>
			<point x="181" y="210"/>
			<point x="181" y="316" type="curve" smooth="yes"/>
			<point x="181" y="436" type="line" smooth="yes"/>
			<point x="181" y="599"/>
			<point x="253" y="664"/>
			<point x="364" y="664" type="curve" smooth="yes"/>
			<point x="412" y="664"/>
			<point x="476" y="655"/>
			<point x="519" y="633" type="curve"/>
			<point x="519" y="643" type="line"/>
			<point x="418" y="611"/>
			<point x="364" y="556"/>
			<point x="364" y="467" type="curve" smooth="yes"/>
			<point x="364" y="402"/>
			<point x="405" y="348"/>
			<point x="449" y="297" type="curve" smooth="yes"/>
			<point x="487" y="253" type="line" smooth="yes"/>
			<point x="523" y="210"/>
			<point x="550" y="169"/>
			<point x="550" y="126" type="curve" smooth="yes"/>
			<point x="550" y="54"/>
			<point x="488" y="6"/>
			<point x="425" y="6" type="curve" smooth="yes"/>
			<point x="391" y="6"/>
			<point x="364" y="10"/>
			<point x="321" y="41" type="curve"/>
			<point x="363" y="4" type="line"/>
			<point x="321" y="180" type="line"/>
			<point x="305" y="180" type="line"/>
			<point x="297" y="27" type="line"/>
			<point x="327" y="0"/>
			<point x="388" y="-16"/>
			<point x="433" y="-16" type="curve" smooth="yes"/>
			<point x="555" y="-16"/>
			<point x="616" y="62"/>
			<point x="616" y="144" type="curve" smooth="yes"/>
			<point x="616" y="216"/>
			<point x="573" y="264"/>
			<point x="531" y="315" type="curve" smooth="yes"/>
			<point x="493" y="359" type="line" smooth="yes"/>
			<point x="456" y="400"/>
			<point x="425" y="445"/>
			<point x="425" y="489" type="curve" smooth="yes"/>
			<point x="425" y="557"/>
			<point x="472" y="605"/>
			<point x="535" y="635" type="curve"/>
			<point x="535" y="646" type="line"/>
			<point x="492" y="673"/>
			<point x="422" y="685"/>
			<point x="363" y="685" type="curve" smooth="yes"/>
			<point x="216" y="685"/>
			<point x="107" y="615"/>
			<point x="107" y="434" type="curve" smooth="yes"/>
			<point x="107" y="316" type="line" smooth="yes"/>
			<point x="107" y="210"/>
			<point x="107" y="82"/>
		</contour>
	</outline>
</glyph>
<glyph name="Hbar" format="2">
	<advance width="700"/>
	<outline>
		<contour>
			<point x="118" y="0" type="curve"/>
			<point x="200" y="0" type="line"/>
			<point x="196" y="80"/>
			<point x="196" y="210"/>
			<point x="196" y="316" type="curve" smooth="yes"/>
			<point x="196" y="360" type="line" smooth="yes"/>
			<point x="196" y="463"/>
			<point x="196" y="590"/>
			<point x="200" y="669" type="curve"/>
			<point x="118" y="669" type="line"/>
			<point x="122" y="590"/>
			<point x="122" y="463"/>
			<point x="122" y="360" type="curve" smooth="yes"/>
			<point x="122" y="316" type="line" smooth="yes"/>
			<point x="122" y="210"/>
			<point x="122" y="80"/>
		</contour>
		<contour>
			<point x="499" y="0" type="curve"/>
			<point x="582" y="0" type="line"/>
			<point x="578" y="80"/>
			<point x="578" y="210"/>
			<point x="578" y="316" type="curve" smooth="yes"/>
			<point x="578" y="360" type="line" smooth="yes"/>
			<point x="578" y="463"/>
			<point x="578" y="590"/>
			<point x="582" y="669" type="curve"/>
			<point x="499" y="669" type="line"/>
			<point x="503" y="590"/>
			<point x="503" y="463"/>
			<point x="503" y="360" type="curve" smooth="yes"/>
			<point x="503" y="316" type="line" smooth="yes"/>
			<point x="503" y="210"/>
			<point x="503" y="80"/>
		</contour>
		<contour>
			<point x="39" y="0" type="line"/>
			<point x="278" y="0" type="line"/>
			<point x="278" y="16" type="line"/>
			<point x="174" y="28" type="line"/>
			<point x="143" y="28" type="line"/>
			<point x="39" y="16" type="line"/>
		</contour>
		<contour>
			<point x="39" y="653" type="line"/>
			<point x="143" y="641" type="line"/>
			<point x="174" y="641" type="line"/>
			<point x="278" y="653" type="line"/>
			<point x="278" y="669" type="line"/>
			<point x="39" y="669" type="line"/>
		</contour>
		<contour>
			<point x="420" y="0" type="line"/>
			<point x="660" y="0" type="line"/>
			<point x="660" y="16" type="line"/>
			<point x="556" y="28" type="line"/>
			<point x="524" y="28" type="line"/>
			<point x="420" y="16" type="line"/>
		</contour>
		<contour>
			<point x="420" y="653" type="line"/>
			<point x="524" y="641" type="line"/>
			<point x="556" y="641" type="line"/>
			<point x="660" y="653" type="line"/>
			<point x="660" y="669" type="line"/>
			<point x="420" y="669" type="line"/>
		</contour>
		<contour>
			<point x="33" y="478" type="line"/>
			<point x="667" y="478" type="line"/>
			<point x="667" y="500" type="line"/>
			<point x="33" y="500" type="line"/>
		</contour>
		<contour>
			<point x="150" y="319" type="line"/>
			<point x="551" y="319" type="line"/>
			<point x="551" y="343" type="line"/>
			<point x="150" y="343" type="line"/>
		</contour>
	</outline>
</glyph>
<glyph name="I" format="2">
	<advance width="318"/>
	<outline>
		<contour>
			<point x="39" y="0" type="line"/>
			<point x="278" y="0" type="line"/>
			<point x="278" y="16" type="line"/>
			<point x="174" y="28" type="line"/>
			<point x="143" y="28" type="line"/>
			<point x="39" y="16" type="line"/>
		</contour>
		<contour>
			<point x="118" y="0" type="curve"/>
			<point x="200" y="0" type="line"/>
			<point x="196" y="80"/>
			<point x="196" y="210"/>
			<point x="196" y="316" type="curve" smooth="yes"/>
			<point x="196" y="360" type="line" smooth="yes"/>
			<point x="196" y="463"/>
			<point x="196" y="590"/>
			<point x="200" y="669" type="curve"/>
			<point x="118" y="669" type="line"/>
			<point x="122" y="590"/>
			<point x="122" y="463"/>
			<point x="122" y="360" type="curve" smooth="yes"/>
			<point x="122" y="316" type="line" smooth="yes"/>
			<point x="122" y="210"/>
			<point x="122" y="80"/>
		</contour>
		<contour>
			<point x="39" y="653" type="line"/>
			<point x="143" y="641" type="line"/>
			<point x="174" y="641" type="line"/>
			<point x="278" y="653" type="line"/>
			<point x="278" y="669" type="line"/>
			<point x="39" y="669" type="line"/>
		</contour>
	</outline>
	<anchor name="aboveUC" x="158" y="689"/>
	<anchor name="belowLC" x="158" y="-20"/>
	<anchor name="ogonek" x="171" y="0"/>
</glyph>
<glyph name="Idieresis" format="2">
	<advance width="318"/>
	<outline>
		<contour>
			<point x="86" y="747" type="curve" smooth="yes"/>
			<point x="112" y="747"/>
			<point x="136" y="766"/>
			<point x="136" y="795" type="curve" smooth="yes"/>
			<point x="136" y="826"/>
			<point x="112" y="845"/>
			<point x="86" y="845" type="curve" smooth="yes"/>
			<point x="60" y="845"/>
			<point x="38" y="826"/>
			<point x="38" y="795" type="curve" smooth="yes"/>
			<point x="38" y="766"/>
			<point x="60" y="747"/>
		</contour>
		<contour>
			<point x="232" y="747" type="curve" smooth="yes"/>
			<point x="258" y="747"/>
			<point x="280" y="766"/>
			<point x="280" y="795" type="curve" smooth="yes"/>
			<point x="280" y="826"/>
			<point x="258" y="845"/>
			<point x="232" y="845" type="curve" smooth="yes"/>
			<point x="204" y="845"/>
			<point x="182" y="826"/>
			<point x="182" y="795" type="curve" smooth="yes"/>
			<point x="182" y="766"/>
			<point x="204" y="747"/>
		</contour>
		<component base="I"/>
	</outline>
</glyph>
<glyph name="J" format="2">
	<advance width="330"/>
	<outline>
		<contour>
			<point x="53" y="-132" type="curve" smooth="yes"/>
			<point x="98" y="-132"/>
			<point x="126" y="-112"/>
			<point x="160" y="-67" type="curve" smooth="yes"/>
			<point x="201" y="-16"/>
			<point x="208" y="49"/>
			<point x="208" y="229" type="curve" smooth="yes"/>
			<point x="208" y="360" type="line" smooth="yes"/>
			<point x="208" y="465"/>
			<point x="208" y="570"/>
			<point x="212" y="669" type="curve"/>
			<point x="131" y="669" type="line"/>
			<point x="134" y="469"/>
			<point x="141" y="272"/>
			<point x="141" y="147" type="curve" smooth="yes"/>
			<point x="141" y="2"/>
			<point x="134" y="-45"/>
			<point x="104" y="-101" type="curve"/>
			<point x="104" y="-110" type="line"/>
			<point x="114" y="-110" type="line"/>
			<point x="114" y="-96" type="line"/>
			<point x="86" y="-73" type="line" smooth="yes"/>
			<point x="66" y="-57"/>
			<point x="53" y="-48"/>
			<point x="29" y="-48" type="curve" smooth="yes"/>
			<point x="3" y="-48"/>
			<point x="-17" y="-65"/>
			<point x="-19" y="-87" type="curve"/>
			<point x="-14" y="-117"/>
			<point x="14" y="-132"/>
		</contour>
		<contour>
			<point x="38" y="653" type="line"/>
			<point x="154" y="641" type="line"/>
			<point x="186" y="641" type="line"/>
			<point x="290" y="653" type="line"/>
			<point x="290" y="669" type="line"/>
			<point x="38" y="669" type="line"/>
		</contour>
	</outline>
	<anchor name="aboveUC" x="166" y="689"/>
	<anchor name="belowLC" x="120" y="-142"/>
</glyph>
<glyph name="K" format="2">
	<advance width="608"/>
	<outline>
		<contour>
			<point x="118" y="0" type="curve"/>
			<point x="200" y="0" type="line"/>
			<point x="196" y="80"/>
			<point x="196" y="210"/>
			<point x="196" y="316" type="curve" smooth="yes"/>
			<point x="196" y="360" type="line" smooth="yes"/>
			<point x="196" y="463"/>
			<point x="196" y="590"/>
			<point x="200" y="669" type="curve"/>
			<point x="118" y="669" type="line"/>
			<point x="122" y="590"/>
			<point x="122" y="463"/>
			<point x="122" y="360" type="curve" smooth="yes"/>
			<point x="122" y="316" type="line" smooth="yes"/>
			<point x="122" y="210"/>
			<point x="122" y="80"/>
		</contour>
		<contour>
			<point x="39" y="0" type="line"/>
			<point x="278" y="0" type="line"/>
			<point x="278" y="16" type="line"/>
			<point x="174" y="28" type="line"/>
			<point x="143" y="28" type="line"/>
			<point x="39" y="16" type="line"/>
		</contour>
		<contour>
			<point x="39" y="653" type="line"/>
			<point x="143" y="641" type="line"/>
			<point x="174" y="641" type="line"/>
			<point x="278" y="653" type="line"/>
			<point x="278" y="669" type="line"/>
			<point x="39" y="669" type="line"/>
		</contour>
		<contour>
			<point x="380" y="0" type="line"/>
			<point x="600" y="0" type="line"/>
			<point x="600" y="16" type="line"/>
			<point x="514" y="28" type="line"/>
			<point x="482" y="28" type="line"/>
			<point x="380" y="16" type="line"/>
		</contour>
		<contour>
			<point x="374" y="653" type="line"/>
			<point x="478" y="641" type="line"/>
			<point x="504" y="641" type="line"/>
			<point x="594" y="653" type="line"/>
			<point x="594" y="669" type="line"/>
			<point x="374" y="669" type="line"/>
		</contour>
		<contour>
			<point x="152" y="181" type="line"/>
			<point x="529" y="669" type="line"/>
			<point x="497" y="669" type="line"/>
			<point x="182" y="254" type="line"/>
			<point x="170" y="238" type="line"/>
			<point x="152" y="238" type="line"/>
		</contour>
		<contour>
			<point x="470" y="0" type="line"/>
			<point x="552" y="0" type="line"/>
			<point x="324" y="423" type="line"/>
			<point x="276" y="368" type="line"/>
		</contour>
	</outline>
	<anchor name="aboveUC" x="313" y="689"/>
	<anchor name="belowLC" x="320" y="-20"/>
</glyph>
<glyph name="M" format="2">
	<advance width="812"/>
	<outline>
		<contour>
			<point x="39" y="0" type="line"/>
			<point x="235" y="0" type="line"/>
			<point x="235" y="16" type="line"/>
			<point x="144" y="26" type="line"/>
			<point x="130" y="26" type="line"/>
			<point x="39" y="16" type="line"/>
		</contour>
		<contour>
			<point x="39" y="653" type="line"/>
			<point x="142" y="641" type="line"/>
			<point x="146" y="641" type="line"/>
			<point x="146" y="669" type="line"/>
			<point x="39" y="669" type="line"/>
		</contour>
		<contour>
			<point x="123" y="0" type="line"/>
			<point x="150" y="0" type="line"/>
			<point x="150" y="359" type="line"/>
			<point x="150" y="659" type="line"/>
			<point x="123" y="659" type="line"/>
		</contour>
		<contour>
			<point x="372" y="0" type="line"/>
			<point x="395" y="0" type="line"/>
			<point x="620" y="616" type="line"/>
			<point x="623" y="623" type="line"/>
			<point x="629" y="623" type="line"/>
			<point x="629" y="669" type="line"/>
			<point x="611" y="669" type="line"/>
			<point x="403" y="99" type="line"/>
			<point x="399" y="87" type="line"/>
			<point x="419" y="87" type="line"/>
			<point x="209" y="669" type="line"/>
			<point x="128" y="669" type="line"/>
			<point x="128" y="615" type="line"/>
			<point x="147" y="615" type="line"/>
		</contour>
		<contour>
			<point x="540" y="0" type="line"/>
			<point x="772" y="0" type="line"/>
			<point x="772" y="16" type="line"/>
			<point x="668" y="28" type="line"/>
			<point x="637" y="28" type="line"/>
			<point x="540" y="16" type="line"/>
		</contour>
		<contour>
			<point x="611" y="0" type="curve"/>
			<point x="694" y="0" type="line"/>
			<point x="690" y="80"/>
			<point x="690" y="210"/>
			<point x="690" y="316" type="curve" smooth="yes"/>
			<point x="690" y="360" type="line" smooth="yes"/>
			<point x="690" y="463"/>
			<point x="690" y="590"/>
			<point x="694" y="669" type="curve"/>
			<point x="616" y="669" type="line"/>
			<point x="616" y="316" type="line" smooth="yes"/>
			<point x="616" y="210"/>
			<point x="615" y="80"/>
		</contour>
		<contour>
			<point x="637" y="641" type="line"/>
			<point x="668" y="641" type="line"/>
			<point x="772" y="653" type="line"/>
			<point x="772" y="669" type="line"/>
			<point x="637" y="669" type="line"/>
		</contour>
	</outline>
	<anchor name="aboveUC" x="398" y="689"/>
	<anchor name="belowLC" x="387" y="-20"/>
</glyph>
<glyph name="N" format="2">
	<advance width="669"/>
	<outline>
		<contour>
			<point x="38" y="0" type="line"/>
			<point x="243" y="0" type="line"/>
			<point x="243" y="16" type="line"/>
			<point x="144" y="26" type="line"/>
			<point x="130" y="26" type="line"/>
			<point x="38" y="16" type="line"/>
		</contour>
		<contour>
			<point x="123" y="0" type="line"/>
			<point x="151" y="0" type="line"/>
			<point x="151" y="335" type="line"/>
			<point x="151" y="656" type="line"/>
			<point x="123" y="656" type="line"/>
		</contour>
		<contour>
			<point x="434" y="653" type="line"/>
			<point x="532" y="643" type="line"/>
			<point x="547" y="643" type="line"/>
			<point x="630" y="653" type="line"/>
			<point x="630" y="669" type="line"/>
			<point x="434" y="669" type="line"/>
		</contour>
		<contour>
			<point x="533" y="-8" type="line"/>
			<point x="554" y="-8" type="line"/>
			<point x="554" y="669" type="line"/>
			<point x="526" y="669" type="line"/>
			<point x="526" y="335" type="line"/>
			<point x="526" y="134" type="line"/>
			<point x="530" y="134" type="line"/>
			<point x="177" y="669" type="line"/>
			<point x="38" y="669" type="line"/>
			<point x="38" y="653" type="line"/>
			<point x="103" y="645" type="line"/>
			<point x="150" y="573" type="line"/>
			<point x="151" y="573" type="line"/>
		</contour>
	</outline>
	<anchor name="aboveUC" x="339" y="689"/>
	<anchor name="belowLC" x="335" y="-20"/>
</glyph>
<glyph name="OE" format="2">
	<advance width="860"/>
	<outline>
		<contour>
			<point x="129" y="334" type="curve" smooth="yes"/>
			<point x="129" y="546"/>
			<point x="229" y="664"/>
			<point x="348" y="664" type="curve" smooth="yes"/>
			<point x="387" y="664"/>
			<point x="420" y="659"/>
			<point x="459" y="638" type="curve"/>
			<point x="462" y="664" type="line"/>
			<point x="420" y="681"/>
			<point x="378" y="685"/>
			<point x="344" y="685" type="curve" smooth="yes"/>
			<point x="178" y="685"/>
			<point x="47" y="538"/>
			<point x="47" y="336" type="curve" smooth="yes"/>
			<point x="47" y="129"/>
			<point x="170" y="-16"/>
			<point x="343" y="-16" type="curve" smooth="yes"/>
			<point x="386" y="-16"/>
			<point x="429" y="-9"/>
			<point x="470" y="7" type="curve"/>
			<point x="468" y="35" type="line"/>
			<point x="424" y="10"/>
			<point x="382" y="5"/>
			<point x="345" y="5" type="curve" smooth="yes"/>
			<point x="221" y="5"/>
			<point x="129" y="120"/>
		</contour>
		<contour>
			<point x="434" y="0" type="curve"/>
			<point x="517" y="0" type="line"/>
			<point x="513" y="80"/>
			<point x="513" y="210"/>
			<point x="513" y="316" type="curve" smooth="yes"/>
			<point x="513" y="360" type="line" smooth="yes"/>
			<point x="513" y="463"/>
			<point x="513" y="590"/>
			<point x="517" y="669" type="curve"/>
			<point x="434" y="669" type="line"/>
			<point x="438" y="590"/>
			<point x="438" y="463"/>
			<point x="438" y="360" type="curve" smooth="yes"/>
			<point x="438" y="316" type="line" smooth="yes"/>
			<point x="438" y="210"/>
			<point x="438" y="80"/>
		</contour>
		<contour>
			<point x="672" y="232" type="line"/>
			<point x="689" y="232" type="line"/>
			<point x="689" y="452" type="line"/>
			<point x="672" y="452" type="line"/>
			<point x="642" y="352" type="line"/>
			<point x="642" y="332" type="line"/>
		</contour>
		<contour>
			<point x="475" y="330" type="line"/>
			<point x="655" y="330" type="line"/>
			<point x="655" y="354" type="line"/>
			<point x="475" y="354" type="line"/>
		</contour>
		<contour>
			<point x="784" y="491" type="line"/>
			<point x="802" y="491" type="line"/>
			<point x="790" y="669" type="line"/>
			<point x="473" y="669" type="line"/>
			<point x="473" y="645" type="line"/>
			<point x="728" y="645" type="line"/>
		</contour>
		<contour>
			<point x="800" y="188" type="line"/>
			<point x="744" y="24" type="line"/>
			<point x="475" y="24" type="line"/>
			<point x="475" y="0" type="line"/>
			<point x="806" y="0" type="line"/>
			<point x="818" y="188" type="line"/>
		</contour>
	</outline>
	<anchor name="aboveUC" x="473" y="689"/>
</glyph>
<glyph name="P" format="2">
	<advance width="515"/>
	<outline>
		<contour>
			<point x="39" y="0" type="line"/>
			<point x="291" y="0" type="line"/>
			<point x="291" y="16" type="line"/>
			<point x="175" y="28" type="line"/>
			<point x="143" y="28" type="line"/>
			<point x="39" y="16" type="line"/>
		</contour>
		<contour>
			<point x="118" y="0" type="curve"/>
			<point x="200" y="0" type="line"/>
			<point x="196" y="80"/>
			<point x="196" y="210"/>
			<point x="196" y="316" type="curve" smooth="yes"/>
			<point x="196" y="360" type="line" smooth="yes"/>
			<point x="196" y="463"/>
			<point x="196" y="590"/>
			<point x="200" y="669" type="curve"/>
			<point x="118" y="669" type="line"/>
			<point x="122" y="590"/>
			<point x="122" y="463"/>
			<point x="122" y="360" type="curve" smooth="yes"/>
			<point x="122" y="316" type="line" smooth="yes"/>
			<point x="122" y="210"/>
			<point x="122" y="80"/>
		</contour>
		<contour>
			<point x="150" y="287" type="line"/>
			<point x="245" y="287" type="line" smooth="yes"/>
			<point x="424" y="287"/>
			<point x="492" y="380"/>
			<point x="492" y="485" type="curve" smooth="yes"/>
			<point x="492" y="594"/>
			<point x="416" y="669"/>
			<point x="271" y="669" type="curve" smooth="yes"/>
			<point x="150" y="669" type="line"/>
			<point x="150" y="645" type="line"/>
			<point x="253" y="645" type="line" smooth="yes"/>
			<point x="365" y="645"/>
			<point x="414" y="585"/>
			<point x="414" y="485" type="curve" smooth="yes"/>
			<point x="414" y="386"/>
			<point x="371" y="312"/>
			<point x="257" y="312" type="curve" smooth="yes"/>
			<point x="150" y="312" type="line"/>
		</contour>
		<contour>
			<point x="39" y="653" type="line"/>
			<point x="143" y="641" type="line"/>
			<point x="174" y="641" type="line"/>
			<point x="174" y="669" type="line"/>
			<point x="39" y="669" type="line"/>
		</contour>
	</outline>
	<anchor name="aboveUC" x="265" y="689"/>
	<anchor name="belowLC" x="161" y="-20"/>
</glyph>
<glyph name="Q" format="2">
	<advance width="640"/>
	<outline>
		<contour>
			<point x="464" y="-215" type="curve" smooth="yes"/>
			<point x="501" y="-215"/>
			<point x="544" y="-206"/>
			<point x="576" y="-182" type="curve"/>
			<point x="569" y="-166" type="line"/>
			<point x="538" y="-179"/>
			<point x="512" y="-181"/>
			<point x="493" y="-181" type="curve" smooth="yes"/>
			<point x="401" y="-181"/>
			<point x="344" y="-114"/>
			<point x="354" y="2" type="curve"/>
			<point x="284" y="2" type="line"/>
			<point x="284" y="-23" type="line" smooth="yes"/>
			<point x="284" y="-127"/>
			<point x="348" y="-215"/>
		</contour>
		<component base="O"/>
	</outline>
	<anchor name="aboveUC" x="320" y="689"/>
</glyph>
<glyph name="R" format="2">
	<advance width="610"/>
	<outline>
		<contour>
			<point x="39" y="0" type="line"/>
			<point x="275" y="0" type="line"/>
			<point x="275" y="16" type="line"/>
			<point x="175" y="28" type="line"/>
			<point x="143" y="28" type="line"/>
			<point x="39" y="16" type="line"/>
		</contour>
		<contour>
			<point x="118" y="0" type="curve"/>
			<point x="199" y="0" type="line"/>
			<point x="196" y="80"/>
			<point x="196" y="210"/>
			<point x="196" y="316" type="curve" smooth="yes"/>
			<point x="196" y="360" type="line" smooth="yes"/>
			<point x="196" y="463"/>
			<point x="196" y="590"/>
			<point x="199" y="669" type="curve"/>
			<point x="118" y="669" type="line"/>
			<point x="122" y="590"/>
			<point x="122" y="463"/>
			<point x="122" y="360" type="curve" smooth="yes"/>
			<point x="122" y="316" type="line" smooth="yes"/>
			<point x="122" y="210"/>
			<point x="122" y="80"/>
		</contour>
		<contour>
			<point x="532" y="-8" type="curve" smooth="yes"/>
			<point x="558" y="-8"/>
			<point x="581" y="-5"/>
			<point x="599" y="0" type="curve"/>
			<point x="599" y="16" type="line"/>
			<point x="495" y="26" type="line"/>
			<point x="532" y="16" type="line"/>
			<point x="446" y="198" type="line" smooth="yes"/>
			<point x="400" y="292"/>
			<point x="354" y="323"/>
			<point x="253" y="324" type="curve"/>
			<point x="253" y="317" type="line"/>
			<point x="425" y="317"/>
			<point x="495" y="407"/>
			<point x="495" y="499" type="curve" smooth="yes"/>
			<point x="495" y="608"/>
			<point x="413" y="669"/>
			<point x="284" y="669" type="curve" smooth="yes"/>
			<point x="151" y="669" type="line"/>
			<point x="151" y="645" type="line"/>
			<point x="278" y="645" type="line" smooth="yes"/>
			<point x="374" y="645"/>
			<point x="418" y="590"/>
			<point x="418" y="497" type="curve" smooth="yes"/>
			<point x="418" y="409"/>
			<point x="369" y="334"/>
			<point x="267" y="334" type="curve" smooth="yes"/>
			<point x="151" y="334" type="line"/>
			<point x="151" y="310" type="line"/>
			<point x="228" y="310" type="line" smooth="yes"/>
			<point x="302" y="310"/>
			<point x="325" y="291"/>
			<point x="358" y="215" type="curve" smooth="yes"/>
			<point x="428" y="58" type="line" smooth="yes"/>
			<point x="449" y="9"/>
			<point x="470" y="-8"/>
		</contour>
		<contour>
			<point x="39" y="653" type="line"/>
			<point x="143" y="641" type="line"/>
			<point x="174" y="641" type="line"/>
			<point x="174" y="669" type="line"/>
			<point x="39" y="669" type="line"/>
		</contour>
	</outline>
	<anchor name="aboveUC" x="302" y="689"/>
	<anchor name="belowLC" x="330" y="-20"/>
</glyph>
<glyph name="S" format="2">
	<advance width="470"/>
	<outline>
		<contour>
			<point x="216" y="-16" type="curve" smooth="yes"/>
			<point x="352" y="-16"/>
			<point x="430" y="56"/>
			<point x="430" y="172" type="curve" smooth="yes"/>
			<point x="430" y="284"/>
			<point x="350" y="328"/>
			<point x="270" y="366" type="curve" smooth="yes"/>
			<point x="235" y="383" type="line" smooth="yes"/>
			<point x="170" y="414"/>
			<point x="112" y="452"/>
			<point x="112" y="527" type="curve" smooth="yes"/>
			<point x="112" y="628"/>
			<point x="176" y="664"/>
			<point x="250" y="664" type="curve" smooth="yes"/>
			<point x="300" y="664"/>
			<point x="342" y="658"/>
			<point x="388" y="613" type="curve"/>
			<point x="384" y="639" type="line"/>
			<point x="337" y="659" type="line"/>
			<point x="382" y="493" type="line"/>
			<point x="398" y="493" type="line"/>
			<point x="402" y="637" type="line"/>
			<point x="365" y="667"/>
			<point x="317" y="685"/>
			<point x="250" y="685" type="curve" smooth="yes"/>
			<point x="139" y="685"/>
			<point x="52" y="622"/>
			<point x="52" y="507" type="curve" smooth="yes"/>
			<point x="52" y="398"/>
			<point x="130" y="353"/>
			<point x="207" y="316" type="curve" smooth="yes"/>
			<point x="242" y="299" type="line" smooth="yes"/>
			<point x="308" y="268"/>
			<point x="366" y="232"/>
			<point x="366" y="154" type="curve" smooth="yes"/>
			<point x="366" y="46"/>
			<point x="303" y="5"/>
			<point x="216" y="5" type="curve" smooth="yes"/>
			<point x="153" y="5"/>
			<point x="118" y="18"/>
			<point x="62" y="52" type="curve"/>
			<point x="62" y="36" type="line"/>
			<point x="106" y="12" type="line"/>
			<point x="64" y="188" type="line"/>
			<point x="48" y="188" type="line"/>
			<point x="40" y="36" type="line"/>
			<point x="83" y="6"/>
			<point x="145" y="-16"/>
		</contour>
	</outline>
	<anchor name="aboveUC" x="252" y="689"/>
	<anchor name="baseLC" x="217" y="0"/>
	<anchor name="belowLC" x="221" y="-20"/>
</glyph>
<glyph name="Schwa" format="2">
	<advance width="584"/>
	<outline>
		<contour>
			<point x="42" y="272" type="curve" smooth="yes"/>
			<point x="42" y="132"/>
			<point x="115" y="-16"/>
			<point x="288" y="-16" type="curve" smooth="yes"/>
			<point x="427" y="-16"/>
			<point x="538" y="114"/>
			<point x="538" y="340" type="curve" smooth="yes"/>
			<point x="538" y="559"/>
			<point x="421" y="685"/>
			<point x="280" y="685" type="curve" smooth="yes"/>
			<point x="195" y="685"/>
			<point x="136" y="650"/>
			<point x="83" y="586" type="curve"/>
			<point x="95" y="575" type="line"/>
			<point x="144" y="614"/>
			<point x="195" y="635"/>
			<point x="262" y="635" type="curve" smooth="yes"/>
			<point x="366" y="635"/>
			<point x="455" y="545"/>
			<point x="455" y="328" type="curve" smooth="yes"/>
			<point x="455" y="104"/>
			<point x="393" y="6"/>
			<point x="288" y="6" type="curve" smooth="yes"/>
			<point x="158" y="6"/>
			<point x="119" y="152"/>
			<point x="119" y="268" type="curve" smooth="yes"/>
			<point x="119" y="289"/>
			<point x="119" y="311"/>
			<point x="122" y="329" type="curve"/>
			<point x="494" y="329" type="line"/>
			<point x="494" y="353" type="line"/>
			<point x="50" y="353" type="line"/>
			<point x="44" y="329"/>
			<point x="42" y="309"/>
		</contour>
	</outline>
	<anchor name="aboveUC" x="286" y="689"/>
	<anchor name="belowLC" x="289" y="-20"/>
</glyph>
<glyph name="T" format="2">
	<advance width="569"/>
	<outline>
		<contour>
			<point x="153" y="0" type="line"/>
			<point x="416" y="0" type="line"/>
			<point x="416" y="16" type="line"/>
			<point x="300" y="28" type="line"/>
			<point x="268" y="28" type="line"/>
			<point x="153" y="16" type="line"/>
		</contour>
		<contour>
			<point x="244" y="0" type="curve"/>
			<point x="326" y="0" type="line"/>
			<point x="322" y="80"/>
			<point x="322" y="210"/>
			<point x="322" y="316" type="curve" smooth="yes"/>
			<point x="322" y="360" type="line" smooth="yes"/>
			<point x="322" y="463"/>
			<point x="322" y="590"/>
			<point x="326" y="669" type="curve"/>
			<point x="244" y="669" type="line"/>
			<point x="248" y="590"/>
			<point x="248" y="463"/>
			<point x="248" y="360" type="curve" smooth="yes"/>
			<point x="248" y="316" type="line" smooth="yes"/>
			<point x="248" y="210"/>
			<point x="248" y="80"/>
		</contour>
		<contour>
			<point x="28" y="481" type="line"/>
			<point x="44" y="481" type="line"/>
			<point x="106" y="657" type="line"/>
			<point x="68" y="645" type="line"/>
			<point x="502" y="645" type="line"/>
			<point x="464" y="657" type="line"/>
			<point x="526" y="481" type="line"/>
			<point x="542" y="481" type="line"/>
			<point x="530" y="669" type="line"/>
			<point x="40" y="669" type="line"/>
		</contour>
	</outline>
	<anchor name="aboveUC" x="284" y="689"/>
	<anchor name="baseLC" x="284" y="0"/>
	<anchor name="belowLC" x="284" y="-20"/>
</glyph>
<glyph name="Thorn" format="2">
	<advance width="516"/>
	<outline>
		<contour>
			<point x="151" y="170" type="line"/>
			<point x="260" y="170" type="line" smooth="yes"/>
			<point x="416" y="170"/>
			<point x="492" y="249"/>
			<point x="492" y="354" type="curve" smooth="yes"/>
			<point x="492" y="459"/>
			<point x="416" y="533"/>
			<point x="260" y="533" type="curve" smooth="yes"/>
			<point x="151" y="533" type="line"/>
			<point x="151" y="509" type="line"/>
			<point x="254" y="509" type="line" smooth="yes"/>
			<point x="365" y="509"/>
			<point x="414" y="447"/>
			<point x="414" y="354" type="curve" smooth="yes"/>
			<point x="414" y="259"/>
			<point x="365" y="194"/>
			<point x="254" y="194" type="curve" smooth="yes"/>
			<point x="151" y="194" type="line"/>
		</contour>
		<contour>
			<point x="118" y="0" type="curve"/>
			<point x="200" y="0" type="line"/>
			<point x="196" y="80"/>
			<point x="196" y="210"/>
			<point x="196" y="316" type="curve" smooth="yes"/>
			<point x="196" y="360" type="line" smooth="yes"/>
			<point x="196" y="463"/>
			<point x="196" y="590"/>
			<point x="200" y="669" type="curve"/>
			<point x="118" y="669" type="line"/>
			<point x="122" y="590"/>
			<point x="122" y="463"/>
			<point x="122" y="360" type="curve" smooth="yes"/>
			<point x="122" y="316" type="line" smooth="yes"/>
			<point x="122" y="210"/>
			<point x="122" y="80"/>
		</contour>
		<contour>
			<point x="143" y="641" type="line"/>
			<point x="174" y="641" type="line"/>
			<point x="278" y="653" type="line"/>
			<point x="278" y="669" type="line"/>
			<point x="39" y="669" type="line"/>
			<point x="39" y="653" type="line"/>
		</contour>
		<contour>
			<point x="39" y="0" type="line"/>
			<point x="278" y="0" type="line"/>
			<point x="278" y="16" type="line"/>
			<point x="174" y="28" type="line"/>
			<point x="143" y="28" type="line"/>
			<point x="39" y="16" type="line"/>
		</contour>
	</outline>
</glyph>
<glyph name="U" format="2">
	<advance width="662"/>
	<outline>
		<contour>
			<point x="339" y="-16" type="curve" smooth="yes"/>
			<point x="462" y="-16"/>
			<point x="549" y="53"/>
			<point x="549" y="242" type="curve" smooth="yes"/>
			<point x="549" y="669" type="line"/>
			<point x="522" y="669" type="line"/>
			<point x="522" y="247" type="line" smooth="yes"/>
			<point x="522" y="79"/>
			<point x="453" y="30"/>
			<point x="348" y="30" type="curve" smooth="yes"/>
			<point x="254" y="30"/>
			<point x="188" y="86"/>
			<point x="188" y="237" type="curve" smooth="yes"/>
			<point x="188" y="360" type="line" smooth="yes"/>
			<point x="188" y="463"/>
			<point x="188" y="590"/>
			<point x="192" y="669" type="curve"/>
			<point x="110" y="669" type="line"/>
			<point x="114" y="590"/>
			<point x="114" y="463"/>
			<point x="114" y="360" type="curve" smooth="yes"/>
			<point x="114" y="225" type="line" smooth="yes"/>
			<point x="114" y="50"/>
			<point x="211" y="-16"/>
		</contour>
		<contour>
			<point x="39" y="653" type="line"/>
			<point x="136" y="641" type="line"/>
			<point x="167" y="641" type="line"/>
			<point x="270" y="653" type="line"/>
			<point x="270" y="669" type="line"/>
			<point x="39" y="669" type="line"/>
		</contour>
		<contour>
			<point x="438" y="653" type="line"/>
			<point x="530" y="643" type="line"/>
			<point x="542" y="643" type="line"/>
			<point x="622" y="653" type="line"/>
			<point x="622" y="669" type="line"/>
			<point x="438" y="669" type="line"/>
		</contour>
	</outline>
	<anchor name="aboveUC" x="349" y="689"/>
	<anchor name="belowLC" x="333" y="-20"/>
	<anchor name="hornLC" x="526" y="592"/>
	<anchor name="ogonek" x="408" y="0"/>
</glyph>
<glyph name="Uhorn" format="2">
	<advance width="662"/>
	<outline>
		<contour>
			<point x="337" y="-16" type="curve" smooth="yes"/>
			<point x="462" y="-16"/>
			<point x="549" y="53"/>
			<point x="549" y="242" type="curve" smooth="yes"/>
			<point x="549" y="669" type="line"/>
			<point x="522" y="669" type="line"/>
			<point x="522" y="247" type="line" smooth="yes"/>
			<point x="522" y="79"/>
			<point x="453" y="30"/>
			<point x="348" y="30" type="curve" smooth="yes"/>
			<point x="254" y="30"/>
			<point x="188" y="86"/>
			<point x="188" y="237" type="curve" smooth="yes"/>
			<point x="188" y="360" type="line" smooth="yes"/>
			<point x="188" y="463"/>
			<point x="188" y="590"/>
			<point x="192" y="669" type="curve"/>
			<point x="110" y="669" type="line"/>
			<point x="114" y="590"/>
			<point x="114" y="463"/>
			<point x="114" y="360" type="curve" smooth="yes"/>
			<point x="114" y="225" type="line" smooth="yes"/>
			<point x="114" y="50"/>
			<point x="211" y="-16"/>
		</contour>
		<contour>
			<point x="543" y="644" type="line"/>
			<point x="606" y="646"/>
			<point x="651" y="672"/>
			<point x="651" y="752" type="curve" smooth="yes"/>
			<point x="651" y="770"/>
			<point x="647" y="793"/>
			<point x="640" y="806" type="curve"/>
			<point x="633" y="813"/>
			<point x="625" y="817"/>
			<point x="613" y="817" type="curve" smooth="yes"/>
			<point x="595" y="817"/>
			<point x="579" y="802"/>
			<point x="579" y="782" type="curve" smooth="yes"/>
			<point x="579" y="757"/>
			<point x="615" y="739"/>
			<point x="615" y="712" type="curve" smooth="yes"/>
			<point x="615" y="685"/>
			<point x="593" y="669"/>
			<point x="543" y="669" type="curve"/>
		</contour>
		<contour>
			<point x="39" y="653" type="line"/>
			<point x="136" y="641" type="line"/>
			<point x="167" y="641" type="line"/>
			<point x="270" y="653" type="line"/>
			<point x="270" y="669" type="line"/>
			<point x="39" y="669" type="line"/>
		</contour>
		<contour>
			<point x="438" y="653" type="line"/>
			<point x="530" y="643" type="line"/>
			<point x="542" y="643" type="line"/>
			<point x="542" y="669" type="line"/>
			<point x="438" y="669" type="line"/>
		</contour>
	</outline>
	<anchor name="aboveUC" x="349" y="689"/>
	<anchor name="belowLC" x="333" y="-20"/>
</glyph>
<glyph name="Uogonek" format="2">
	<advance width="662"/>
	<outline>
		<contour>
			<point x="136" y="641" type="line"/>
			<point x="167" y="641" type="line"/>
			<point x="270" y="653" type="line"/>
			<point x="270" y="669" type="line"/>
			<point x="39" y="669" type="line"/>
			<point x="39" y="653" type="line"/>
		</contour>
		<contour>
			<point x="391" y="-230" type="curve" smooth="yes"/>
			<point x="428" y="-230"/>
			<point x="456" y="-216"/>
			<point x="483" y="-185" type="curve"/>
			<point x="477" y="-173" type="line"/>
			<point x="456" y="-182"/>
			<point x="436" y="-185"/>
			<point x="418" y="-185" type="curve" smooth="yes"/>
			<point x="382" y="-185"/>
			<point x="360" y="-163"/>
			<point x="360" y="-118" type="curve" smooth="yes"/>
			<point x="360" y="-65"/>
			<point x="408" y="-16"/>
			<point x="449" y="9" type="curve" smooth="yes"/>
			<point x="512" y="47"/>
			<point x="549" y="116"/>
			<point x="549" y="242" type="curve" smooth="yes"/>
			<point x="549" y="669" type="line"/>
			<point x="522" y="669" type="line"/>
			<point x="522" y="247" type="line" smooth="yes"/>
			<point x="522" y="79"/>
			<point x="453" y="30"/>
			<point x="348" y="30" type="curve" smooth="yes"/>
			<point x="254" y="30"/>
			<point x="188" y="86"/>
			<point x="188" y="237" type="curve" smooth="yes"/>
			<point x="188" y="360" type="line" smooth="yes"/>
			<point x="188" y="463"/>
			<point x="188" y="590"/>
			<point x="192" y="669" type="curve"/>
			<point x="110" y="669" type="line"/>
			<point x="114" y="590"/>
			<point x="114" y="463"/>
			<point x="114" y="360" type="curve" smooth="yes"/>
			<point x="114" y="225" type="line" smooth="yes"/>
			<point x="114" y="50"/>
			<point x="211" y="-16"/>
			<point x="337" y="-16" type="curve" smooth="yes"/>
			<point x="364" y="-16"/>
			<point x="387" y="-13"/>
			<point x="408" y="-7" type="curve"/>
			<point x="431" y="9" type="line"/>
			<point x="377" y="-18"/>
			<point x="306" y="-67"/>
			<point x="306" y="-144" type="curve" smooth="yes"/>
			<point x="306" y="-195"/>
			<point x="340" y="-230"/>
		</contour>
		<contour>
			<point x="530" y="643" type="line"/>
			<point x="542" y="643" type="line"/>
			<point x="622" y="653" type="line"/>
			<point x="622" y="669" type="line"/>
			<point x="438" y="669" type="line"/>
			<point x="438" y="653" type="line"/>
		</contour>
	</outline>
	<anchor name="aboveUC" x="348" y="689"/>
</glyph>
<glyph name="V" format="2">
	<advance width="612"/>
	<outline>
		<contour>
			<point x="294" y="-8" type="line"/>
			<point x="322" y="-8" type="line"/>
			<point x="541" y="669" type="line"/>
			<point x="510" y="669" type="line"/>
			<point x="326" y="86" type="line"/>
			<point x="323" y="77" type="line"/>
			<point x="337" y="77" type="line"/>
			<point x="153" y="669" type="line"/>
			<point x="72" y="669" type="line"/>
		</contour>
		<contour>
			<point x="12" y="653" type="line"/>
			<point x="96" y="641" type="line"/>
			<point x="140" y="641" type="line"/>
			<point x="248" y="653" type="line"/>
			<point x="248" y="669" type="line"/>
			<point x="12" y="669" type="line"/>
		</contour>
		<contour>
			<point x="410" y="653" type="line"/>
			<point x="504" y="643" type="line"/>
			<point x="524" y="643" type="line"/>
			<point x="600" y="653" type="line"/>
			<point x="600" y="669" type="line"/>
			<point x="410" y="669" type="line"/>
		</contour>
	</outline>
	<anchor name="aboveUC" x="323" y="689"/>
	<anchor name="belowLC" x="311" y="-20"/>
</glyph>
<glyph name="W" format="2">
	<advance width="890"/>
	<outline>
		<contour>
			<point x="246" y="-6" type="line"/>
			<point x="279" y="-6" type="line"/>
			<point x="449" y="573" type="line"/>
			<point x="453" y="585" type="line"/>
			<point x="434" y="585" type="line"/>
			<point x="600" y="-6" type="line"/>
			<point x="632" y="-6" type="line"/>
			<point x="818" y="669" type="line"/>
			<point x="785" y="669" type="line"/>
			<point x="638" y="113" type="line"/>
			<point x="634" y="96" type="line"/>
			<point x="653" y="96" type="line"/>
			<point x="491" y="669" type="line"/>
			<point x="450" y="669" type="line"/>
			<point x="285" y="112" type="line"/>
			<point x="280" y="96" type="line"/>
			<point x="299" y="96" type="line"/>
			<point x="155" y="669" type="line"/>
			<point x="72" y="669" type="line"/>
		</contour>
		<contour>
			<point x="12" y="653" type="line"/>
			<point x="104" y="641" type="line"/>
			<point x="129" y="641" type="line"/>
			<point x="252" y="653" type="line"/>
			<point x="252" y="669" type="line"/>
			<point x="12" y="669" type="line"/>
		</contour>
		<contour>
			<point x="359" y="653" type="line"/>
			<point x="444" y="644" type="line"/>
			<point x="473" y="641" type="line"/>
			<point x="581" y="653" type="line"/>
			<point x="581" y="669" type="line"/>
			<point x="359" y="669" type="line"/>
		</contour>
		<contour>
			<point x="684" y="653" type="line"/>
			<point x="786" y="643" type="line"/>
			<point x="800" y="643" type="line"/>
			<point x="878" y="653" type="line"/>
			<point x="878" y="669" type="line"/>
			<point x="684" y="669" type="line"/>
		</contour>
	</outline>
	<anchor name="aboveUC" x="466" y="689"/>
	<anchor name="belowLC" x="451" y="-20"/>
</glyph>
<glyph name="X" format="2">
	<advance width="613"/>
	<outline>
		<contour>
			<point x="12" y="0" type="line"/>
			<point x="206" y="0" type="line"/>
			<point x="206" y="16" type="line"/>
			<point x="120" y="26" type="line"/>
			<point x="92" y="26" type="line"/>
			<point x="12" y="16" type="line"/>
		</contour>
		<contour>
			<point x="73" y="0" type="line"/>
			<point x="105" y="0" type="line"/>
			<point x="294" y="319" type="line"/>
			<point x="301" y="330" type="line"/>
			<point x="314" y="330" type="line"/>
			<point x="283" y="349" type="line"/>
		</contour>
		<contour>
			<point x="361" y="0" type="line"/>
			<point x="601" y="0" type="line"/>
			<point x="601" y="16" type="line"/>
			<point x="509" y="28" type="line"/>
			<point x="473" y="28" type="line"/>
			<point x="361" y="16" type="line"/>
		</contour>
		<contour>
			<point x="331" y="349" type="line"/>
			<point x="522" y="669" type="line"/>
			<point x="490" y="669" type="line"/>
			<point x="320" y="379" type="line"/>
			<point x="314" y="370" type="line"/>
			<point x="301" y="370" type="line"/>
		</contour>
		<contour>
			<point x="461" y="0" type="line"/>
			<point x="548" y="0" type="line"/>
			<point x="162" y="669" type="line"/>
			<point x="75" y="669" type="line"/>
		</contour>
		<contour>
			<point x="22" y="653" type="line"/>
			<point x="118" y="641" type="line"/>
			<point x="154" y="641" type="line"/>
			<point x="262" y="653" type="line"/>
			<point x="262" y="669" type="line"/>
			<point x="22" y="669" type="line"/>
		</contour>
		<contour>
			<point x="389" y="653" type="line"/>
			<point x="476" y="643" type="line"/>
			<point x="504" y="643" type="line"/>
			<point x="584" y="653" type="line"/>
			<point x="584" y="669" type="line"/>
			<point x="389" y="669" type="line"/>
		</contour>
	</outline>
	<anchor name="aboveUC" x="324" y="689"/>
	<anchor name="belowLC" x="285" y="-20"/>
</glyph>
<glyph name="Y" format="2">
	<advance width="594"/>
	<outline>
		<contour>
			<point x="166" y="0" type="line"/>
			<point x="429" y="0" type="line"/>
			<point x="429" y="16" type="line"/>
			<point x="314" y="28" type="line"/>
			<point x="282" y="28" type="line"/>
			<point x="166" y="16" type="line"/>
		</contour>
		<contour>
			<point x="256" y="0" type="curve"/>
			<point x="338" y="0" type="line"/>
			<point x="335" y="105"/>
			<point x="335" y="165"/>
			<point x="335" y="294" type="curve"/>
			<point x="260" y="294" type="line"/>
			<point x="260" y="165"/>
			<point x="260" y="105"/>
		</contour>
		<contour>
			<point x="290" y="208" type="line"/>
			<point x="306" y="208" type="line"/>
			<point x="521" y="669" type="line"/>
			<point x="491" y="669" type="line"/>
			<point x="321" y="301" type="line"/>
			<point x="319" y="296" type="line"/>
			<point x="328" y="296" type="line"/>
			<point x="149" y="669" type="line"/>
			<point x="67" y="669" type="line"/>
		</contour>
		<contour>
			<point x="12" y="653" type="line"/>
			<point x="104" y="641" type="line"/>
			<point x="138" y="641" type="line"/>
			<point x="246" y="653" type="line"/>
			<point x="246" y="669" type="line"/>
			<point x="12" y="669" type="line"/>
		</contour>
		<contour>
			<point x="395" y="653" type="line"/>
			<point x="481" y="643" type="line"/>
			<point x="502" y="643" type="line"/>
			<point x="582" y="653" type="line"/>
			<point x="582" y="669" type="line"/>
			<point x="395" y="669" type="line"/>
		</contour>
	</outline>
	<anchor name="aboveUC" x="322" y="689"/>
	<anchor name="belowLC" x="297" y="-20"/>
</glyph>
<glyph name="Z" format="2">
	<advance width="502"/>
	<outline>
		<contour>
			<point x="24" y="0" type="line"/>
			<point x="470" y="0" type="line"/>
			<point x="482" y="188" type="line"/>
			<point x="465" y="188" type="line"/>
			<point x="404" y="12" type="line"/>
			<point x="444" y="24" type="line"/>
			<point x="273" y="24" type="line"/>
			<point x="106" y="24" type="line"/>
			<point x="106" y="31" type="line"/>
			<point x="100" y="8" type="line"/>
			<point x="454" y="653" type="line"/>
			<point x="454" y="669" type="line"/>
			<point x="40" y="669" type="line"/>
			<point x="28" y="493" type="line"/>
			<point x="45" y="493" type="line"/>
			<point x="106" y="657" type="line"/>
			<point x="68" y="645" type="line"/>
			<point x="222" y="645" type="line"/>
			<point x="373" y="645" type="line"/>
			<point x="373" y="636" type="line"/>
			<point x="380" y="663" type="line"/>
			<point x="24" y="16" type="line"/>
		</contour>
	</outline>
	<anchor name="aboveUC" x="245" y="689"/>
	<anchor name="belowLC" x="262" y="-20"/>
</glyph>
<glyph name=".notdef" format="2">
	<advance width="640"/>
	<outline>
		<contour>
			<point x="80" y="0" type="line"/>
			<point x="142" y="0" type="line"/>
			<point x="560" y="669" type="line"/>
			<point x="498" y="669" type="line"/>
		</contour>
		<contour>
			<point x="560" y="0" type="line"/>
			<point x="142" y="669" type="line"/>
			<point x="80" y="669" type="line"/>
			<point x="498" y="0" type="line"/>
		</contour>
		<contour>
			<point x="142" y="52" type="line"/>
			<point x="142" y="619" type="line"/>
			<point x="498" y="619" type="line"/>
			<point x="498" y="52" type="line"/>
		</contour>
		<contour>
			<point x="80" y="0" type="line"/>
			<point x="560" y="0" type="line"/>
			<point x="560" y="669" type="line"/>
			<point x="80" y="669" type="line"/>
		</contour>
	</outline>
</glyph>
<glyph name="a" format="2">
	<advance width="455"/>
	<outline>
		<contour>
			<point x="156" y="-12" type="curve" smooth="yes"/>
			<point x="208" y="-12"/>
			<point x="255" y="11"/>
			<point x="297" y="68" type="curve"/>
			<point x="327" y="68" type="line"/>
			<point x="319" y="106" type="line"/>
			<point x="259" y="47"/>
			<point x="230" y="38"/>
			<point x="186" y="38" type="curve" smooth="yes"/>
			<point x="144" y="38"/>
			<point x="112" y="61"/>
			<point x="112" y="118" type="curve" smooth="yes"/>
			<point x="112" y="151"/>
			<point x="122" y="191"/>
			<point x="204" y="227" type="curve" smooth="yes"/>
			<point x="223" y="235"/>
			<point x="263" y="248"/>
			<point x="330" y="267" type="curve"/>
			<point x="330" y="284" type="line"/>
			<point x="261" y="267"/>
			<point x="214" y="254"/>
			<point x="185" y="244" type="curve" smooth="yes"/>
			<point x="63" y="203"/>
			<point x="39" y="156"/>
			<point x="39" y="100" type="curve" smooth="yes"/>
			<point x="39" y="27"/>
			<point x="90" y="-12"/>
		</contour>
		<contour>
			<point x="369" y="-8" type="curve" smooth="yes"/>
			<point x="409" y="-8"/>
			<point x="431" y="15"/>
			<point x="446" y="47" type="curve"/>
			<point x="435" y="55" type="line"/>
			<point x="419" y="36"/>
			<point x="409" y="30"/>
			<point x="392" y="30" type="curve" smooth="yes"/>
			<point x="373" y="30"/>
			<point x="361" y="41"/>
			<point x="361" y="83" type="curve" smooth="yes"/>
			<point x="361" y="306" type="line" smooth="yes"/>
			<point x="361" y="416"/>
			<point x="318" y="464"/>
			<point x="226" y="464" type="curve" smooth="yes"/>
			<point x="139" y="464"/>
			<point x="70" y="421"/>
			<point x="56" y="356" type="curve"/>
			<point x="58" y="332"/>
			<point x="68" y="318"/>
			<point x="91" y="318" type="curve" smooth="yes"/>
			<point x="114" y="318"/>
			<point x="130" y="334"/>
			<point x="135" y="362" type="curve" smooth="yes"/>
			<point x="154" y="442" type="line"/>
			<point x="126" y="422" type="line"/>
			<point x="152" y="431"/>
			<point x="174" y="438"/>
			<point x="200" y="438" type="curve" smooth="yes"/>
			<point x="263" y="438"/>
			<point x="290" y="406"/>
			<point x="290" y="308" type="curve" smooth="yes"/>
			<point x="290" y="77" type="line"/>
			<point x="290" y="75" type="line"/>
			<point x="292" y="21"/>
			<point x="318" y="-8"/>
		</contour>
	</outline>
	<anchor name="aboveLC" x="220" y="472"/>
	<anchor name="belowLC" x="224" y="-20"/>
	<anchor name="ogonek" x="386" y="0"/>
</glyph>
<glyph name="ae" format="2">
	<advance width="690"/>
	<outline>
		<contour>
			<point x="156" y="-12" type="curve" smooth="yes"/>
			<point x="228" y="-12"/>
			<point x="284" y="37"/>
			<point x="327" y="94" type="curve"/>
			<point x="352" y="94" type="line"/>
			<point x="319" y="106" type="line"/>
			<point x="259" y="47"/>
			<point x="230" y="38"/>
			<point x="186" y="38" type="curve" smooth="yes"/>
			<point x="144" y="38"/>
			<point x="112" y="61"/>
			<point x="112" y="118" type="curve" smooth="yes"/>
			<point x="112" y="151"/>
			<point x="122" y="191"/>
			<point x="204" y="227" type="curve" smooth="yes"/>
			<point x="223" y="235"/>
			<point x="263" y="248"/>
			<point x="330" y="267" type="curve"/>
			<point x="330" y="284" type="line"/>
			<point x="261" y="267"/>
			<point x="214" y="254"/>
			<point x="185" y="244" type="curve" smooth="yes"/>
			<point x="63" y="203"/>
			<point x="39" y="156"/>
			<point x="39" y="100" type="curve" smooth="yes"/>
			<point x="39" y="27"/>
			<point x="90" y="-12"/>
		</contour>
		<contour>
			<point x="480" y="-12" type="curve" smooth="yes"/>
			<point x="549" y="-12"/>
			<point x="609" y="19"/>
			<point x="644" y="96" type="curve"/>
			<point x="630" y="104" type="line"/>
			<point x="599" y="62"/>
			<point x="557" y="38"/>
			<point x="501" y="38" type="curve" smooth="yes"/>
			<point x="420" y="38"/>
			<point x="363" y="112"/>
			<point x="363" y="234" type="curve" smooth="yes"/>
			<point x="363" y="384"/>
			<point x="424" y="442"/>
			<point x="482" y="442" type="curve" smooth="yes"/>
			<point x="536" y="442"/>
			<point x="578" y="393"/>
			<point x="578" y="318" type="curve" smooth="yes"/>
			<point x="578" y="283"/>
			<point x="566" y="268"/>
			<point x="528" y="268" type="curve" smooth="yes"/>
			<point x="318" y="268" type="line"/>
			<point x="318" y="246" type="line"/>
			<point x="637" y="246" type="line"/>
			<point x="641" y="258"/>
			<point x="643" y="274"/>
			<point x="643" y="296" type="curve" smooth="yes"/>
			<point x="643" y="400"/>
			<point x="575" y="464"/>
			<point x="489" y="464" type="curve" smooth="yes"/>
			<point x="406" y="464"/>
			<point x="335" y="406"/>
			<point x="306" y="312" type="curve"/>
			<point x="356" y="310" type="line"/>
			<point x="354" y="418"/>
			<point x="316" y="464"/>
			<point x="226" y="464" type="curve" smooth="yes"/>
			<point x="139" y="464"/>
			<point x="70" y="421"/>
			<point x="56" y="356" type="curve"/>
			<point x="58" y="332"/>
			<point x="68" y="318"/>
			<point x="91" y="318" type="curve" smooth="yes"/>
			<point x="114" y="318"/>
			<point x="130" y="334"/>
			<point x="135" y="362" type="curve" smooth="yes"/>
			<point x="154" y="442" type="line"/>
			<point x="126" y="422" type="line"/>
			<point x="152" y="431"/>
			<point x="174" y="438"/>
			<point x="200" y="438" type="curve" smooth="yes"/>
			<point x="263" y="438"/>
			<point x="290" y="406"/>
			<point x="290" y="308" type="curve" smooth="yes"/>
			<point x="290" y="216" type="line" smooth="yes"/>
			<point x="290" y="74"/>
			<point x="376" y="-12"/>
		</contour>
	</outline>
	<anchor name="aboveLC" x="338" y="472"/>
	<anchor name="belowLC" x="317" y="-20"/>
</glyph>
<glyph name="alphalatin" format="2">
	<advance width="528"/>
	<outline>
		<contour>
			<point x="224" y="-12" type="curve" smooth="yes"/>
			<point x="292" y="-12"/>
			<point x="343" y="33"/>
			<point x="373" y="89" type="curve"/>
			<point x="386" y="89" type="line"/>
			<point x="380" y="118" type="line"/>
			<point x="343" y="64"/>
			<point x="302" y="26"/>
			<point x="249" y="26" type="curve" smooth="yes"/>
			<point x="173" y="26"/>
			<point x="117" y="86"/>
			<point x="117" y="220" type="curve" smooth="yes"/>
			<point x="117" y="358"/>
			<point x="177" y="425"/>
			<point x="249" y="425" type="curve" smooth="yes"/>
			<point x="303" y="425"/>
			<point x="335" y="405"/>
			<point x="384" y="347" type="curve"/>
			<point x="391" y="372" type="line"/>
			<point x="377" y="372" type="line"/>
			<point x="340" y="439"/>
			<point x="291" y="464"/>
			<point x="236" y="464" type="curve" smooth="yes"/>
			<point x="132" y="464"/>
			<point x="44" y="374"/>
			<point x="44" y="216" type="curve" smooth="yes"/>
			<point x="44" y="64"/>
			<point x="126" y="-12"/>
		</contour>
		<contour>
			<point x="364" y="88" type="line"/>
			<point x="364" y="76" type="line"/>
			<point x="364" y="21"/>
			<point x="390" y="-8"/>
			<point x="442" y="-8" type="curve" smooth="yes"/>
			<point x="481" y="-8"/>
			<point x="504" y="11"/>
			<point x="518" y="43" type="curve"/>
			<point x="508" y="52" type="line"/>
			<point x="491" y="33"/>
			<point x="481" y="26"/>
			<point x="464" y="26" type="curve" smooth="yes"/>
			<point x="446" y="26"/>
			<point x="434" y="35"/>
			<point x="434" y="76" type="curve" smooth="yes"/>
			<point x="434" y="257" type="line"/>
			<point x="438" y="456" type="line"/>
			<point x="427" y="461" type="line"/>
			<point x="364" y="384" type="line"/>
			<point x="364" y="379" type="line"/>
		</contour>
	</outline>
	<anchor name="aboveLC" x="255" y="472"/>
	<anchor name="belowLC" x="254" y="-20"/>
</glyph>
<glyph name="ampersand" format="2">
	<advance width="676"/>
	<outline>
		<contour>
			<point x="224" y="-12" type="curve" smooth="yes"/>
			<point x="334" y="-12"/>
			<point x="395" y="52"/>
			<point x="434" y="114" type="curve"/>
			<point x="425" y="117" type="line"/>
			<point x="412" y="122" type="line"/>
			<point x="378" y="65"/>
			<point x="316" y="41"/>
			<point x="250" y="41" type="curve" smooth="yes"/>
			<point x="153" y="41"/>
			<point x="100" y="117"/>
			<point x="100" y="196" type="curve" smooth="yes"/>
			<point x="100" y="251"/>
			<point x="129" y="325"/>
			<point x="212" y="367" type="curve"/>
			<point x="204" y="373" type="line"/>
			<point x="196" y="378" type="line"/>
			<point x="88" y="327"/>
			<point x="24" y="264"/>
			<point x="24" y="166" type="curve" smooth="yes"/>
			<point x="24" y="66"/>
			<point x="104" y="-12"/>
		</contour>
		<contour>
			<point x="436" y="106" type="line"/>
			<point x="492" y="188"/>
			<point x="532" y="286"/>
			<point x="554" y="400" type="curve"/>
			<point x="524" y="400" type="line"/>
			<point x="503" y="293"/>
			<point x="473" y="205"/>
			<point x="422" y="126" type="curve"/>
			<point x="418" y="126" type="line"/>
		</contour>
		<contour>
			<point x="528" y="393" type="line"/>
			<point x="549" y="393" type="line"/>
			<point x="630" y="405" type="line"/>
			<point x="630" y="420" type="line"/>
			<point x="440" y="420" type="line"/>
			<point x="440" y="405" type="line"/>
		</contour>
		<contour>
			<point x="556" y="-12" type="curve" smooth="yes"/>
			<point x="581" y="-12"/>
			<point x="605" y="-8"/>
			<point x="634" y="0" type="curve"/>
			<point x="634" y="14" type="line"/>
			<point x="512" y="30" type="line"/>
			<point x="575" y="8" type="line"/>
			<point x="478" y="120"/>
			<point x="406" y="202"/>
			<point x="332" y="288" type="curve" smooth="yes"/>
			<point x="272" y="359"/>
			<point x="243" y="391"/>
			<point x="208" y="438" type="curve" smooth="yes"/>
			<point x="173" y="483"/>
			<point x="165" y="523"/>
			<point x="165" y="559" type="curve" smooth="yes"/>
			<point x="165" y="621"/>
			<point x="204" y="663"/>
			<point x="250" y="663" type="curve" smooth="yes"/>
			<point x="301" y="663"/>
			<point x="336" y="624"/>
			<point x="336" y="559" type="curve" smooth="yes"/>
			<point x="336" y="489"/>
			<point x="288" y="432"/>
			<point x="221" y="388" type="curve"/>
			<point x="227" y="382" type="line"/>
			<point x="233" y="376" type="line"/>
			<point x="345" y="435"/>
			<point x="396" y="483"/>
			<point x="396" y="557" type="curve" smooth="yes"/>
			<point x="396" y="632"/>
			<point x="348" y="685"/>
			<point x="254" y="685" type="curve" smooth="yes"/>
			<point x="165" y="685"/>
			<point x="100" y="620"/>
			<point x="100" y="540" type="curve" smooth="yes"/>
			<point x="100" y="488"/>
			<point x="117" y="439"/>
			<point x="164" y="382" type="curve" smooth="yes"/>
			<point x="206" y="330"/>
			<point x="243" y="288"/>
			<point x="298" y="218" type="curve" smooth="yes"/>
			<point x="346" y="160"/>
			<point x="394" y="103"/>
			<point x="454" y="32" type="curve" smooth="yes"/>
			<point x="486" y="-2"/>
			<point x="506" y="-12"/>
		</contour>
	</outline>
</glyph>
<glyph name="aogonek" format="2">
	<advance width="455"/>
	<outline>
		<contour>
			<point x="156" y="-12" type="curve" smooth="yes"/>
			<point x="208" y="-12"/>
			<point x="255" y="11"/>
			<point x="297" y="68" type="curve"/>
			<point x="327" y="68" type="line"/>
			<point x="319" y="106" type="line"/>
			<point x="259" y="47"/>
			<point x="230" y="38"/>
			<point x="186" y="38" type="curve" smooth="yes"/>
			<point x="144" y="38"/>
			<point x="112" y="61"/>
			<point x="112" y="118" type="curve" smooth="yes"/>
			<point x="112" y="151"/>
			<point x="122" y="191"/>
			<point x="204" y="227" type="curve" smooth="yes"/>
			<point x="223" y="235"/>
			<point x="263" y="248"/>
			<point x="330" y="267" type="curve"/>
			<point x="330" y="284" type="line"/>
			<point x="261" y="267"/>
			<point x="214" y="254"/>
			<point x="185" y="244" type="curve" smooth="yes"/>
			<point x="63" y="203"/>
			<point x="39" y="156"/>
			<point x="39" y="100" type="curve" smooth="yes"/>
			<point x="39" y="27"/>
			<point x="90" y="-12"/>
		</contour>
		<contour>
			<point x="353" y="-230" type="curve" smooth="yes"/>
			<point x="390" y="-230"/>
			<point x="418" y="-216"/>
			<point x="445" y="-185" type="curve"/>
			<point x="439" y="-173" type="line"/>
			<point x="418" y="-182"/>
			<point x="397" y="-185"/>
			<point x="380" y="-185" type="curve" smooth="yes"/>
			<point x="344" y="-185"/>
			<point x="322" y="-164"/>
			<point x="322" y="-121" type="curve" smooth="yes"/>
			<point x="322" y="-75"/>
			<point x="377" y="-25"/>
			<point x="414" y="4" type="curve" smooth="yes"/>
			<point x="430" y="16"/>
			<point x="439" y="30"/>
			<point x="446" y="47" type="curve"/>
			<point x="435" y="55" type="line"/>
			<point x="419" y="36"/>
			<point x="409" y="30"/>
			<point x="392" y="30" type="curve" smooth="yes"/>
			<point x="373" y="30"/>
			<point x="361" y="41"/>
			<point x="361" y="83" type="curve" smooth="yes"/>
			<point x="361" y="306" type="line" smooth="yes"/>
			<point x="361" y="416"/>
			<point x="318" y="464"/>
			<point x="226" y="464" type="curve" smooth="yes"/>
			<point x="139" y="464"/>
			<point x="70" y="421"/>
			<point x="56" y="356" type="curve"/>
			<point x="58" y="332"/>
			<point x="68" y="318"/>
			<point x="91" y="318" type="curve" smooth="yes"/>
			<point x="114" y="318"/>
			<point x="130" y="334"/>
			<point x="135" y="362" type="curve" smooth="yes"/>
			<point x="156" y="446" type="line"/>
			<point x="123" y="422" type="line"/>
			<point x="168" y="435"/>
			<point x="183" y="438"/>
			<point x="200" y="438" type="curve" smooth="yes"/>
			<point x="263" y="438"/>
			<point x="290" y="406"/>
			<point x="290" y="308" type="curve" smooth="yes"/>
			<point x="290" y="77" type="line"/>
			<point x="290" y="75" type="line" smooth="yes"/>
			<point x="292" y="21"/>
			<point x="318" y="-8"/>
			<point x="369" y="-8" type="curve" smooth="yes"/>
			<point x="375" y="-8"/>
			<point x="383" y="-6"/>
			<point x="392" y="-4" type="curve"/>
			<point x="399" y="7" type="line"/>
			<point x="320" y="-37"/>
			<point x="268" y="-86"/>
			<point x="268" y="-144" type="curve" smooth="yes"/>
			<point x="268" y="-195"/>
			<point x="301" y="-230"/>
		</contour>
	</outline>
	<anchor name="aboveLC" x="220" y="472"/>
</glyph>
<glyph name="b" format="2">
	<advance width="542"/>
	<outline>
		<contour>
			<point x="36" y="0" type="line"/>
			<point x="178" y="-10" type="line"/>
			<point x="178" y="73" type="line"/>
			<point x="178" y="75" type="line"/>
			<point x="178" y="367" type="line"/>
			<point x="178" y="370" type="line"/>
			<point x="178" y="539" type="line"/>
			<point x="182" y="735" type="line"/>
			<point x="173" y="743" type="line"/>
			<point x="32" y="707" type="line"/>
			<point x="32" y="693" type="line"/>
			<point x="108" y="676" type="line"/>
			<point x="108" y="212" type="line" smooth="yes"/>
			<point x="108" y="161"/>
			<point x="107" y="84"/>
			<point x="105" y="25" type="curve"/>
			<point x="36" y="16" type="line"/>
		</contour>
		<contour>
			<point x="308" y="-12" type="curve" smooth="yes"/>
			<point x="413" y="-12"/>
			<point x="498" y="78"/>
			<point x="498" y="236" type="curve" smooth="yes"/>
			<point x="498" y="388"/>
			<point x="416" y="464"/>
			<point x="317" y="464" type="curve" smooth="yes"/>
			<point x="249" y="464"/>
			<point x="198" y="420"/>
			<point x="168" y="363" type="curve"/>
			<point x="156" y="363" type="line"/>
			<point x="162" y="334" type="line"/>
			<point x="197" y="390"/>
			<point x="240" y="426"/>
			<point x="293" y="426" type="curve" smooth="yes"/>
			<point x="369" y="426"/>
			<point x="424" y="366"/>
			<point x="424" y="232" type="curve" smooth="yes"/>
			<point x="424" y="95"/>
			<point x="369" y="27"/>
			<point x="297" y="27" type="curve" smooth="yes"/>
			<point x="241" y="27"/>
			<point x="206" y="47"/>
			<point x="158" y="105" type="curve"/>
			<point x="151" y="80" type="line"/>
			<point x="165" y="80" type="line"/>
			<point x="201" y="13"/>
			<point x="254" y="-12"/>
		</contour>
	</outline>
	<anchor name="aboveLC" x="147" y="743"/>
	<anchor name="belowLC" x="272" y="-20"/>
</glyph>
<glyph name="c" format="2">
	<advance width="430"/>
	<outline>
		<contour>
			<point x="246" y="-12" type="curve" smooth="yes"/>
			<point x="320" y="-12"/>
			<point x="377" y="24"/>
			<point x="412" y="100" type="curve"/>
			<point x="398" y="108" type="line"/>
			<point x="366" y="65"/>
			<point x="325" y="38"/>
			<point x="266" y="38" type="curve" smooth="yes"/>
			<point x="161" y="38"/>
			<point x="113" y="130"/>
			<point x="113" y="237" type="curve" smooth="yes"/>
			<point x="113" y="349"/>
			<point x="163" y="442"/>
			<point x="258" y="442" type="curve" smooth="yes"/>
			<point x="278" y="442"/>
			<point x="307" y="440"/>
			<point x="329" y="416" type="curve"/>
			<point x="304" y="442" type="line"/>
			<point x="322" y="362" type="line" smooth="yes"/>
			<point x="328" y="334"/>
			<point x="344" y="318"/>
			<point x="366" y="318" type="curve" smooth="yes"/>
			<point x="388" y="318"/>
			<point x="402" y="330"/>
			<point x="404" y="354" type="curve"/>
			<point x="392" y="418"/>
			<point x="338" y="464"/>
			<point x="257" y="464" type="curve" smooth="yes"/>
			<point x="146" y="464"/>
			<point x="40" y="380"/>
			<point x="40" y="220" type="curve" smooth="yes"/>
			<point x="40" y="72"/>
			<point x="124" y="-12"/>
		</contour>
	</outline>
	<anchor name="aboveLC" x="247" y="472"/>
	<anchor name="baseLC" x="244" y="0"/>
	<anchor name="belowLC" x="244" y="-20"/>
</glyph>
<glyph name="comma" format="2">
	<advance width="258"/>
	<outline>
		<contour>
			<point x="70" y="-143" type="line"/>
			<point x="132" y="-114"/>
			<point x="183" y="-58"/>
			<point x="183" y="26" type="curve" smooth="yes"/>
			<point x="183" y="44"/>
			<point x="180" y="64"/>
			<point x="175" y="84" type="curve"/>
			<point x="155" y="101"/>
			<point x="142" y="103"/>
			<point x="127" y="103" type="curve" smooth="yes"/>
			<point x="96" y="103"/>
			<point x="74" y="81"/>
			<point x="74" y="50" type="curve" smooth="yes"/>
			<point x="74" y="32"/>
			<point x="83" y="14"/>
			<point x="106" y="1" type="curve" smooth="yes"/>
			<point x="151" y="-27" type="line"/>
			<point x="151" y="-4" type="line"/>
			<point x="128" y="-69"/>
			<point x="110" y="-93"/>
			<point x="59" y="-126" type="curve"/>
		</contour>
	</outline>
</glyph>
<glyph name="dcroat" format="2">
	<advance width="530"/>
	<outline>
		<contour>
			<point x="170" y="555" type="line"/>
			<point x="502" y="555" type="line"/>
			<point x="502" y="577" type="line"/>
			<point x="170" y="577" type="line"/>
		</contour>
		<contour>
			<point x="117" y="212" type="curve" smooth="yes"/>
			<point x="117" y="342"/>
			<point x="177" y="409"/>
			<point x="249" y="409" type="curve" smooth="yes"/>
			<point x="303" y="409"/>
			<point x="335" y="389"/>
			<point x="384" y="331" type="curve"/>
			<point x="391" y="356" type="line"/>
			<point x="377" y="356" type="line"/>
			<point x="340" y="423"/>
			<point x="291" y="448"/>
			<point x="236" y="448" type="curve" smooth="yes"/>
			<point x="132" y="448"/>
			<point x="44" y="358"/>
			<point x="44" y="208" type="curve" smooth="yes"/>
			<point x="44" y="64"/>
			<point x="126" y="-12"/>
			<point x="224" y="-12" type="curve" smooth="yes"/>
			<point x="292" y="-12"/>
			<point x="343" y="33"/>
			<point x="373" y="89" type="curve"/>
			<point x="386" y="89" type="line"/>
			<point x="380" y="118" type="line"/>
			<point x="343" y="64"/>
			<point x="302" y="26"/>
			<point x="249" y="26" type="curve" smooth="yes"/>
			<point x="173" y="26"/>
			<point x="117" y="86"/>
		</contour>
		<contour>
			<point x="502" y="0" type="line"/>
			<point x="502" y="16" type="line"/>
			<point x="434" y="26" type="line"/>
			<point x="434" y="539" type="line"/>
			<point x="438" y="735" type="line"/>
			<point x="429" y="743" type="line"/>
			<point x="290" y="707" type="line"/>
			<point x="290" y="693" type="line"/>
			<point x="364" y="676" type="line"/>
			<point x="364" y="366" type="line"/>
			<point x="364" y="362" type="line"/>
			<point x="364" y="85" type="line"/>
			<point x="364" y="79" type="line"/>
			<point x="364" y="-10" type="line"/>
		</contour>
	</outline>
</glyph>
<glyph name="dotlessj" format="2">
	<advance width="262"/>
	<outline>
		<contour>
			<point x="24" y="-258" type="curve" smooth="yes"/>
			<point x="64" y="-258"/>
			<point x="96" y="-244"/>
			<point x="125" y="-213" type="curve" smooth="yes"/>
			<point x="167" y="-167"/>
			<point x="177" y="-102"/>
			<point x="177" y="35" type="curve" smooth="yes"/>
			<point x="177" y="330" type="line"/>
			<point x="181" y="456" type="line"/>
			<point x="173" y="464" type="line"/>
			<point x="31" y="420" type="line"/>
			<point x="31" y="406" type="line"/>
			<point x="105" y="389" type="line"/>
			<point x="107" y="348"/>
			<point x="108" y="315"/>
			<point x="108" y="257" type="curve" smooth="yes"/>
			<point x="108" y="38" type="line" smooth="yes"/>
			<point x="108" y="-87"/>
			<point x="111" y="-164"/>
			<point x="88" y="-213" type="curve" smooth="yes"/>
			<point x="81" y="-227"/>
			<point x="76" y="-232"/>
			<point x="67" y="-235" type="curve"/>
			<point x="67" y="-241" type="line"/>
			<point x="85" y="-241" type="line"/>
			<point x="85" y="-235" type="line"/>
			<point x="53" y="-205" type="line" smooth="yes"/>
			<point x="36" y="-187"/>
			<point x="17" y="-180"/>
			<point x="-5" y="-180" type="curve" smooth="yes"/>
			<point x="-32" y="-180"/>
			<point x="-53" y="-192"/>
			<point x="-55" y="-216" type="curve"/>
			<point x="-46" y="-243"/>
			<point x="-17" y="-258"/>
		</contour>
	</outline>
	<anchor name="aboveLC" x="144" y="472"/>
	<anchor name="belowLC" x="79" y="-268"/>
</glyph>
<glyph name="e" format="2">
	<advance width="458"/>
	<outline>
		<contour>
			<point x="247" y="-12" type="curve" smooth="yes"/>
			<point x="319" y="-12"/>
			<point x="381" y="23"/>
			<point x="416" y="100" type="curve"/>
			<point x="402" y="108" type="line"/>
			<point x="370" y="66"/>
			<point x="327" y="38"/>
			<point x="268" y="38" type="curve" smooth="yes"/>
			<point x="180" y="38"/>
			<point x="115" y="112"/>
			<point x="115" y="234" type="curve" smooth="yes"/>
			<point x="115" y="384"/>
			<point x="180" y="442"/>
			<point x="244" y="442" type="curve" smooth="yes"/>
			<point x="306" y="442"/>
			<point x="346" y="393"/>
			<point x="346" y="318" type="curve" smooth="yes"/>
			<point x="346" y="283"/>
			<point x="333" y="268"/>
			<point x="295" y="268" type="curve" smooth="yes"/>
			<point x="70" y="268" type="line"/>
			<point x="70" y="246" type="line"/>
			<point x="404" y="246" type="line"/>
			<point x="408" y="258"/>
			<point x="410" y="274"/>
			<point x="410" y="296" type="curve" smooth="yes"/>
			<point x="410" y="400"/>
			<point x="337" y="464"/>
			<point x="244" y="464" type="curve" smooth="yes"/>
			<point x="136" y="464"/>
			<point x="43" y="366"/>
			<point x="43" y="216" type="curve" smooth="yes"/>
			<point x="43" y="74"/>
			<point x="132" y="-12"/>
		</contour>
	</outline>
	<anchor name="aboveLC" x="245" y="472"/>
	<anchor name="belowLC" x="246" y="-20"/>
	<anchor name="ogonek" x="294" y="0"/>
</glyph>
<glyph name="eight.cap" format="2">
	<advance width="482"/>
	<outline>
		<contour>
			<point x="241" y="-12" type="curve" smooth="yes"/>
			<point x="351" y="-12"/>
			<point x="438" y="70"/>
			<point x="438" y="170" type="curve" smooth="yes"/>
			<point x="438" y="273"/>
			<point x="357" y="322"/>
			<point x="279" y="370" type="curve" smooth="yes"/>
			<point x="206" y="413"/>
			<point x="136" y="456"/>
			<point x="136" y="533" type="curve" smooth="yes"/>
			<point x="136" y="613"/>
			<point x="183" y="664"/>
			<point x="245" y="664" type="curve" smooth="yes"/>
			<point x="313" y="664"/>
			<point x="347" y="604"/>
			<point x="347" y="529" type="curve" smooth="yes"/>
			<point x="347" y="467"/>
			<point x="318" y="405"/>
			<point x="240" y="350" type="curve"/>
			<point x="267" y="344" type="line"/>
			<point x="267" y="354" type="line"/>
			<point x="373" y="399"/>
			<point x="417" y="476"/>
			<point x="417" y="533" type="curve" smooth="yes"/>
			<point x="417" y="628"/>
			<point x="347" y="685"/>
			<point x="246" y="685" type="curve" smooth="yes"/>
			<point x="146" y="685"/>
			<point x="63" y="618"/>
			<point x="63" y="515" type="curve" smooth="yes"/>
			<point x="63" y="421"/>
			<point x="129" y="369"/>
			<point x="200" y="326" type="curve" smooth="yes"/>
			<point x="279" y="279"/>
			<point x="362" y="240"/>
			<point x="362" y="156" type="curve" smooth="yes"/>
			<point x="362" y="72"/>
			<point x="311" y="9"/>
			<point x="241" y="9" type="curve" smooth="yes"/>
			<point x="174" y="9"/>
			<point x="117" y="74"/>
			<point x="117" y="156" type="curve" smooth="yes"/>
			<point x="117" y="234"/>
			<point x="160" y="291"/>
			<point x="235" y="337" type="curve"/>
			<point x="205" y="346" type="line"/>
			<point x="205" y="338" type="line"/>
			<point x="106" y="289"/>
			<point x="43" y="229"/>
			<point x="43" y="150" type="curve" smooth="yes"/>
			<point x="43" y="47"/>
			<point x="125" y="-12"/>
		</contour>
	</outline>
</glyph>
<glyph name="eight.lf" format="2">
	<advance width="482"/>
	<outline>
		<contour>
			<point x="241" y="-12" type="curve" smooth="yes"/>
			<point x="351" y="-12"/>
			<point x="437" y="64"/>
			<point x="437" y="164" type="curve" smooth="yes"/>
			<point x="437" y="267"/>
			<point x="357" y="313"/>
			<point x="279" y="357" type="curve" smooth="yes"/>
			<point x="206" y="397"/>
			<point x="136" y="434"/>
			<point x="136" y="512" type="curve" smooth="yes"/>
			<point x="136" y="592"/>
			<point x="183" y="637"/>
			<point x="245" y="637" type="curve" smooth="yes"/>
			<point x="313" y="637"/>
			<point x="347" y="583"/>
			<point x="347" y="508" type="curve" smooth="yes"/>
			<point x="347" y="446"/>
			<point x="318" y="393"/>
			<point x="240" y="338" type="curve"/>
			<point x="267" y="330" type="line"/>
			<point x="267" y="342" type="line"/>
			<point x="373" y="386"/>
			<point x="417" y="455"/>
			<point x="417" y="512" type="curve" smooth="yes"/>
			<point x="417" y="607"/>
			<point x="347" y="658"/>
			<point x="246" y="658" type="curve" smooth="yes"/>
			<point x="146" y="658"/>
			<point x="63" y="597"/>
			<point x="63" y="494" type="curve" smooth="yes"/>
			<point x="63" y="400"/>
			<point x="130" y="353"/>
			<point x="202" y="314" type="curve" smooth="yes"/>
			<point x="279" y="270"/>
			<point x="362" y="234"/>
			<point x="362" y="150" type="curve" smooth="yes"/>
			<point x="362" y="66"/>
			<point x="311" y="9"/>
			<point x="241" y="9" type="curve" smooth="yes"/>
			<point x="174" y="9"/>
			<point x="117" y="68"/>
			<point x="117" y="150" type="curve" smooth="yes"/>
			<point x="117" y="227"/>
			<point x="160" y="279"/>
			<point x="235" y="325" type="curve"/>
			<point x="205" y="333" type="line"/>
			<point x="205" y="325" type="line"/>
			<point x="105" y="277"/>
			<point x="43" y="223"/>
			<point x="43" y="143" type="curve" smooth="yes"/>
			<point x="43" y="40"/>
			<point x="125" y="-12"/>
		</contour>
	</outline>
</glyph>
<glyph name="eng" format="2">
	<advance width="542"/>
	<outline>
		<contour>
			<point x="35" y="0" type="line"/>
			<point x="246" y="0" type="line"/>
			<point x="246" y="16" type="line"/>
			<point x="151" y="28" type="line"/>
			<point x="130" y="28" type="line"/>
			<point x="35" y="16" type="line"/>
		</contour>
		<contour>
			<point x="104" y="0" type="curve"/>
			<point x="182" y="0" type="line"/>
			<point x="178" y="46"/>
			<point x="177" y="148"/>
			<point x="177" y="212" type="curve" smooth="yes"/>
			<point x="177" y="356" type="line"/>
			<point x="177" y="359" type="line"/>
			<point x="177" y="456" type="line"/>
			<point x="169" y="464" type="line"/>
			<point x="31" y="420" type="line"/>
			<point x="31" y="406" type="line"/>
			<point x="105" y="389" type="line"/>
			<point x="107" y="348"/>
			<point x="108" y="314"/>
			<point x="108" y="257" type="curve" smooth="yes"/>
			<point x="108" y="212" type="line" smooth="yes"/>
			<point x="108" y="148"/>
			<point x="107" y="46"/>
		</contour>
		<contour>
			<point x="310" y="-258" type="curve" smooth="yes"/>
			<point x="350" y="-258"/>
			<point x="382" y="-244"/>
			<point x="410" y="-213" type="curve" smooth="yes"/>
			<point x="452" y="-167"/>
			<point x="463" y="-102"/>
			<point x="463" y="35" type="curve" smooth="yes"/>
			<point x="463" y="306" type="line" smooth="yes"/>
			<point x="463" y="422"/>
			<point x="422" y="464"/>
			<point x="346" y="464" type="curve" smooth="yes"/>
			<point x="273" y="464"/>
			<point x="207" y="409"/>
			<point x="166" y="356" type="curve"/>
			<point x="162" y="356" type="line"/>
			<point x="170" y="342" type="line"/>
			<point x="220" y="387"/>
			<point x="264" y="414"/>
			<point x="313" y="414" type="curve" smooth="yes"/>
			<point x="370" y="414"/>
			<point x="393" y="391"/>
			<point x="393" y="305" type="curve" smooth="yes"/>
			<point x="393" y="38" type="line" smooth="yes"/>
			<point x="393" y="-87"/>
			<point x="397" y="-164"/>
			<point x="376" y="-209" type="curve" smooth="yes"/>
			<point x="367" y="-227"/>
			<point x="360" y="-234"/>
			<point x="349" y="-236" type="curve"/>
			<point x="349" y="-241" type="line"/>
			<point x="372" y="-241" type="line"/>
			<point x="372" y="-236" type="line"/>
			<point x="339" y="-205" type="line" smooth="yes"/>
			<point x="321" y="-188"/>
			<point x="303" y="-180"/>
			<point x="280" y="-180" type="curve" smooth="yes"/>
			<point x="253" y="-180"/>
			<point x="233" y="-192"/>
			<point x="231" y="-216" type="curve"/>
			<point x="240" y="-243"/>
			<point x="269" y="-258"/>
		</contour>
	</outline>
</glyph>
<glyph name="eogonek" format="2">
	<advance width="458"/>
	<outline>
		<contour>
			<point x="277" y="-230" type="curve" smooth="yes"/>
			<point x="314" y="-230"/>
			<point x="342" y="-216"/>
			<point x="369" y="-185" type="curve"/>
			<point x="363" y="-173" type="line"/>
			<point x="342" y="-182"/>
			<point x="322" y="-185"/>
			<point x="304" y="-185" type="curve" smooth="yes"/>
			<point x="268" y="-185"/>
			<point x="246" y="-163"/>
			<point x="246" y="-118" type="curve" smooth="yes"/>
			<point x="246" y="-65"/>
			<point x="295" y="-16"/>
			<point x="335" y="8" type="curve" smooth="yes"/>
			<point x="368" y="28"/>
			<point x="396" y="56"/>
			<point x="416" y="100" type="curve"/>
			<point x="402" y="108" type="line"/>
			<point x="370" y="66"/>
			<point x="327" y="38"/>
			<point x="268" y="38" type="curve" smooth="yes"/>
			<point x="180" y="38"/>
			<point x="115" y="112"/>
			<point x="115" y="234" type="curve" smooth="yes"/>
			<point x="115" y="384"/>
			<point x="180" y="442"/>
			<point x="244" y="442" type="curve" smooth="yes"/>
			<point x="306" y="442"/>
			<point x="346" y="393"/>
			<point x="346" y="318" type="curve" smooth="yes"/>
			<point x="346" y="283"/>
			<point x="333" y="268"/>
			<point x="295" y="268" type="curve" smooth="yes"/>
			<point x="70" y="268" type="line"/>
			<point x="70" y="246" type="line"/>
			<point x="404" y="246" type="line"/>
			<point x="408" y="258"/>
			<point x="410" y="274"/>
			<point x="410" y="296" type="curve" smooth="yes"/>
			<point x="410" y="400"/>
			<point x="337" y="464"/>
			<point x="244" y="464" type="curve" smooth="yes"/>
			<point x="136" y="464"/>
			<point x="43" y="366"/>
			<point x="43" y="216" type="curve" smooth="yes"/>
			<point x="43" y="74"/>
			<point x="132" y="-12"/>
			<point x="247" y="-12" type="curve" smooth="yes"/>
			<point x="265" y="-12"/>
			<point x="284" y="-9"/>
			<point x="301" y="-5" type="curve"/>
			<point x="318" y="9" type="line"/>
			<point x="264" y="-16"/>
			<point x="192" y="-67"/>
			<point x="192" y="-144" type="curve" smooth="yes"/>
			<point x="192" y="-195"/>
			<point x="226" y="-230"/>
		</contour>
	</outline>
	<anchor name="aboveLC" x="245" y="472"/>
</glyph>
<glyph name="eth" format="2">
	<advance width="502"/>
	<outline>
		<contour>
			<point x="252" y="-12" type="curve" smooth="yes"/>
			<point x="387" y="-12"/>
			<point x="459" y="100"/>
			<point x="459" y="280" type="curve" smooth="yes"/>
			<point x="459" y="513"/>
			<point x="340" y="667"/>
			<point x="162" y="753" type="curve"/>
			<point x="150" y="737" type="line"/>
			<point x="291" y="643"/>
			<point x="354" y="548"/>
			<point x="390" y="378" type="curve"/>
			<point x="396" y="370" type="line"/>
			<point x="373" y="433"/>
			<point x="321" y="464"/>
			<point x="252" y="464" type="curve" smooth="yes"/>
			<point x="141" y="464"/>
			<point x="44" y="380"/>
			<point x="44" y="224" type="curve" smooth="yes"/>
			<point x="44" y="69"/>
			<point x="140" y="-12"/>
		</contour>
		<contour>
			<point x="252" y="9" type="curve" smooth="yes"/>
			<point x="170" y="9"/>
			<point x="119" y="84"/>
			<point x="119" y="224" type="curve" smooth="yes"/>
			<point x="119" y="365"/>
			<point x="170" y="443"/>
			<point x="252" y="443" type="curve" smooth="yes"/>
			<point x="332" y="443"/>
			<point x="383" y="368"/>
			<point x="383" y="228" type="curve" smooth="yes"/>
			<point x="383" y="87"/>
			<point x="332" y="9"/>
		</contour>
		<contour>
			<point x="148" y="537" type="line"/>
			<point x="462" y="707" type="line"/>
			<point x="452" y="728" type="line"/>
			<point x="138" y="556" type="line"/>
		</contour>
	</outline>
</glyph>
<glyph name="exclam" format="2">
	<advance width="268"/>
	<outline>
		<contour>
			<point x="134" y="-7" type="curve" smooth="yes"/>
			<point x="163" y="-7"/>
			<point x="189" y="14"/>
			<point x="189" y="48" type="curve" smooth="yes"/>
			<point x="189" y="80"/>
			<point x="163" y="103"/>
			<point x="134" y="103" type="curve" smooth="yes"/>
			<point x="103" y="103"/>
			<point x="79" y="80"/>
			<point x="79" y="48" type="curve" smooth="yes"/>
			<point x="79" y="14"/>
			<point x="103" y="-7"/>
		</contour>
		<contour>
			<point x="134" y="685" type="curve" smooth="yes"/>
			<point x="102" y="685"/>
			<point x="84" y="668"/>
			<point x="84" y="623" type="curve" smooth="yes"/>
			<point x="84" y="586"/>
			<point x="97" y="490"/>
			<point x="109" y="350" type="curve" smooth="yes"/>
			<point x="122" y="214" type="line"/>
			<point x="144" y="214" type="line"/>
			<point x="158" y="350" type="line" smooth="yes"/>
			<point x="171" y="490"/>
			<point x="184" y="586"/>
			<point x="184" y="623" type="curve" smooth="yes"/>
			<point x="184" y="668"/>
			<point x="166" y="685"/>
		</contour>
	</outline>
</glyph>
<glyph name="f" format="2">
	<advance width="319"/>
	<outline>
		<contour>
			<point x="35" y="0" type="line"/>
			<point x="270" y="0" type="line"/>
			<point x="270" y="16" type="line"/>
			<point x="159" y="28" type="line"/>
			<point x="130" y="28" type="line"/>
			<point x="35" y="16" type="line"/>
		</contour>
		<contour>
			<point x="104" y="0" type="curve"/>
			<point x="182" y="0" type="line"/>
			<point x="178" y="46"/>
			<point x="177" y="148"/>
			<point x="177" y="212" type="curve" smooth="yes"/>
			<point x="177" y="444" type="line"/>
			<point x="172" y="569"/>
			<point x="192" y="645"/>
			<point x="221" y="691" type="curve" smooth="yes"/>
			<point x="245" y="727"/>
			<point x="270" y="733"/>
			<point x="292" y="734" type="curve"/>
			<point x="292" y="738" type="line"/>
			<point x="245" y="738" type="line"/>
			<point x="245" y="734" type="line"/>
			<point x="281" y="704" type="line" smooth="yes"/>
			<point x="307" y="681"/>
			<point x="324" y="673"/>
			<point x="347" y="673" type="curve" smooth="yes"/>
			<point x="374" y="673"/>
			<point x="394" y="687"/>
			<point x="396" y="709" type="curve"/>
			<point x="387" y="738"/>
			<point x="349" y="753"/>
			<point x="314" y="753" type="curve" smooth="yes"/>
			<point x="273" y="753"/>
			<point x="231" y="739"/>
			<point x="199" y="709" type="curve" smooth="yes"/>
			<point x="145" y="657"/>
			<point x="114" y="587"/>
			<point x="109" y="455" type="curve"/>
			<point x="108" y="430" type="line"/>
			<point x="128" y="460" type="line"/>
			<point x="31" y="444" type="line"/>
			<point x="31" y="428" type="line"/>
			<point x="108" y="428" type="line"/>
			<point x="108" y="212" type="line" smooth="yes"/>
			<point x="108" y="148"/>
			<point x="107" y="46"/>
		</contour>
		<contour>
			<point x="139" y="428" type="line"/>
			<point x="300" y="428" type="line"/>
			<point x="300" y="452" type="line"/>
			<point x="139" y="452" type="line"/>
		</contour>
	</outline>
	<anchor name="aboveLC" x="282" y="743"/>
	<anchor name="belowLC" x="147" y="-20"/>
</glyph>
<glyph name="f_j" format="2">
	<advance width="547"/>
	<outline>
		<contour>
			<point x="36" y="0" type="line"/>
			<point x="248" y="0" type="line"/>
			<point x="248" y="16" type="line"/>
			<point x="154" y="28" type="line"/>
			<point x="128" y="28" type="line"/>
			<point x="36" y="16" type="line"/>
		</contour>
		<contour>
			<point x="104" y="0" type="curve"/>
			<point x="182" y="0" type="line"/>
			<point x="178" y="46"/>
			<point x="177" y="148"/>
			<point x="177" y="212" type="curve" smooth="yes"/>
			<point x="177" y="444" type="line"/>
			<point x="177" y="527"/>
			<point x="185" y="615"/>
			<point x="221" y="670" type="curve" smooth="yes"/>
			<point x="248" y="712"/>
			<point x="292" y="737"/>
			<point x="358" y="737" type="curve"/>
			<point x="358" y="742" type="line"/>
			<point x="314" y="742" type="line"/>
			<point x="314" y="737" type="line"/>
			<point x="343" y="708" type="line" smooth="yes"/>
			<point x="369" y="682"/>
			<point x="384" y="672"/>
			<point x="406" y="672" type="curve" smooth="yes"/>
			<point x="434" y="672"/>
			<point x="450" y="686"/>
			<point x="452" y="709" type="curve"/>
			<point x="443" y="738"/>
			<point x="405" y="753"/>
			<point x="355" y="753" type="curve" smooth="yes"/>
			<point x="284" y="753"/>
			<point x="233" y="728"/>
			<point x="193" y="685" type="curve" smooth="yes"/>
			<point x="136" y="622"/>
			<point x="111" y="522"/>
			<point x="108" y="430" type="curve"/>
			<point x="128" y="460" type="line"/>
			<point x="31" y="444" type="line"/>
			<point x="31" y="428" type="line"/>
			<point x="108" y="428" type="line"/>
			<point x="108" y="212" type="line" smooth="yes"/>
			<point x="108" y="148"/>
			<point x="107" y="46"/>
		</contour>
		<contour>
			<point x="309" y="-258" type="curve" smooth="yes"/>
			<point x="349" y="-258"/>
			<point x="381" y="-244"/>
			<point x="410" y="-213" type="curve" smooth="yes"/>
			<point x="452" y="-167"/>
			<point x="462" y="-102"/>
			<point x="462" y="35" type="curve" smooth="yes"/>
			<point x="462" y="330" type="line"/>
			<point x="466" y="456" type="line"/>
			<point x="458" y="464" type="line"/>
			<point x="420" y="452" type="line"/>
			<point x="139" y="452" type="line"/>
			<point x="139" y="428" type="line"/>
			<point x="390" y="428" type="line"/>
			<point x="392" y="387"/>
			<point x="393" y="354"/>
			<point x="393" y="297" type="curve" smooth="yes"/>
			<point x="393" y="38" type="line" smooth="yes"/>
			<point x="393" y="-87"/>
			<point x="396" y="-164"/>
			<point x="373" y="-213" type="curve" smooth="yes"/>
			<point x="366" y="-227"/>
			<point x="361" y="-232"/>
			<point x="352" y="-235" type="curve"/>
			<point x="352" y="-241" type="line"/>
			<point x="370" y="-241" type="line"/>
			<point x="370" y="-235" type="line"/>
			<point x="338" y="-205" type="line" smooth="yes"/>
			<point x="321" y="-187"/>
			<point x="302" y="-180"/>
			<point x="279" y="-180" type="curve" smooth="yes"/>
			<point x="253" y="-180"/>
			<point x="232" y="-192"/>
			<point x="230" y="-216" type="curve"/>
			<point x="239" y="-243"/>
			<point x="268" y="-258"/>
		</contour>
	</outline>
</glyph>
<glyph name="f_l" format="2">
	<advance width="560"/>
	<outline>
		<contour>
			<point x="36" y="0" type="line"/>
			<point x="248" y="0" type="line"/>
			<point x="248" y="16" type="line"/>
			<point x="154" y="28" type="line"/>
			<point x="128" y="28" type="line"/>
			<point x="36" y="16" type="line"/>
		</contour>
		<contour>
			<point x="104" y="0" type="curve"/>
			<point x="182" y="0" type="line"/>
			<point x="178" y="46"/>
			<point x="177" y="148"/>
			<point x="177" y="212" type="curve" smooth="yes"/>
			<point x="177" y="444" type="line"/>
			<point x="174" y="537"/>
			<point x="187" y="655"/>
			<point x="250" y="709" type="curve" smooth="yes"/>
			<point x="268" y="726"/>
			<point x="288" y="732"/>
			<point x="324" y="732" type="curve"/>
			<point x="324" y="738" type="line"/>
			<point x="268" y="738" type="line"/>
			<point x="268" y="730" type="line"/>
			<point x="299" y="704" type="line" smooth="yes"/>
			<point x="326" y="681"/>
			<point x="343" y="673"/>
			<point x="366" y="673" type="curve" smooth="yes"/>
			<point x="392" y="673"/>
			<point x="412" y="687"/>
			<point x="414" y="709" type="curve"/>
			<point x="405" y="738"/>
			<point x="365" y="753"/>
			<point x="328" y="753" type="curve" smooth="yes"/>
			<point x="288" y="753"/>
			<point x="246" y="745"/>
			<point x="210" y="713" type="curve" smooth="yes"/>
			<point x="156" y="665"/>
			<point x="112" y="579"/>
			<point x="108" y="430" type="curve"/>
			<point x="128" y="460" type="line"/>
			<point x="31" y="444" type="line"/>
			<point x="31" y="428" type="line"/>
			<point x="108" y="428" type="line"/>
			<point x="108" y="212" type="line" smooth="yes"/>
			<point x="108" y="148"/>
			<point x="107" y="46"/>
		</contour>
		<contour>
			<point x="139" y="428" type="line"/>
			<point x="298" y="428" type="line"/>
			<point x="298" y="452" type="line"/>
			<point x="139" y="452" type="line"/>
		</contour>
		<contour>
			<point x="322" y="0" type="line"/>
			<point x="532" y="0" type="line"/>
			<point x="532" y="16" type="line"/>
			<point x="438" y="28" type="line"/>
			<point x="416" y="28" type="line"/>
			<point x="322" y="16" type="line"/>
		</contour>
		<contour>
			<point x="390" y="0" type="curve"/>
			<point x="468" y="0" type="line"/>
			<point x="465" y="46"/>
			<point x="464" y="148"/>
			<point x="464" y="212" type="curve" smooth="yes"/>
			<point x="464" y="539" type="line"/>
			<point x="468" y="735" type="line"/>
			<point x="460" y="743" type="line"/>
			<point x="394" y="727" type="line"/>
			<point x="394" y="212" type="line" smooth="yes"/>
			<point x="394" y="148"/>
			<point x="393" y="46"/>
		</contour>
	</outline>
</glyph>
<glyph name="f_t" format="2">
	<advance width="585"/>
	<outline>
		<contour>
			<point x="408" y="428" type="line"/>
			<point x="562" y="428" type="line"/>
			<point x="562" y="452" type="line"/>
			<point x="408" y="452" type="line"/>
		</contour>
		<contour>
			<point x="471" y="-12" type="curve" smooth="yes"/>
			<point x="524" y="-12"/>
			<point x="553" y="11"/>
			<point x="574" y="50" type="curve"/>
			<point x="563" y="59" type="line"/>
			<point x="544" y="38"/>
			<point x="521" y="26"/>
			<point x="494" y="26" type="curve" smooth="yes"/>
			<point x="460" y="26"/>
			<point x="438" y="46"/>
			<point x="438" y="98" type="curve" smooth="yes"/>
			<point x="438" y="436" type="line"/>
			<point x="438" y="440" type="line"/>
			<point x="442" y="604" type="line"/>
			<point x="420" y="604" type="line"/>
			<point x="368" y="440" type="line"/>
			<point x="404" y="452" type="line"/>
			<point x="276" y="452" type="line"/>
			<point x="276" y="428" type="line"/>
			<point x="369" y="428" type="line"/>
			<point x="367" y="199" type="line" smooth="yes"/>
			<point x="367" y="154"/>
			<point x="367" y="127"/>
			<point x="367" y="90" type="curve" smooth="yes"/>
			<point x="367" y="22"/>
			<point x="408" y="-12"/>
		</contour>
		<component base="f"/>
	</outline>
</glyph>
<glyph name="five.cap" format="2">
	<advance width="478"/>
	<outline>
		<contour>
			<point x="213" y="-12" type="curve" smooth="yes"/>
			<point x="346" y="-12"/>
			<point x="434" y="76"/>
			<point x="434" y="206" type="curve" smooth="yes"/>
			<point x="434" y="331"/>
			<point x="352" y="399"/>
			<point x="231" y="399" type="curve" smooth="yes"/>
			<point x="182" y="399"/>
			<point x="140" y="392"/>
			<point x="96" y="371" type="curve"/>
			<point x="111" y="360" type="line"/>
			<point x="128" y="634" type="line"/>
			<point x="119" y="604" type="line"/>
			<point x="419" y="604" type="line"/>
			<point x="419" y="669" type="line"/>
			<point x="109" y="669" type="line"/>
			<point x="89" y="356" type="line"/>
			<point x="101" y="348" type="line"/>
			<point x="138" y="367"/>
			<point x="175" y="372"/>
			<point x="208" y="372" type="curve" smooth="yes"/>
			<point x="307" y="372"/>
			<point x="357" y="291"/>
			<point x="357" y="205" type="curve" smooth="yes"/>
			<point x="357" y="105"/>
			<point x="308" y="9"/>
			<point x="207" y="9" type="curve" smooth="yes"/>
			<point x="179" y="9"/>
			<point x="147" y="13"/>
			<point x="114" y="33" type="curve"/>
			<point x="147" y="4" type="line"/>
			<point x="126" y="88" type="line" smooth="yes"/>
			<point x="116" y="131"/>
			<point x="104" y="150"/>
			<point x="79" y="150" type="curve" smooth="yes"/>
			<point x="60" y="150"/>
			<point x="46" y="142"/>
			<point x="39" y="121" type="curve"/>
			<point x="51" y="33"/>
			<point x="116" y="-12"/>
		</contour>
	</outline>
</glyph>
<glyph name="five.lf" format="2">
	<advance width="478"/>
	<outline>
		<contour>
			<point x="213" y="-12" type="curve" smooth="yes"/>
			<point x="346" y="-12"/>
			<point x="434" y="70"/>
			<point x="434" y="192" type="curve" smooth="yes"/>
			<point x="434" y="317"/>
			<point x="352" y="386"/>
			<point x="230" y="386" type="curve" smooth="yes"/>
			<point x="182" y="386"/>
			<point x="141" y="379"/>
			<point x="96" y="357" type="curve"/>
			<point x="111" y="346" type="line"/>
			<point x="128" y="610" type="line"/>
			<point x="119" y="580" type="line"/>
			<point x="419" y="580" type="line"/>
			<point x="419" y="646" type="line"/>
			<point x="109" y="646" type="line"/>
			<point x="89" y="342" type="line"/>
			<point x="101" y="334" type="line"/>
			<point x="138" y="353"/>
			<point x="175" y="358"/>
			<point x="208" y="358" type="curve" smooth="yes"/>
			<point x="307" y="358"/>
			<point x="357" y="278"/>
			<point x="357" y="192" type="curve" smooth="yes"/>
			<point x="357" y="98"/>
			<point x="308" y="9"/>
			<point x="207" y="9" type="curve" smooth="yes"/>
			<point x="179" y="9"/>
			<point x="147" y="13"/>
			<point x="114" y="33" type="curve"/>
			<point x="147" y="4" type="line"/>
			<point x="126" y="88" type="line" smooth="yes"/>
			<point x="116" y="131"/>
			<point x="104" y="150"/>
			<point x="79" y="150" type="curve" smooth="yes"/>
			<point x="60" y="150"/>
			<point x="46" y="142"/>
			<point x="39" y="121" type="curve"/>
			<point x="51" y="33"/>
			<point x="116" y="-12"/>
		</contour>
	</outline>
</glyph>
<glyph name="four.cap" format="2">
	<advance width="476"/>
	<outline>
		<contour>
			<point x="284" y="-15" type="line"/>
			<point x="353" y="-15" type="line"/>
			<point x="353" y="681" type="line"/>
			<point x="305" y="681" type="line"/>
			<point x="29" y="229" type="line"/>
			<point x="29" y="173" type="line"/>
			<point x="452" y="173" type="line"/>
			<point x="452" y="237" type="line"/>
			<point x="54" y="237" type="line"/>
			<point x="54" y="247" type="line"/>
			<point x="47" y="220" type="line"/>
			<point x="170" y="425" type="line"/>
			<point x="293" y="629" type="line"/>
			<point x="274" y="623" type="line"/>
			<point x="284" y="623" type="line"/>
			<point x="284" y="219" type="line"/>
			<point x="284" y="200" type="line"/>
		</contour>
	</outline>
</glyph>
<glyph name="four.lf" format="2">
	<advance width="476"/>
	<outline>
		<contour>
			<point x="284" y="-15" type="line"/>
			<point x="353" y="-15" type="line"/>
			<point x="353" y="654" type="line"/>
			<point x="305" y="654" type="line"/>
			<point x="29" y="217" type="line"/>
			<point x="29" y="162" type="line"/>
			<point x="452" y="162" type="line"/>
			<point x="452" y="225" type="line"/>
			<point x="54" y="225" type="line"/>
			<point x="54" y="236" type="line"/>
			<point x="46" y="205" type="line"/>
			<point x="170" y="403" type="line"/>
			<point x="293" y="602" type="line"/>
			<point x="273" y="594" type="line"/>
			<point x="284" y="594" type="line"/>
			<point x="284" y="201" type="line"/>
			<point x="284" y="182" type="line"/>
		</contour>
	</outline>
</glyph>
<glyph name="g" format="2">
	<advance width="478"/>
	<outline>
		<contour>
			<point x="212" y="-258" type="curve" smooth="yes"/>
			<point x="372" y="-258"/>
			<point x="450" y="-172"/>
			<point x="450" y="-80" type="curve" smooth="yes"/>
			<point x="450" y="4"/>
			<point x="398" y="41"/>
			<point x="297" y="41" type="curve" smooth="yes"/>
			<point x="173" y="41" type="line" smooth="yes"/>
			<point x="124" y="41"/>
			<point x="101" y="57"/>
			<point x="101" y="92" type="curve" smooth="yes"/>
			<point x="101" y="115"/>
			<point x="109" y="139"/>
			<point x="137" y="166" type="curve"/>
			<point x="124" y="182" type="line"/>
			<point x="124" y="176" type="line"/>
			<point x="73" y="134"/>
			<point x="48" y="103"/>
			<point x="48" y="62" type="curve" smooth="yes"/>
			<point x="48" y="13"/>
			<point x="82" y="-16"/>
			<point x="132" y="-20" type="curve"/>
			<point x="132" y="-22" type="line"/>
			<point x="146" y="-26"/>
			<point x="165" y="-26"/>
			<point x="176" y="-26" type="curve" smooth="yes"/>
			<point x="284" y="-26" type="line" smooth="yes"/>
			<point x="355" y="-26"/>
			<point x="386" y="-56"/>
			<point x="386" y="-106" type="curve" smooth="yes"/>
			<point x="386" y="-178"/>
			<point x="330" y="-238"/>
			<point x="222" y="-238" type="curve" smooth="yes"/>
			<point x="145" y="-238"/>
			<point x="90" y="-200"/>
			<point x="90" y="-126" type="curve" smooth="yes"/>
			<point x="90" y="-62"/>
			<point x="127" y="-36"/>
			<point x="156" y="-14" type="curve"/>
			<point x="152" y="-8" type="line"/>
			<point x="72" y="-42"/>
			<point x="26" y="-84"/>
			<point x="26" y="-136" type="curve" smooth="yes"/>
			<point x="26" y="-210"/>
			<point x="82" y="-258"/>
		</contour>
		<contour>
			<point x="220" y="142" type="curve" smooth="yes"/>
			<point x="305" y="142"/>
			<point x="386" y="199"/>
			<point x="386" y="304" type="curve" smooth="yes"/>
			<point x="386" y="348"/>
			<point x="374" y="382"/>
			<point x="353" y="408" type="curve"/>
			<point x="349" y="412" type="line"/>
			<point x="318" y="447"/>
			<point x="270" y="464"/>
			<point x="220" y="464" type="curve" smooth="yes"/>
			<point x="136" y="464"/>
			<point x="54" y="407"/>
			<point x="54" y="302" type="curve" smooth="yes"/>
			<point x="54" y="195"/>
			<point x="136" y="142"/>
		</contour>
		<contour>
			<point x="220" y="162" type="curve" smooth="yes"/>
			<point x="163" y="162"/>
			<point x="126" y="208"/>
			<point x="126" y="301" type="curve" smooth="yes"/>
			<point x="126" y="394"/>
			<point x="163" y="444"/>
			<point x="220" y="444" type="curve" smooth="yes"/>
			<point x="278" y="444"/>
			<point x="316" y="398"/>
			<point x="316" y="304" type="curve" smooth="yes"/>
			<point x="316" y="212"/>
			<point x="278" y="162"/>
		</contour>
		<contour>
			<point x="335" y="394" type="line"/>
			<point x="455" y="394" type="line"/>
			<point x="455" y="456" type="line"/>
			<point x="447" y="464" type="line"/>
			<point x="338" y="412" type="line"/>
			<point x="334" y="412" type="line"/>
		</contour>
	</outline>
	<anchor name="aboveLC" x="235" y="472"/>
	<anchor name="belowLC" x="234" y="-278"/>
</glyph>
<glyph name="germandbls" format="2">
	<advance width="578"/>
	<outline>
		<contour>
			<point x="31" y="0" type="line"/>
			<point x="139" y="0" type="line"/>
			<point x="139" y="28" type="line"/>
			<point x="127" y="28" type="line"/>
			<point x="31" y="16" type="line"/>
		</contour>
		<contour>
			<point x="102" y="0" type="curve"/>
			<point x="176" y="0" type="line"/>
			<point x="174" y="70"/>
			<point x="173" y="142"/>
			<point x="173" y="212" type="curve" smooth="yes"/>
			<point x="173" y="463" type="line" smooth="yes"/>
			<point x="173" y="584"/>
			<point x="192" y="660"/>
			<point x="232" y="698" type="curve" smooth="yes"/>
			<point x="257" y="722"/>
			<point x="289" y="733"/>
			<point x="326" y="733" type="curve" smooth="yes"/>
			<point x="384" y="733"/>
			<point x="428" y="695"/>
			<point x="428" y="622" type="curve" smooth="yes"/>
			<point x="428" y="572"/>
			<point x="406" y="542"/>
			<point x="379" y="514" type="curve" smooth="yes"/>
			<point x="338" y="472"/>
			<point x="286" y="432"/>
			<point x="286" y="362" type="curve" smooth="yes"/>
			<point x="286" y="298"/>
			<point x="335" y="266"/>
			<point x="381" y="233" type="curve" smooth="yes"/>
			<point x="430" y="199"/>
			<point x="474" y="168"/>
			<point x="474" y="110" type="curve" smooth="yes"/>
			<point x="474" y="43"/>
			<point x="430" y="7"/>
			<point x="367" y="7" type="curve" smooth="yes"/>
			<point x="342" y="7"/>
			<point x="305" y="12"/>
			<point x="260" y="39" type="curve"/>
			<point x="302" y="11" type="line"/>
			<point x="260" y="145" type="line"/>
			<point x="247" y="145" type="line"/>
			<point x="240" y="20" type="line"/>
			<point x="283" y="-1"/>
			<point x="329" y="-12"/>
			<point x="368" y="-12" type="curve" smooth="yes"/>
			<point x="470" y="-12"/>
			<point x="537" y="43"/>
			<point x="537" y="130" type="curve" smooth="yes"/>
			<point x="537" y="211"/>
			<point x="477" y="252"/>
			<point x="423" y="290" type="curve" smooth="yes"/>
			<point x="381" y="320"/>
			<point x="341" y="347"/>
			<point x="341" y="391" type="curve" smooth="yes"/>
			<point x="341" y="437"/>
			<point x="374" y="469"/>
			<point x="409" y="499" type="curve" smooth="yes"/>
			<point x="447" y="533"/>
			<point x="490" y="569"/>
			<point x="490" y="627" type="curve" smooth="yes"/>
			<point x="490" y="699"/>
			<point x="433" y="753"/>
			<point x="330" y="753" type="curve" smooth="yes"/>
			<point x="284" y="753"/>
			<point x="242" y="742"/>
			<point x="208" y="718" type="curve" smooth="yes"/>
			<point x="142" y="671"/>
			<point x="104" y="578"/>
			<point x="104" y="462" type="curve" smooth="yes"/>
			<point x="104" y="212" type="line" smooth="yes"/>
			<point x="104" y="142"/>
			<point x="103" y="70"/>
		</contour>
	</outline>
</glyph>
<glyph name="gscript" format="2">
	<advance width="514"/>
	<outline>
		<contour>
			<point x="222" y="-258" type="curve" smooth="yes"/>
			<point x="274" y="-258"/>
			<point x="327" y="-242"/>
			<point x="365" y="-205" type="curve" smooth="yes"/>
			<point x="406" y="-166"/>
			<point x="434" y="-106"/>
			<point x="434" y="-16" type="curve"/>
			<point x="434" y="257" type="line"/>
			<point x="438" y="456" type="line"/>
			<point x="427" y="461" type="line"/>
			<point x="364" y="384" type="line"/>
			<point x="364" y="381" type="line"/>
			<point x="364" y="88" type="line"/>
			<point x="364" y="84" type="line"/>
			<point x="364" y="45"/>
			<point x="364" y="6"/>
			<point x="364" y="-33" type="curve" smooth="yes"/>
			<point x="364" y="-99"/>
			<point x="352" y="-150"/>
			<point x="326" y="-185" type="curve" smooth="yes"/>
			<point x="302" y="-219"/>
			<point x="268" y="-236"/>
			<point x="220" y="-236" type="curve" smooth="yes"/>
			<point x="185" y="-236"/>
			<point x="156" y="-228"/>
			<point x="131" y="-210" type="curve"/>
			<point x="156" y="-236" type="line"/>
			<point x="137" y="-156" type="line" smooth="yes"/>
			<point x="131" y="-128"/>
			<point x="114" y="-112"/>
			<point x="92" y="-112" type="curve" smooth="yes"/>
			<point x="68" y="-112"/>
			<point x="58" y="-125"/>
			<point x="56" y="-148" type="curve"/>
			<point x="66" y="-212"/>
			<point x="140" y="-258"/>
		</contour>
		<contour>
			<point x="224" y="-12" type="curve" smooth="yes"/>
			<point x="292" y="-12"/>
			<point x="343" y="33"/>
			<point x="373" y="89" type="curve"/>
			<point x="386" y="89" type="line"/>
			<point x="380" y="118" type="line"/>
			<point x="343" y="64"/>
			<point x="302" y="26"/>
			<point x="249" y="26" type="curve" smooth="yes"/>
			<point x="173" y="26"/>
			<point x="117" y="86"/>
			<point x="117" y="220" type="curve" smooth="yes"/>
			<point x="117" y="358"/>
			<point x="177" y="425"/>
			<point x="249" y="425" type="curve" smooth="yes"/>
			<point x="303" y="425"/>
			<point x="335" y="405"/>
			<point x="384" y="347" type="curve"/>
			<point x="391" y="372" type="line"/>
			<point x="377" y="372" type="line"/>
			<point x="340" y="439"/>
			<point x="291" y="464"/>
			<point x="236" y="464" type="curve" smooth="yes"/>
			<point x="132" y="464"/>
			<point x="44" y="374"/>
			<point x="44" y="216" type="curve" smooth="yes"/>
			<point x="44" y="64"/>
			<point x="126" y="-12"/>
		</contour>
	</outline>
	<anchor name="aboveLC" x="256" y="472"/>
	<anchor name="belowLC" x="245" y="-278"/>
</glyph>
<glyph name="guilsinglleft" format="2">
	<advance width="260"/>
	<outline>
		<contour>
			<point x="227" y="38" type="line"/>
			<point x="239" y="50" type="line"/>
			<point x="71" y="259" type="line"/>
			<point x="71" y="218" type="line"/>
			<point x="239" y="428" type="line"/>
			<point x="227" y="440" type="line"/>
			<point x="28" y="254" type="line"/>
			<point x="28" y="222" type="line"/>
		</contour>
	</outline>
</glyph>
<glyph name="h" format="2">
	<advance width="558"/>
	<outline>
		<contour>
			<point x="35" y="0" type="line"/>
			<point x="246" y="0" type="line"/>
			<point x="246" y="16" type="line"/>
			<point x="151" y="28" type="line"/>
			<point x="130" y="28" type="line"/>
			<point x="35" y="16" type="line"/>
		</contour>
		<contour>
			<point x="104" y="0" type="curve"/>
			<point x="182" y="0" type="line"/>
			<point x="178" y="46"/>
			<point x="177" y="148"/>
			<point x="177" y="212" type="curve" smooth="yes"/>
			<point x="177" y="360" type="line"/>
			<point x="177" y="361" type="line"/>
			<point x="177" y="539" type="line"/>
			<point x="181" y="735" type="line"/>
			<point x="173" y="743" type="line"/>
			<point x="31" y="707" type="line"/>
			<point x="31" y="693" type="line"/>
			<point x="108" y="676" type="line"/>
			<point x="108" y="212" type="line" smooth="yes"/>
			<point x="108" y="148"/>
			<point x="107" y="46"/>
		</contour>
		<contour>
			<point x="321" y="0" type="line"/>
			<point x="532" y="0" type="line"/>
			<point x="532" y="16" type="line"/>
			<point x="436" y="28" type="line"/>
			<point x="416" y="28" type="line"/>
			<point x="321" y="16" type="line"/>
		</contour>
		<contour>
			<point x="389" y="0" type="curve"/>
			<point x="467" y="0" type="line"/>
			<point x="464" y="46"/>
			<point x="463" y="148"/>
			<point x="463" y="212" type="curve" smooth="yes"/>
			<point x="463" y="306" type="line" smooth="yes"/>
			<point x="463" y="422"/>
			<point x="422" y="464"/>
			<point x="346" y="464" type="curve" smooth="yes"/>
			<point x="273" y="464"/>
			<point x="207" y="409"/>
			<point x="166" y="356" type="curve"/>
			<point x="162" y="356" type="line"/>
			<point x="170" y="342" type="line"/>
			<point x="220" y="387"/>
			<point x="264" y="414"/>
			<point x="313" y="414" type="curve" smooth="yes"/>
			<point x="370" y="414"/>
			<point x="393" y="391"/>
			<point x="393" y="305" type="curve" smooth="yes"/>
			<point x="393" y="212" type="line" smooth="yes"/>
			<point x="393" y="148"/>
			<point x="392" y="46"/>
		</contour>
	</outline>
	<anchor name="aboveLC" x="141" y="743"/>
	<anchor name="belowLC" x="284" y="-20"/>
</glyph>
<glyph name="hbar" format="2">
	<advance width="558"/>
	<outline>
		<contour>
			<point x="104" y="0" type="curve"/>
			<point x="182" y="0" type="line"/>
			<point x="178" y="46"/>
			<point x="177" y="148"/>
			<point x="177" y="212" type="curve" smooth="yes"/>
			<point x="177" y="336" type="line"/>
			<point x="177" y="341" type="line"/>
			<point x="177" y="539" type="line"/>
			<point x="181" y="735" type="line"/>
			<point x="173" y="743" type="line"/>
			<point x="31" y="707" type="line"/>
			<point x="31" y="693" type="line"/>
			<point x="108" y="676" type="line"/>
			<point x="108" y="212" type="line" smooth="yes"/>
			<point x="108" y="148"/>
			<point x="107" y="46"/>
		</contour>
		<contour>
			<point x="35" y="0" type="line"/>
			<point x="246" y="0" type="line"/>
			<point x="246" y="16" type="line"/>
			<point x="151" y="28" type="line"/>
			<point x="130" y="28" type="line"/>
			<point x="35" y="16" type="line"/>
		</contour>
		<contour>
			<point x="321" y="0" type="line"/>
			<point x="532" y="0" type="line"/>
			<point x="532" y="16" type="line"/>
			<point x="436" y="28" type="line"/>
			<point x="416" y="28" type="line"/>
			<point x="321" y="16" type="line"/>
		</contour>
		<contour>
			<point x="30" y="555" type="line"/>
			<point x="362" y="555" type="line"/>
			<point x="362" y="577" type="line"/>
			<point x="30" y="577" type="line"/>
		</contour>
		<contour>
			<point x="389" y="0" type="curve"/>
			<point x="467" y="0" type="line"/>
			<point x="464" y="46"/>
			<point x="463" y="148"/>
			<point x="463" y="212" type="curve" smooth="yes"/>
			<point x="463" y="290" type="line" smooth="yes"/>
			<point x="463" y="406"/>
			<point x="422" y="448"/>
			<point x="346" y="448" type="curve" smooth="yes"/>
			<point x="273" y="448"/>
			<point x="207" y="393"/>
			<point x="166" y="340" type="curve"/>
			<point x="162" y="340" type="line"/>
			<point x="170" y="326" type="line"/>
			<point x="220" y="371"/>
			<point x="264" y="398"/>
			<point x="313" y="398" type="curve" smooth="yes"/>
			<point x="370" y="398"/>
			<point x="393" y="375"/>
			<point x="393" y="289" type="curve" smooth="yes"/>
			<point x="393" y="212" type="line" smooth="yes"/>
			<point x="393" y="148"/>
			<point x="392" y="46"/>
		</contour>
	</outline>
</glyph>
<glyph name="i" format="2">
	<advance width="274"/>
	<outline>
		<contour>
			<point x="35" y="0" type="line"/>
			<point x="246" y="0" type="line"/>
			<point x="246" y="16" type="line"/>
			<point x="151" y="28" type="line"/>
			<point x="130" y="28" type="line"/>
			<point x="35" y="16" type="line"/>
		</contour>
		<contour>
			<point x="104" y="0" type="curve"/>
			<point x="182" y="0" type="line"/>
			<point x="178" y="46"/>
			<point x="177" y="148"/>
			<point x="177" y="212" type="curve" smooth="yes"/>
			<point x="177" y="330" type="line"/>
			<point x="181" y="456" type="line"/>
			<point x="173" y="464" type="line"/>
			<point x="31" y="420" type="line"/>
			<point x="31" y="406" type="line"/>
			<point x="105" y="389" type="line"/>
			<point x="107" y="348"/>
			<point x="108" y="314"/>
			<point x="108" y="257" type="curve" smooth="yes"/>
			<point x="108" y="212" type="line" smooth="yes"/>
			<point x="108" y="148"/>
			<point x="107" y="46"/>
		</contour>
		<contour>
			<point x="140" y="568" type="curve" smooth="yes"/>
			<point x="171" y="568"/>
			<point x="194" y="588"/>
			<point x="194" y="622" type="curve" smooth="yes"/>
			<point x="194" y="654"/>
			<point x="171" y="674"/>
			<point x="140" y="674" type="curve" smooth="yes"/>
			<point x="111" y="674"/>
			<point x="87" y="654"/>
			<point x="87" y="622" type="curve" smooth="yes"/>
			<point x="87" y="588"/>
			<point x="111" y="568"/>
		</contour>
	</outline>
	<anchor name="aboveLC" x="138" y="674"/>
	<anchor name="belowLC" x="142" y="-20"/>
	<anchor name="ogonek" x="166" y="0"/>
</glyph>
<glyph name="k" format="2">
	<advance width="508"/>
	<outline>
		<contour>
			<point x="35" y="0" type="line"/>
			<point x="246" y="0" type="line"/>
			<point x="246" y="16" type="line"/>
			<point x="151" y="28" type="line"/>
			<point x="130" y="28" type="line"/>
			<point x="35" y="16" type="line"/>
		</contour>
		<contour>
			<point x="104" y="0" type="curve"/>
			<point x="182" y="0" type="line"/>
			<point x="178" y="46"/>
			<point x="177" y="148"/>
			<point x="177" y="212" type="curve" smooth="yes"/>
			<point x="177" y="539" type="line"/>
			<point x="181" y="735" type="line"/>
			<point x="173" y="743" type="line"/>
			<point x="31" y="707" type="line"/>
			<point x="31" y="693" type="line"/>
			<point x="108" y="676" type="line"/>
			<point x="108" y="212" type="line" smooth="yes"/>
			<point x="108" y="148"/>
			<point x="107" y="46"/>
		</contour>
		<contour>
			<point x="144" y="140" type="line"/>
			<point x="427" y="452" type="line"/>
			<point x="394" y="452" type="line"/>
			<point x="273" y="316" type="line"/>
			<point x="150" y="179" type="line"/>
			<point x="144" y="179" type="line"/>
		</contour>
		<contour>
			<point x="377" y="0" type="line"/>
			<point x="502" y="0" type="line"/>
			<point x="502" y="16" type="line"/>
			<point x="447" y="24" type="line"/>
			<point x="281" y="300" type="line"/>
			<point x="229" y="252" type="line"/>
		</contour>
		<contour>
			<point x="282" y="436" type="line"/>
			<point x="378" y="424" type="line"/>
			<point x="394" y="424" type="line"/>
			<point x="478" y="436" type="line"/>
			<point x="478" y="452" type="line"/>
			<point x="282" y="452" type="line"/>
		</contour>
	</outline>
	<anchor name="aboveLC" x="148" y="743"/>
	<anchor name="belowLC" x="276" y="-20"/>
</glyph>
<glyph name="kgreenlandic" format="2">
	<advance width="508"/>
	<outline>
		<contour>
			<point x="35" y="0" type="line"/>
			<point x="246" y="0" type="line"/>
			<point x="246" y="16" type="line"/>
			<point x="151" y="28" type="line"/>
			<point x="130" y="28" type="line"/>
			<point x="35" y="16" type="line"/>
		</contour>
		<contour>
			<point x="104" y="0" type="curve"/>
			<point x="182" y="0" type="line"/>
			<point x="178" y="46"/>
			<point x="177" y="148"/>
			<point x="177" y="212" type="curve" smooth="yes"/>
			<point x="177" y="330" type="line"/>
			<point x="181" y="456" type="line"/>
			<point x="173" y="464" type="line"/>
			<point x="31" y="420" type="line"/>
			<point x="31" y="406" type="line"/>
			<point x="105" y="389" type="line"/>
			<point x="107" y="348"/>
			<point x="108" y="314"/>
			<point x="108" y="257" type="curve" smooth="yes"/>
			<point x="108" y="212" type="line" smooth="yes"/>
			<point x="108" y="148"/>
			<point x="107" y="46"/>
		</contour>
		<contour>
			<point x="144" y="140" type="line"/>
			<point x="427" y="452" type="line"/>
			<point x="394" y="452" type="line"/>
			<point x="273" y="316" type="line"/>
			<point x="150" y="179" type="line"/>
			<point x="144" y="179" type="line"/>
		</contour>
		<contour>
			<point x="377" y="0" type="line"/>
			<point x="502" y="0" type="line"/>
			<point x="502" y="16" type="line"/>
			<point x="416" y="28" type="line"/>
			<point x="453" y="13" type="line"/>
			<point x="281" y="300" type="line"/>
			<point x="229" y="252" type="line"/>
		</contour>
		<contour>
			<point x="378" y="424" type="line"/>
			<point x="394" y="424" type="line"/>
			<point x="478" y="436" type="line"/>
			<point x="478" y="452" type="line"/>
			<point x="282" y="452" type="line"/>
			<point x="282" y="436" type="line"/>
		</contour>
	</outline>
</glyph>
<glyph name="l" format="2">
	<advance width="274"/>
	<outline>
		<contour>
			<point x="35" y="0" type="line"/>
			<point x="246" y="0" type="line"/>
			<point x="246" y="16" type="line"/>
			<point x="151" y="28" type="line"/>
			<point x="130" y="28" type="line"/>
			<point x="35" y="16" type="line"/>
		</contour>
		<contour>
			<point x="104" y="0" type="curve"/>
			<point x="182" y="0" type="line"/>
			<point x="178" y="46"/>
			<point x="177" y="148"/>
			<point x="177" y="212" type="curve" smooth="yes"/>
			<point x="177" y="561" type="line"/>
			<point x="181" y="735" type="line"/>
			<point x="173" y="743" type="line"/>
			<point x="31" y="707" type="line"/>
			<point x="31" y="693" type="line"/>
			<point x="108" y="676" type="line"/>
			<point x="108" y="212" type="line" smooth="yes"/>
			<point x="108" y="148"/>
			<point x="107" y="46"/>
		</contour>
	</outline>
	<anchor name="aboveLC" x="139" y="743"/>
	<anchor name="belowLC" x="139" y="-20"/>
</glyph>
<glyph name="longs" format="2">
	<advance width="320"/>
	<outline>
		<contour>
			<point x="35" y="0" type="line"/>
			<point x="270" y="0" type="line"/>
			<point x="270" y="16" type="line"/>
			<point x="159" y="28" type="line"/>
			<point x="130" y="28" type="line"/>
			<point x="35" y="16" type="line"/>
		</contour>
		<contour>
			<point x="105" y="0" type="curve"/>
			<point x="180" y="0" type="line"/>
			<point x="178" y="46"/>
			<point x="177" y="148"/>
			<point x="177" y="212" type="curve" smooth="yes"/>
			<point x="177" y="444" type="line" smooth="yes"/>
			<point x="177" y="589"/>
			<point x="191" y="658"/>
			<point x="229" y="701" type="curve" smooth="yes"/>
			<point x="247" y="723"/>
			<point x="276" y="733"/>
			<point x="292" y="733" type="curve"/>
			<point x="278" y="738" type="line"/>
			<point x="256" y="738" type="line"/>
			<point x="244" y="733" type="line"/>
			<point x="281" y="704" type="line" smooth="yes"/>
			<point x="307" y="681"/>
			<point x="324" y="673"/>
			<point x="347" y="673" type="curve" smooth="yes"/>
			<point x="374" y="673"/>
			<point x="394" y="687"/>
			<point x="396" y="709" type="curve"/>
			<point x="387" y="738"/>
			<point x="349" y="753"/>
			<point x="314" y="753" type="curve" smooth="yes"/>
			<point x="273" y="753"/>
			<point x="230" y="739"/>
			<point x="195" y="705" type="curve" smooth="yes"/>
			<point x="147" y="656"/>
			<point x="108" y="587"/>
			<point x="108" y="430" type="curve" smooth="yes"/>
			<point x="108" y="212" type="line" smooth="yes"/>
			<point x="108" y="148"/>
			<point x="107" y="46"/>
		</contour>
	</outline>
</glyph>
<glyph name="lslash" format="2">
	<advance width="274"/>
	<outline>
		<contour>
			<point x="145" y="391" type="line"/>
			<point x="32" y="332" type="line"/>
			<point x="32" y="309" type="line"/>
			<point x="145" y="368" type="line"/>
		</contour>
		<contour>
			<point x="250" y="438" type="line"/>
			<point x="137" y="378" type="line"/>
			<point x="137" y="356" type="line"/>
			<point x="250" y="416" type="line"/>
		</contour>
		<component base="l"/>
	</outline>
</glyph>
<glyph name="m" format="2">
	<advance width="837"/>
	<outline>
		<contour>
			<point x="35" y="0" type="line"/>
			<point x="246" y="0" type="line"/>
			<point x="246" y="16" type="line"/>
			<point x="151" y="28" type="line"/>
			<point x="130" y="28" type="line"/>
			<point x="35" y="16" type="line"/>
		</contour>
		<contour>
			<point x="104" y="0" type="curve"/>
			<point x="182" y="0" type="line"/>
			<point x="178" y="46"/>
			<point x="177" y="148"/>
			<point x="177" y="212" type="curve" smooth="yes"/>
			<point x="177" y="356" type="line"/>
			<point x="177" y="361" type="line"/>
			<point x="177" y="456" type="line"/>
			<point x="169" y="464" type="line"/>
			<point x="31" y="420" type="line"/>
			<point x="31" y="406" type="line"/>
			<point x="105" y="389" type="line"/>
			<point x="107" y="348"/>
			<point x="108" y="314"/>
			<point x="108" y="257" type="curve" smooth="yes"/>
			<point x="108" y="212" type="line" smooth="yes"/>
			<point x="108" y="148"/>
			<point x="107" y="46"/>
		</contour>
		<contour>
			<point x="318" y="0" type="line"/>
			<point x="528" y="0" type="line"/>
			<point x="528" y="16" type="line"/>
			<point x="433" y="28" type="line"/>
			<point x="412" y="28" type="line"/>
			<point x="318" y="16" type="line"/>
		</contour>
		<contour>
			<point x="385" y="0" type="curve"/>
			<point x="463" y="0" type="line"/>
			<point x="460" y="46"/>
			<point x="459" y="148"/>
			<point x="459" y="212" type="curve" smooth="yes"/>
			<point x="459" y="306" type="line" smooth="yes"/>
			<point x="459" y="422"/>
			<point x="420" y="464"/>
			<point x="344" y="464" type="curve" smooth="yes"/>
			<point x="271" y="464"/>
			<point x="207" y="409"/>
			<point x="166" y="356" type="curve"/>
			<point x="162" y="356" type="line"/>
			<point x="170" y="342" type="line"/>
			<point x="220" y="387"/>
			<point x="262" y="414"/>
			<point x="311" y="414" type="curve" smooth="yes"/>
			<point x="368" y="414"/>
			<point x="390" y="391"/>
			<point x="390" y="305" type="curve" smooth="yes"/>
			<point x="390" y="212" type="line" smooth="yes"/>
			<point x="390" y="148"/>
			<point x="389" y="46"/>
		</contour>
		<contour>
			<point x="599" y="0" type="line"/>
			<point x="810" y="0" type="line"/>
			<point x="810" y="16" type="line"/>
			<point x="714" y="28" type="line"/>
			<point x="694" y="28" type="line"/>
			<point x="599" y="16" type="line"/>
		</contour>
		<contour>
			<point x="667" y="0" type="curve"/>
			<point x="745" y="0" type="line"/>
			<point x="742" y="46"/>
			<point x="741" y="148"/>
			<point x="741" y="212" type="curve" smooth="yes"/>
			<point x="741" y="306" type="line" smooth="yes"/>
			<point x="741" y="422"/>
			<point x="702" y="464"/>
			<point x="626" y="464" type="curve" smooth="yes"/>
			<point x="553" y="464"/>
			<point x="488" y="409"/>
			<point x="447" y="356" type="curve"/>
			<point x="443" y="356" type="line"/>
			<point x="452" y="341" type="line"/>
			<point x="502" y="387"/>
			<point x="544" y="414"/>
			<point x="593" y="414" type="curve" smooth="yes"/>
			<point x="650" y="414"/>
			<point x="671" y="391"/>
			<point x="671" y="305" type="curve" smooth="yes"/>
			<point x="671" y="212" type="line" smooth="yes"/>
			<point x="671" y="148"/>
			<point x="671" y="46"/>
		</contour>
	</outline>
	<anchor name="aboveLC" x="422" y="472"/>
	<anchor name="belowLC" x="426" y="-20"/>
</glyph>
<glyph name="n" format="2">
	<advance width="558"/>
	<outline>
		<contour>
			<point x="35" y="0" type="line"/>
			<point x="246" y="0" type="line"/>
			<point x="246" y="16" type="line"/>
			<point x="151" y="28" type="line"/>
			<point x="130" y="28" type="line"/>
			<point x="35" y="16" type="line"/>
		</contour>
		<contour>
			<point x="104" y="0" type="curve"/>
			<point x="182" y="0" type="line"/>
			<point x="178" y="46"/>
			<point x="177" y="148"/>
			<point x="177" y="212" type="curve" smooth="yes"/>
			<point x="177" y="356" type="line"/>
			<point x="177" y="358" type="line"/>
			<point x="177" y="456" type="line"/>
			<point x="169" y="464" type="line"/>
			<point x="31" y="420" type="line"/>
			<point x="31" y="406" type="line"/>
			<point x="105" y="389" type="line"/>
			<point x="107" y="348"/>
			<point x="108" y="314"/>
			<point x="108" y="257" type="curve" smooth="yes"/>
			<point x="108" y="212" type="line" smooth="yes"/>
			<point x="108" y="148"/>
			<point x="107" y="46"/>
		</contour>
		<contour>
			<point x="321" y="0" type="line"/>
			<point x="532" y="0" type="line"/>
			<point x="532" y="16" type="line"/>
			<point x="436" y="28" type="line"/>
			<point x="416" y="28" type="line"/>
			<point x="321" y="16" type="line"/>
		</contour>
		<contour>
			<point x="389" y="0" type="curve"/>
			<point x="467" y="0" type="line"/>
			<point x="464" y="46"/>
			<point x="463" y="148"/>
			<point x="463" y="212" type="curve" smooth="yes"/>
			<point x="463" y="306" type="line" smooth="yes"/>
			<point x="463" y="422"/>
			<point x="422" y="464"/>
			<point x="346" y="464" type="curve" smooth="yes"/>
			<point x="273" y="464"/>
			<point x="207" y="409"/>
			<point x="166" y="356" type="curve"/>
			<point x="162" y="356" type="line"/>
			<point x="170" y="342" type="line"/>
			<point x="220" y="387"/>
			<point x="264" y="414"/>
			<point x="313" y="414" type="curve" smooth="yes"/>
			<point x="370" y="414"/>
			<point x="393" y="391"/>
			<point x="393" y="305" type="curve" smooth="yes"/>
			<point x="393" y="212" type="line" smooth="yes"/>
			<point x="393" y="148"/>
			<point x="392" y="46"/>
		</contour>
	</outline>
	<anchor name="aboveLC" x="284" y="472"/>
	<anchor name="belowLC" x="287" y="-20"/>
</glyph>
<glyph name="nine.cap" format="2">
	<advance width="486"/>
	<outline>
		<contour>
			<point x="85" y="-20" type="line"/>
			<point x="329" y="35"/>
			<point x="439" y="216"/>
			<point x="439" y="404" type="curve" smooth="yes"/>
			<point x="439" y="583"/>
			<point x="361" y="685"/>
			<point x="238" y="685" type="curve" smooth="yes"/>
			<point x="128" y="685"/>
			<point x="39" y="595"/>
			<point x="39" y="469" type="curve" smooth="yes"/>
			<point x="39" y="335"/>
			<point x="117" y="264"/>
			<point x="219" y="264" type="curve" smooth="yes"/>
			<point x="288" y="264"/>
			<point x="343" y="300"/>
			<point x="387" y="372" type="curve"/>
			<point x="393" y="372" type="line"/>
			<point x="383" y="384" type="line"/>
			<point x="343" y="329"/>
			<point x="289" y="305"/>
			<point x="246" y="305" type="curve" smooth="yes"/>
			<point x="170" y="305"/>
			<point x="112" y="352"/>
			<point x="112" y="475" type="curve" smooth="yes"/>
			<point x="112" y="596"/>
			<point x="170" y="664"/>
			<point x="239" y="664" type="curve" smooth="yes"/>
			<point x="315" y="664"/>
			<point x="363" y="577"/>
			<point x="363" y="398" type="curve" smooth="yes"/>
			<point x="363" y="193"/>
			<point x="280" y="70"/>
			<point x="81" y="-4" type="curve"/>
		</contour>
	</outline>
</glyph>
<glyph name="nine.lf" format="2">
	<advance width="486"/>
	<outline>
		<contour>
			<point x="85" y="-20" type="line"/>
			<point x="329" y="35"/>
			<point x="439" y="208"/>
			<point x="439" y="387" type="curve" smooth="yes"/>
			<point x="439" y="559"/>
			<point x="361" y="658"/>
			<point x="238" y="658" type="curve" smooth="yes"/>
			<point x="128" y="658"/>
			<point x="39" y="572"/>
			<point x="39" y="450" type="curve" smooth="yes"/>
			<point x="39" y="324"/>
			<point x="117" y="255"/>
			<point x="219" y="255" type="curve" smooth="yes"/>
			<point x="288" y="255"/>
			<point x="343" y="292"/>
			<point x="387" y="362" type="curve"/>
			<point x="393" y="362" type="line"/>
			<point x="383" y="374" type="line"/>
			<point x="343" y="321"/>
			<point x="289" y="296"/>
			<point x="246" y="296" type="curve" smooth="yes"/>
			<point x="170" y="296"/>
			<point x="112" y="341"/>
			<point x="112" y="454" type="curve" smooth="yes"/>
			<point x="112" y="569"/>
			<point x="170" y="637"/>
			<point x="239" y="637" type="curve" smooth="yes"/>
			<point x="315" y="637"/>
			<point x="363" y="553"/>
			<point x="363" y="382" type="curve" smooth="yes"/>
			<point x="363" y="184"/>
			<point x="280" y="70"/>
			<point x="81" y="-4" type="curve"/>
		</contour>
	</outline>
</glyph>
<glyph name="o" format="2">
	<advance width="502"/>
	<outline>
		<contour>
			<point x="252" y="-12" type="curve" smooth="yes"/>
			<point x="361" y="-12"/>
			<point x="459" y="73"/>
			<point x="459" y="228" type="curve" smooth="yes"/>
			<point x="459" y="385"/>
			<point x="362" y="464"/>
			<point x="252" y="464" type="curve" smooth="yes"/>
			<point x="141" y="464"/>
			<point x="44" y="380"/>
			<point x="44" y="224" type="curve" smooth="yes"/>
			<point x="44" y="69"/>
			<point x="140" y="-12"/>
		</contour>
		<contour>
			<point x="252" y="9" type="curve" smooth="yes"/>
			<point x="170" y="9"/>
			<point x="119" y="84"/>
			<point x="119" y="224" type="curve" smooth="yes"/>
			<point x="119" y="365"/>
			<point x="170" y="443"/>
			<point x="252" y="443" type="curve" smooth="yes"/>
			<point x="332" y="443"/>
			<point x="383" y="368"/>
			<point x="383" y="228" type="curve" smooth="yes"/>
			<point x="383" y="87"/>
			<point x="332" y="9"/>
		</contour>
	</outline>
	<anchor name="aboveLC" x="252" y="472"/>
	<anchor name="belowLC" x="252" y="-20"/>
	<anchor name="hornLC" x="369" y="370"/>
	<anchor name="ogonek" x="303" y="0"/>
</glyph>
<glyph name="oe" format="2">
	<advance width="782"/>
	<outline>
		<contour>
			<point x="244" y="-12" type="curve" smooth="yes"/>
			<point x="319" y="-12"/>
			<point x="383" y="29"/>
			<point x="416" y="105" type="curve"/>
			<point x="391" y="105" type="line"/>
			<point x="424" y="30"/>
			<point x="490" y="-12"/>
			<point x="569" y="-12" type="curve" smooth="yes"/>
			<point x="641" y="-12"/>
			<point x="701" y="23"/>
			<point x="736" y="100" type="curve"/>
			<point x="722" y="108" type="line"/>
			<point x="690" y="66"/>
			<point x="649" y="38"/>
			<point x="589" y="38" type="curve" smooth="yes"/>
			<point x="501" y="38"/>
			<point x="440" y="112"/>
			<point x="440" y="234" type="curve" smooth="yes"/>
			<point x="440" y="384"/>
			<point x="506" y="442"/>
			<point x="570" y="442" type="curve" smooth="yes"/>
			<point x="631" y="442"/>
			<point x="670" y="393"/>
			<point x="670" y="318" type="curve" smooth="yes"/>
			<point x="670" y="283"/>
			<point x="658" y="268"/>
			<point x="620" y="268" type="curve" smooth="yes"/>
			<point x="394" y="268" type="line"/>
			<point x="394" y="246" type="line"/>
			<point x="729" y="246" type="line"/>
			<point x="733" y="258"/>
			<point x="734" y="274"/>
			<point x="734" y="296" type="curve" smooth="yes"/>
			<point x="734" y="400"/>
			<point x="671" y="464"/>
			<point x="578" y="464" type="curve" smooth="yes"/>
			<point x="501" y="464"/>
			<point x="433" y="420"/>
			<point x="397" y="348" type="curve"/>
			<point x="418" y="348" type="line"/>
			<point x="386" y="425"/>
			<point x="321" y="464"/>
			<point x="244" y="464" type="curve" smooth="yes"/>
			<point x="134" y="464"/>
			<point x="44" y="380"/>
			<point x="44" y="224" type="curve" smooth="yes"/>
			<point x="44" y="69"/>
			<point x="132" y="-12"/>
		</contour>
		<contour>
			<point x="244" y="9" type="curve" smooth="yes"/>
			<point x="162" y="9"/>
			<point x="119" y="84"/>
			<point x="119" y="224" type="curve" smooth="yes"/>
			<point x="119" y="365"/>
			<point x="162" y="443"/>
			<point x="244" y="443" type="curve" smooth="yes"/>
			<point x="325" y="443"/>
			<point x="368" y="368"/>
			<point x="368" y="228" type="curve" smooth="yes"/>
			<point x="368" y="87"/>
			<point x="325" y="9"/>
		</contour>
	</outline>
	<anchor name="aboveLC" x="405" y="472"/>
</glyph>
<glyph name="one.cap" format="2">
	<advance width="410"/>
	<outline>
		<contour>
			<point x="63" y="0" type="line"/>
			<point x="371" y="0" type="line"/>
			<point x="371" y="16" type="line"/>
			<point x="225" y="34" type="line"/>
			<point x="205" y="34" type="line"/>
			<point x="63" y="16" type="line"/>
		</contour>
		<contour>
			<point x="178" y="0" type="curve"/>
			<point x="256" y="0" type="line"/>
			<point x="253" y="46"/>
			<point x="252" y="148"/>
			<point x="252" y="212" type="curve" smooth="yes"/>
			<point x="252" y="473" type="line"/>
			<point x="256" y="671" type="line"/>
			<point x="247" y="679" type="line"/>
			<point x="63" y="619" type="line"/>
			<point x="63" y="605" type="line"/>
			<point x="182" y="618" type="line"/>
			<point x="182" y="212" type="line" smooth="yes"/>
			<point x="182" y="148"/>
			<point x="181" y="46"/>
		</contour>
	</outline>
</glyph>
<glyph name="one" format="2">
	<advance width="472"/>
	<outline>
		<contour>
			<point x="72" y="0" type="line"/>
			<point x="415" y="0" type="line"/>
			<point x="415" y="16" type="line"/>
			<point x="252" y="34" type="line"/>
			<point x="232" y="34" type="line"/>
			<point x="72" y="16" type="line"/>
		</contour>
		<contour>
			<point x="204" y="0" type="curve"/>
			<point x="283" y="0" type="line"/>
			<point x="279" y="46"/>
			<point x="278" y="148"/>
			<point x="278" y="212" type="curve" smooth="yes"/>
			<point x="278" y="446" type="line"/>
			<point x="282" y="642" type="line"/>
			<point x="274" y="651" type="line"/>
			<point x="81" y="592" type="line"/>
			<point x="81" y="578" type="line"/>
			<point x="208" y="590" type="line"/>
			<point x="208" y="212" type="line" smooth="yes"/>
			<point x="208" y="148"/>
			<point x="207" y="46"/>
		</contour>
	</outline>
</glyph>
<glyph name="one.lf" format="2">
	<advance width="410"/>
	<outline>
		<contour>
			<point x="63" y="0" type="line"/>
			<point x="371" y="0" type="line"/>
			<point x="371" y="16" type="line"/>
			<point x="225" y="34" type="line"/>
			<point x="205" y="34" type="line"/>
			<point x="63" y="16" type="line"/>
		</contour>
		<contour>
			<point x="178" y="0" type="curve"/>
			<point x="256" y="0" type="line"/>
			<point x="253" y="46"/>
			<point x="252" y="148"/>
			<point x="252" y="212" type="curve" smooth="yes"/>
			<point x="252" y="446" type="line"/>
			<point x="256" y="643" type="line"/>
			<point x="247" y="652" type="line"/>
			<point x="63" y="592" type="line"/>
			<point x="63" y="578" type="line"/>
			<point x="182" y="591" type="line"/>
			<point x="182" y="212" type="line" smooth="yes"/>
			<point x="182" y="148"/>
			<point x="181" y="46"/>
		</contour>
	</outline>
</glyph>
<glyph name="one.osf" format="2">
	<advance width="410"/>
	<outline>
		<contour>
			<point x="69" y="0" type="line"/>
			<point x="378" y="0" type="line"/>
			<point x="378" y="16" type="line"/>
			<point x="232" y="34" type="line"/>
			<point x="212" y="34" type="line"/>
			<point x="69" y="16" type="line"/>
		</contour>
		<contour>
			<point x="185" y="0" type="curve"/>
			<point x="264" y="0" type="line"/>
			<point x="260" y="46"/>
			<point x="259" y="148"/>
			<point x="259" y="212" type="curve" smooth="yes"/>
			<point x="259" y="316" type="line"/>
			<point x="263" y="514" type="line"/>
			<point x="254" y="522" type="line"/>
			<point x="70" y="462" type="line"/>
			<point x="70" y="448" type="line"/>
			<point x="189" y="461" type="line"/>
			<point x="189" y="212" type="line" smooth="yes"/>
			<point x="189" y="148"/>
			<point x="188" y="46"/>
		</contour>
	</outline>
</glyph>
<glyph name="one.tosf" format="2">
	<advance width="472"/>
	<outline>
		<contour>
			<point x="72" y="0" type="line"/>
			<point x="415" y="0" type="line"/>
			<point x="415" y="16" type="line"/>
			<point x="252" y="34" type="line"/>
			<point x="232" y="34" type="line"/>
			<point x="72" y="16" type="line"/>
		</contour>
		<contour>
			<point x="204" y="0" type="curve"/>
			<point x="282" y="0" type="line"/>
			<point x="279" y="46"/>
			<point x="278" y="148"/>
			<point x="278" y="212" type="curve" smooth="yes"/>
			<point x="278" y="316" type="line"/>
			<point x="282" y="514" type="line"/>
			<point x="274" y="522" type="line"/>
			<point x="80" y="462" type="line"/>
			<point x="80" y="448" type="line"/>
			<point x="208" y="461" type="line"/>
			<point x="208" y="212" type="line" smooth="yes"/>
			<point x="208" y="148"/>
			<point x="207" y="46"/>
		</contour>
	</outline>
</glyph>
<glyph name="oslash" format="2">
	<advance width="502"/>
	<outline>
		<contour>
			<point x="458" y="448" type="line"/>
			<point x="442" y="461" type="line"/>
			<point x="52" y="4" type="line"/>
			<point x="68" y="-8" type="line"/>
		</contour>
		<contour>
			<point x="252" y="-12" type="curve" smooth="yes"/>
			<point x="361" y="-12"/>
			<point x="459" y="73"/>
			<point x="459" y="228" type="curve" smooth="yes"/>
			<point x="459" y="385"/>
			<point x="362" y="464"/>
			<point x="252" y="464" type="curve" smooth="yes"/>
			<point x="141" y="464"/>
			<point x="44" y="380"/>
			<point x="44" y="224" type="curve" smooth="yes"/>
			<point x="44" y="69"/>
			<point x="140" y="-12"/>
		</contour>
		<contour>
			<point x="252" y="9" type="curve" smooth="yes"/>
			<point x="168" y="9"/>
			<point x="116" y="84"/>
			<point x="116" y="224" type="curve" smooth="yes"/>
			<point x="116" y="365"/>
			<point x="168" y="443"/>
			<point x="252" y="443" type="curve" smooth="yes"/>
			<point x="334" y="443"/>
			<point x="386" y="368"/>
			<point x="386" y="228" type="curve" smooth="yes"/>
			<point x="386" y="87"/>
			<point x="334" y="9"/>
		</contour>
	</outline>
	<anchor name="aboveLC" x="252" y="472"/>
</glyph>
<glyph name="p" format="2">
	<advance width="540"/>
	<outline>
		<contour>
			<point x="35" y="-258" type="line"/>
			<point x="256" y="-258" type="line"/>
			<point x="256" y="-242" type="line"/>
			<point x="149" y="-230" type="line"/>
			<point x="130" y="-230" type="line"/>
			<point x="35" y="-242" type="line"/>
		</contour>
		<contour>
			<point x="104" y="-258" type="curve"/>
			<point x="181" y="-258" type="line"/>
			<point x="178" y="-212"/>
			<point x="177" y="-112"/>
			<point x="177" y="-47" type="curve" smooth="yes"/>
			<point x="177" y="72" type="line"/>
			<point x="177" y="76" type="line"/>
			<point x="177" y="368" type="line"/>
			<point x="177" y="372" type="line"/>
			<point x="177" y="456" type="line"/>
			<point x="169" y="464" type="line"/>
			<point x="31" y="420" type="line"/>
			<point x="31" y="406" type="line"/>
			<point x="105" y="389" type="line"/>
			<point x="107" y="348"/>
			<point x="108" y="314"/>
			<point x="108" y="257" type="curve" smooth="yes"/>
			<point x="108" y="-47" type="line" smooth="yes"/>
			<point x="108" y="-112"/>
			<point x="107" y="-212"/>
		</contour>
		<contour>
			<point x="308" y="-12" type="curve" smooth="yes"/>
			<point x="412" y="-12"/>
			<point x="498" y="78"/>
			<point x="498" y="236" type="curve" smooth="yes"/>
			<point x="498" y="388"/>
			<point x="415" y="464"/>
			<point x="316" y="464" type="curve" smooth="yes"/>
			<point x="248" y="464"/>
			<point x="198" y="420"/>
			<point x="168" y="363" type="curve"/>
			<point x="155" y="363" type="line"/>
			<point x="161" y="334" type="line"/>
			<point x="197" y="390"/>
			<point x="238" y="426"/>
			<point x="293" y="426" type="curve" smooth="yes"/>
			<point x="368" y="426"/>
			<point x="424" y="366"/>
			<point x="424" y="232" type="curve" smooth="yes"/>
			<point x="424" y="95"/>
			<point x="368" y="27"/>
			<point x="296" y="27" type="curve" smooth="yes"/>
			<point x="241" y="27"/>
			<point x="206" y="47"/>
			<point x="158" y="105" type="curve"/>
			<point x="151" y="80" type="line"/>
			<point x="164" y="80" type="line"/>
			<point x="201" y="13"/>
			<point x="254" y="-12"/>
		</contour>
	</outline>
	<anchor name="aboveLC" x="282" y="472"/>
	<anchor name="belowLC" x="147" y="-278"/>
</glyph>
<glyph name="period" format="2">
	<advance width="258"/>
	<outline>
		<contour>
			<point x="129" y="-7" type="curve" smooth="yes"/>
			<point x="160" y="-7"/>
			<point x="184" y="14"/>
			<point x="184" y="48" type="curve" smooth="yes"/>
			<point x="184" y="80"/>
			<point x="160" y="103"/>
			<point x="129" y="103" type="curve" smooth="yes"/>
			<point x="100" y="103"/>
			<point x="74" y="80"/>
			<point x="74" y="48" type="curve" smooth="yes"/>
			<point x="74" y="14"/>
			<point x="100" y="-7"/>
		</contour>
	</outline>
</glyph>
<glyph name="q" format="2">
	<advance width="514"/>
	<outline>
		<contour>
			<point x="285" y="-258" type="line"/>
			<point x="506" y="-258" type="line"/>
			<point x="506" y="-242" type="line"/>
			<point x="411" y="-230" type="line"/>
			<point x="392" y="-230" type="line"/>
			<point x="285" y="-242" type="line"/>
		</contour>
		<contour>
			<point x="224" y="-12" type="curve" smooth="yes"/>
			<point x="292" y="-12"/>
			<point x="343" y="33"/>
			<point x="373" y="89" type="curve"/>
			<point x="386" y="89" type="line"/>
			<point x="380" y="118" type="line"/>
			<point x="343" y="64"/>
			<point x="302" y="26"/>
			<point x="249" y="26" type="curve" smooth="yes"/>
			<point x="173" y="26"/>
			<point x="117" y="86"/>
			<point x="117" y="220" type="curve" smooth="yes"/>
			<point x="117" y="358"/>
			<point x="177" y="425"/>
			<point x="249" y="425" type="curve" smooth="yes"/>
			<point x="303" y="425"/>
			<point x="335" y="405"/>
			<point x="384" y="347" type="curve"/>
			<point x="391" y="372" type="line"/>
			<point x="377" y="372" type="line"/>
			<point x="340" y="439"/>
			<point x="291" y="464"/>
			<point x="236" y="464" type="curve" smooth="yes"/>
			<point x="132" y="464"/>
			<point x="44" y="374"/>
			<point x="44" y="216" type="curve" smooth="yes"/>
			<point x="44" y="64"/>
			<point x="126" y="-12"/>
		</contour>
		<contour>
			<point x="360" y="-258" type="curve"/>
			<point x="438" y="-258" type="line"/>
			<point x="435" y="-212"/>
			<point x="434" y="-112"/>
			<point x="434" y="-47" type="curve" smooth="yes"/>
			<point x="434" y="341" type="line"/>
			<point x="438" y="456" type="line"/>
			<point x="427" y="461" type="line"/>
			<point x="364" y="384" type="line"/>
			<point x="364" y="382" type="line"/>
			<point x="364" y="88" type="line"/>
			<point x="364" y="84" type="line"/>
			<point x="364" y="-47" type="line" smooth="yes"/>
			<point x="364" y="-112"/>
			<point x="363" y="-212"/>
		</contour>
	</outline>
	<anchor name="aboveLC" x="276" y="472"/>
	<anchor name="belowLC" x="392" y="-278"/>
</glyph>
<glyph name="question" format="2">
	<advance width="388"/>
	<outline>
		<contour>
			<point x="143" y="-7" type="curve" smooth="yes"/>
			<point x="172" y="-7"/>
			<point x="198" y="14"/>
			<point x="198" y="48" type="curve" smooth="yes"/>
			<point x="198" y="80"/>
			<point x="172" y="102"/>
			<point x="143" y="102" type="curve" smooth="yes"/>
			<point x="112" y="102"/>
			<point x="88" y="80"/>
			<point x="88" y="48" type="curve" smooth="yes"/>
			<point x="88" y="14"/>
			<point x="112" y="-7"/>
		</contour>
		<contour>
			<point x="326" y="467" type="curve" smooth="yes"/>
			<point x="326" y="587"/>
			<point x="182" y="677"/>
			<point x="101" y="685" type="curve"/>
			<point x="75" y="680"/>
			<point x="62" y="665"/>
			<point x="62" y="646" type="curve" smooth="yes"/>
			<point x="62" y="625"/>
			<point x="74" y="610"/>
			<point x="122" y="603" type="curve" smooth="yes"/>
			<point x="274" y="580" type="line"/>
			<point x="217" y="614" type="line"/>
			<point x="256" y="578"/>
			<point x="294" y="527"/>
			<point x="294" y="481" type="curve" smooth="yes"/>
			<point x="294" y="447"/>
			<point x="263" y="421"/>
			<point x="222" y="406" type="curve" smooth="yes"/>
			<point x="174" y="388" type="line" smooth="yes"/>
			<point x="119" y="367"/>
			<point x="104" y="351"/>
			<point x="104" y="320" type="curve" smooth="yes"/>
			<point x="104" y="308"/>
			<point x="107" y="294"/>
			<point x="119" y="254" type="curve" smooth="yes"/>
			<point x="131" y="212" type="line"/>
			<point x="150" y="212" type="line"/>
			<point x="150" y="270" type="line" smooth="yes"/>
			<point x="150" y="303"/>
			<point x="164" y="315"/>
			<point x="204" y="330" type="curve" smooth="yes"/>
			<point x="239" y="343" type="line" smooth="yes"/>
			<point x="302" y="367"/>
			<point x="326" y="403"/>
		</contour>
	</outline>
</glyph>
<glyph name="quoteleft" format="2">
	<advance width="188"/>
	<outline>
		<contour>
			<point x="96" y="511" type="curve" smooth="yes"/>
			<point x="126" y="511"/>
			<point x="147" y="531"/>
			<point x="147" y="562" type="curve" smooth="yes"/>
			<point x="147" y="578"/>
			<point x="138" y="594"/>
			<point x="116" y="609" type="curve" smooth="yes"/>
			<point x="75" y="636" type="line"/>
			<point x="73" y="613" type="line"/>
			<point x="94" y="671"/>
			<point x="112" y="689"/>
			<point x="157" y="715" type="curve"/>
			<point x="149" y="733" type="line"/>
			<point x="94" y="711"/>
			<point x="42" y="660"/>
			<point x="42" y="584" type="curve" smooth="yes"/>
			<point x="42" y="566"/>
			<point x="45" y="546"/>
			<point x="52" y="528" type="curve"/>
			<point x="69" y="513"/>
			<point x="83" y="511"/>
		</contour>
	</outline>
</glyph>
<glyph name="quotesingle" format="2">
	<advance width="182"/>
	<outline>
		<contour>
			<point x="91" y="736" type="curve" smooth="yes"/>
			<point x="66" y="736"/>
			<point x="53" y="717"/>
			<point x="53" y="686" type="curve" smooth="yes"/>
			<point x="53" y="647"/>
			<point x="70" y="533"/>
			<point x="74" y="501" type="curve" smooth="yes"/>
			<point x="82" y="430" type="line"/>
			<point x="100" y="430" type="line"/>
			<point x="108" y="501" type="line" smooth="yes"/>
			<point x="112" y="533"/>
			<point x="129" y="647"/>
			<point x="129" y="686" type="curve" smooth="yes"/>
			<point x="129" y="717"/>
			<point x="116" y="736"/>
		</contour>
	</outline>
</glyph>
<glyph name="r" format="2">
	<advance width="393"/>
	<outline>
		<contour>
			<point x="35" y="0" type="line"/>
			<point x="258" y="0" type="line"/>
			<point x="258" y="16" type="line"/>
			<point x="151" y="28" type="line"/>
			<point x="130" y="28" type="line"/>
			<point x="35" y="16" type="line"/>
		</contour>
		<contour>
			<point x="104" y="0" type="curve"/>
			<point x="182" y="0" type="line"/>
			<point x="178" y="46"/>
			<point x="177" y="148"/>
			<point x="177" y="212" type="curve" smooth="yes"/>
			<point x="177" y="302" type="line"/>
			<point x="177" y="305" type="line"/>
			<point x="177" y="456" type="line"/>
			<point x="169" y="464" type="line"/>
			<point x="31" y="420" type="line"/>
			<point x="31" y="406" type="line"/>
			<point x="105" y="389" type="line"/>
			<point x="107" y="348"/>
			<point x="108" y="314"/>
			<point x="108" y="257" type="curve" smooth="yes"/>
			<point x="108" y="212" type="line" smooth="yes"/>
			<point x="108" y="148"/>
			<point x="107" y="46"/>
		</contour>
		<contour>
			<point x="171" y="254" type="line"/>
			<point x="192" y="349"/>
			<point x="244" y="413"/>
			<point x="288" y="432" type="curve"/>
			<point x="249" y="427" type="line"/>
			<point x="273" y="401" type="line" smooth="yes"/>
			<point x="290" y="383"/>
			<point x="308" y="372"/>
			<point x="330" y="372" type="curve" smooth="yes"/>
			<point x="357" y="372"/>
			<point x="382" y="391"/>
			<point x="384" y="422" type="curve"/>
			<point x="376" y="452"/>
			<point x="351" y="464"/>
			<point x="322" y="464" type="curve" smooth="yes"/>
			<point x="260" y="464"/>
			<point x="206" y="412"/>
			<point x="172" y="310" type="curve"/>
			<point x="158" y="310" type="line"/>
		</contour>
	</outline>
	<anchor name="aboveLC" x="227" y="472"/>
	<anchor name="belowLC" x="150" y="-20"/>
</glyph>
<glyph name="s" format="2">
	<advance width="392"/>
	<outline>
		<contour>
			<point x="188" y="-12" type="curve" smooth="yes"/>
			<point x="294" y="-12"/>
			<point x="350" y="45"/>
			<point x="350" y="122" type="curve" smooth="yes"/>
			<point x="350" y="200"/>
			<point x="289" y="228"/>
			<point x="229" y="254" type="curve" smooth="yes"/>
			<point x="201" y="266" type="line" smooth="yes"/>
			<point x="152" y="287"/>
			<point x="110" y="311"/>
			<point x="110" y="364" type="curve" smooth="yes"/>
			<point x="110" y="409"/>
			<point x="142" y="444"/>
			<point x="204" y="444" type="curve" smooth="yes"/>
			<point x="245" y="444"/>
			<point x="278" y="434"/>
			<point x="312" y="410" type="curve"/>
			<point x="312" y="436" type="line"/>
			<point x="272" y="436" type="line"/>
			<point x="310" y="316" type="line"/>
			<point x="326" y="316" type="line"/>
			<point x="330" y="430" type="line"/>
			<point x="290" y="453"/>
			<point x="253" y="464"/>
			<point x="204" y="464" type="curve" smooth="yes"/>
			<point x="106" y="464"/>
			<point x="54" y="408"/>
			<point x="54" y="335" type="curve" smooth="yes"/>
			<point x="54" y="259"/>
			<point x="110" y="230"/>
			<point x="167" y="206" type="curve" smooth="yes"/>
			<point x="195" y="194" type="line" smooth="yes"/>
			<point x="246" y="172"/>
			<point x="290" y="150"/>
			<point x="290" y="96" type="curve" smooth="yes"/>
			<point x="290" y="48"/>
			<point x="256" y="7"/>
			<point x="188" y="7" type="curve" smooth="yes"/>
			<point x="143" y="7"/>
			<point x="111" y="15"/>
			<point x="79" y="32" type="curve"/>
			<point x="79" y="14" type="line"/>
			<point x="113" y="14" type="line"/>
			<point x="72" y="148" type="line"/>
			<point x="58" y="148" type="line"/>
			<point x="51" y="23" type="line"/>
			<point x="96" y="-1"/>
			<point x="131" y="-12"/>
		</contour>
	</outline>
	<anchor name="aboveLC" x="205" y="472"/>
	<anchor name="baseLC" x="192" y="0"/>
	<anchor name="belowLC" x="194" y="-20"/>
</glyph>
<glyph name="schwa" format="2">
	<advance width="466"/>
	<outline>
		<contour>
			<point x="223" y="-12" type="curve" smooth="yes"/>
			<point x="340" y="-12"/>
			<point x="422" y="74"/>
			<point x="422" y="226" type="curve" smooth="yes"/>
			<point x="422" y="374"/>
			<point x="337" y="464"/>
			<point x="228" y="464" type="curve" smooth="yes"/>
			<point x="156" y="464"/>
			<point x="96" y="429"/>
			<point x="61" y="352" type="curve"/>
			<point x="74" y="342" type="line"/>
			<point x="107" y="388"/>
			<point x="148" y="414"/>
			<point x="208" y="414" type="curve" smooth="yes"/>
			<point x="293" y="414"/>
			<point x="350" y="342"/>
			<point x="350" y="220" type="curve" smooth="yes"/>
			<point x="350" y="70"/>
			<point x="289" y="10"/>
			<point x="223" y="10" type="curve" smooth="yes"/>
			<point x="155" y="10"/>
			<point x="106" y="55"/>
			<point x="106" y="158" type="curve" smooth="yes"/>
			<point x="106" y="193"/>
			<point x="119" y="208"/>
			<point x="156" y="208" type="curve" smooth="yes"/>
			<point x="396" y="208" type="line"/>
			<point x="396" y="230" type="line"/>
			<point x="47" y="230" type="line"/>
			<point x="43" y="218"/>
			<point x="41" y="203"/>
			<point x="41" y="182" type="curve" smooth="yes"/>
			<point x="41" y="52"/>
			<point x="117" y="-12"/>
		</contour>
	</outline>
	<anchor name="aboveLC" x="226" y="472"/>
	<anchor name="belowLC" x="228" y="-20"/>
</glyph>
<glyph name="seven.cap" format="2">
	<advance width="452"/>
	<outline>
		<contour>
			<point x="115" y="0" type="line"/>
			<point x="192" y="0" type="line"/>
			<point x="420" y="635" type="line"/>
			<point x="420" y="669" type="line"/>
			<point x="29" y="669" type="line"/>
			<point x="29" y="604" type="line"/>
			<point x="389" y="604" type="line"/>
			<point x="389" y="590" type="line"/>
			<point x="399" y="634" type="line"/>
			<point x="107" y="12" type="line"/>
		</contour>
	</outline>
</glyph>
<glyph name="seven.lf" format="2">
	<advance width="452"/>
	<outline>
		<contour>
			<point x="115" y="0" type="line"/>
			<point x="192" y="0" type="line"/>
			<point x="420" y="611" type="line"/>
			<point x="420" y="646" type="line"/>
			<point x="29" y="646" type="line"/>
			<point x="29" y="580" type="line"/>
			<point x="388" y="580" type="line"/>
			<point x="388" y="564" type="line"/>
			<point x="395" y="603" type="line"/>
			<point x="107" y="12" type="line"/>
		</contour>
	</outline>
</glyph>
<glyph name="six.cap" format="2">
	<advance width="486"/>
	<outline>
		<contour>
			<point x="251" y="-12" type="curve" smooth="yes"/>
			<point x="356" y="-12"/>
			<point x="447" y="68"/>
			<point x="447" y="204" type="curve" smooth="yes"/>
			<point x="447" y="325"/>
			<point x="383" y="403"/>
			<point x="274" y="403" type="curve" smooth="yes"/>
			<point x="206" y="403"/>
			<point x="152" y="365"/>
			<point x="107" y="295" type="curve"/>
			<point x="101" y="295" type="line"/>
			<point x="110" y="283" type="line"/>
			<point x="150" y="337"/>
			<point x="205" y="361"/>
			<point x="248" y="361" type="curve" smooth="yes"/>
			<point x="317" y="361"/>
			<point x="375" y="312"/>
			<point x="375" y="198" type="curve" smooth="yes"/>
			<point x="375" y="74"/>
			<point x="321" y="9"/>
			<point x="251" y="9" type="curve" smooth="yes"/>
			<point x="175" y="9"/>
			<point x="124" y="91"/>
			<point x="124" y="262" type="curve" smooth="yes"/>
			<point x="124" y="470"/>
			<point x="208" y="613"/>
			<point x="410" y="669" type="curve"/>
			<point x="406" y="685" type="line"/>
			<point x="176" y="658"/>
			<point x="47" y="475"/>
			<point x="47" y="267" type="curve" smooth="yes"/>
			<point x="47" y="89"/>
			<point x="126" y="-12"/>
		</contour>
	</outline>
</glyph>
<glyph name="six.lf" format="2">
	<advance width="486"/>
	<outline>
		<contour>
			<point x="251" y="-12" type="curve" smooth="yes"/>
			<point x="356" y="-12"/>
			<point x="447" y="68"/>
			<point x="447" y="196" type="curve" smooth="yes"/>
			<point x="447" y="311"/>
			<point x="383" y="388"/>
			<point x="274" y="388" type="curve" smooth="yes"/>
			<point x="206" y="388"/>
			<point x="152" y="351"/>
			<point x="107" y="280" type="curve"/>
			<point x="100" y="280" type="line"/>
			<point x="110" y="268" type="line"/>
			<point x="150" y="323"/>
			<point x="205" y="346"/>
			<point x="248" y="346" type="curve" smooth="yes"/>
			<point x="317" y="346"/>
			<point x="375" y="298"/>
			<point x="375" y="192" type="curve" smooth="yes"/>
			<point x="375" y="76"/>
			<point x="321" y="9"/>
			<point x="251" y="9" type="curve" smooth="yes"/>
			<point x="175" y="9"/>
			<point x="124" y="91"/>
			<point x="124" y="254" type="curve" smooth="yes"/>
			<point x="124" y="456"/>
			<point x="208" y="586"/>
			<point x="410" y="642" type="curve"/>
			<point x="406" y="658" type="line"/>
			<point x="176" y="631"/>
			<point x="47" y="460"/>
			<point x="47" y="260" type="curve" smooth="yes"/>
			<point x="47" y="89"/>
			<point x="126" y="-12"/>
		</contour>
	</outline>
</glyph>
<glyph name="t" format="2">
	<advance width="300"/>
	<outline>
		<contour>
			<point x="122" y="428" type="line"/>
			<point x="277" y="428" type="line"/>
			<point x="277" y="452" type="line"/>
			<point x="122" y="452" type="line"/>
		</contour>
		<contour>
			<point x="186" y="-12" type="curve" smooth="yes"/>
			<point x="239" y="-12"/>
			<point x="267" y="11"/>
			<point x="288" y="50" type="curve"/>
			<point x="277" y="59" type="line"/>
			<point x="258" y="38"/>
			<point x="235" y="26"/>
			<point x="209" y="26" type="curve" smooth="yes"/>
			<point x="174" y="26"/>
			<point x="153" y="46"/>
			<point x="153" y="98" type="curve" smooth="yes"/>
			<point x="153" y="436" type="line"/>
			<point x="153" y="440" type="line"/>
			<point x="157" y="604" type="line"/>
			<point x="134" y="604" type="line"/>
			<point x="82" y="440" type="line"/>
			<point x="118" y="462" type="line"/>
			<point x="8" y="444" type="line"/>
			<point x="8" y="428" type="line"/>
			<point x="84" y="428" type="line"/>
			<point x="82" y="199" type="line" smooth="yes"/>
			<point x="82" y="154"/>
			<point x="82" y="127"/>
			<point x="82" y="90" type="curve" smooth="yes"/>
			<point x="82" y="22"/>
			<point x="122" y="-12"/>
		</contour>
	</outline>
	<anchor name="aboveLC" x="141" y="584"/>
	<anchor name="baseLC" x="182" y="0"/>
	<anchor name="belowLC" x="182" y="-20"/>
</glyph>
<glyph name="thorn" format="2">
	<advance width="534"/>
	<outline>
		<contour>
			<point x="98" y="-258" type="curve"/>
			<point x="172" y="-258" type="line"/>
			<point x="171" y="-189"/>
			<point x="170" y="-117"/>
			<point x="170" y="-47" type="curve" smooth="yes"/>
			<point x="170" y="68" type="line"/>
			<point x="170" y="72" type="line"/>
			<point x="170" y="371" type="line"/>
			<point x="170" y="373" type="line"/>
			<point x="170" y="539" type="line"/>
			<point x="174" y="735" type="line"/>
			<point x="165" y="743" type="line"/>
			<point x="24" y="707" type="line"/>
			<point x="24" y="693" type="line"/>
			<point x="100" y="676" type="line"/>
			<point x="100" y="-47" type="line" smooth="yes"/>
			<point x="100" y="-112"/>
			<point x="99" y="-212"/>
		</contour>
		<contour>
			<point x="301" y="-12" type="curve" smooth="yes"/>
			<point x="406" y="-12"/>
			<point x="490" y="78"/>
			<point x="490" y="236" type="curve" smooth="yes"/>
			<point x="490" y="388"/>
			<point x="408" y="464"/>
			<point x="309" y="464" type="curve" smooth="yes"/>
			<point x="242" y="464"/>
			<point x="191" y="420"/>
			<point x="161" y="363" type="curve"/>
			<point x="148" y="363" type="line"/>
			<point x="154" y="334" type="line"/>
			<point x="189" y="390"/>
			<point x="232" y="426"/>
			<point x="285" y="426" type="curve" smooth="yes"/>
			<point x="361" y="426"/>
			<point x="416" y="366"/>
			<point x="416" y="232" type="curve" smooth="yes"/>
			<point x="416" y="95"/>
			<point x="361" y="27"/>
			<point x="289" y="27" type="curve" smooth="yes"/>
			<point x="234" y="27"/>
			<point x="198" y="47"/>
			<point x="150" y="105" type="curve"/>
			<point x="143" y="80" type="line"/>
			<point x="157" y="80" type="line"/>
			<point x="193" y="13"/>
			<point x="247" y="-12"/>
		</contour>
		<contour>
			<point x="28" y="-258" type="line"/>
			<point x="248" y="-258" type="line"/>
			<point x="248" y="-242" type="line"/>
			<point x="142" y="-230" type="line"/>
			<point x="122" y="-230" type="line"/>
			<point x="28" y="-242" type="line"/>
		</contour>
	</outline>
	<anchor name="aboveLC" x="140" y="743"/>
	<anchor name="belowLC" x="362" y="-20"/>
</glyph>
<glyph name="three.cap" format="2">
	<advance width="474"/>
	<outline>
		<contour>
			<point x="217" y="-12" type="curve" smooth="yes"/>
			<point x="351" y="-12"/>
			<point x="430" y="72"/>
			<point x="430" y="180" type="curve" smooth="yes"/>
			<point x="430" y="270"/>
			<point x="368" y="343"/>
			<point x="237" y="350" type="curve"/>
			<point x="237" y="345" type="line"/>
			<point x="349" y="359"/>
			<point x="408" y="433"/>
			<point x="408" y="528" type="curve" smooth="yes"/>
			<point x="408" y="615"/>
			<point x="350" y="685"/>
			<point x="227" y="685" type="curve" smooth="yes"/>
			<point x="144" y="685"/>
			<point x="66" y="639"/>
			<point x="55" y="552" type="curve"/>
			<point x="60" y="531"/>
			<point x="71" y="524"/>
			<point x="88" y="524" type="curve" smooth="yes"/>
			<point x="116" y="524"/>
			<point x="127" y="542"/>
			<point x="136" y="580" type="curve" smooth="yes"/>
			<point x="159" y="667" type="line"/>
			<point x="122" y="640" type="line"/>
			<point x="155" y="658"/>
			<point x="189" y="664"/>
			<point x="217" y="664" type="curve" smooth="yes"/>
			<point x="297" y="664"/>
			<point x="335" y="601"/>
			<point x="335" y="522" type="curve" smooth="yes"/>
			<point x="335" y="439"/>
			<point x="289" y="357"/>
			<point x="191" y="357" type="curve" smooth="yes"/>
			<point x="157" y="357" type="line"/>
			<point x="157" y="333" type="line"/>
			<point x="199" y="333" type="line" smooth="yes"/>
			<point x="306" y="333"/>
			<point x="354" y="259"/>
			<point x="354" y="176" type="curve" smooth="yes"/>
			<point x="354" y="91"/>
			<point x="303" y="9"/>
			<point x="207" y="9" type="curve" smooth="yes"/>
			<point x="177" y="9"/>
			<point x="143" y="13"/>
			<point x="109" y="33" type="curve"/>
			<point x="143" y="4" type="line"/>
			<point x="123" y="88" type="line" smooth="yes"/>
			<point x="113" y="131"/>
			<point x="100" y="150"/>
			<point x="75" y="150" type="curve" smooth="yes"/>
			<point x="56" y="150"/>
			<point x="43" y="142"/>
			<point x="35" y="121" type="curve"/>
			<point x="48" y="33"/>
			<point x="116" y="-12"/>
		</contour>
	</outline>
</glyph>
<glyph name="three.lf" format="2">
	<advance width="474"/>
	<outline>
		<contour>
			<point x="217" y="-12" type="curve" smooth="yes"/>
			<point x="351" y="-12"/>
			<point x="430" y="72"/>
			<point x="430" y="176" type="curve" smooth="yes"/>
			<point x="430" y="261"/>
			<point x="368" y="335"/>
			<point x="237" y="340" type="curve"/>
			<point x="237" y="335" type="line"/>
			<point x="349" y="351"/>
			<point x="408" y="421"/>
			<point x="408" y="509" type="curve" smooth="yes"/>
			<point x="408" y="589"/>
			<point x="350" y="658"/>
			<point x="227" y="658" type="curve" smooth="yes"/>
			<point x="144" y="658"/>
			<point x="66" y="612"/>
			<point x="55" y="525" type="curve"/>
			<point x="60" y="504"/>
			<point x="71" y="497"/>
			<point x="88" y="497" type="curve" smooth="yes"/>
			<point x="116" y="497"/>
			<point x="127" y="515"/>
			<point x="136" y="552" type="curve" smooth="yes"/>
			<point x="159" y="639" type="line"/>
			<point x="122" y="613" type="line"/>
			<point x="155" y="631"/>
			<point x="189" y="637"/>
			<point x="217" y="637" type="curve" smooth="yes"/>
			<point x="297" y="637"/>
			<point x="335" y="574"/>
			<point x="335" y="503" type="curve" smooth="yes"/>
			<point x="335" y="428"/>
			<point x="289" y="349"/>
			<point x="191" y="349" type="curve" smooth="yes"/>
			<point x="157" y="349" type="line"/>
			<point x="157" y="325" type="line"/>
			<point x="199" y="325" type="line" smooth="yes"/>
			<point x="306" y="325"/>
			<point x="354" y="250"/>
			<point x="354" y="172" type="curve" smooth="yes"/>
			<point x="354" y="91"/>
			<point x="303" y="9"/>
			<point x="207" y="9" type="curve" smooth="yes"/>
			<point x="177" y="9"/>
			<point x="143" y="13"/>
			<point x="109" y="33" type="curve"/>
			<point x="143" y="4" type="line"/>
			<point x="123" y="88" type="line" smooth="yes"/>
			<point x="113" y="131"/>
			<point x="100" y="150"/>
			<point x="75" y="150" type="curve" smooth="yes"/>
			<point x="56" y="150"/>
			<point x="43" y="142"/>
			<point x="35" y="121" type="curve"/>
			<point x="48" y="33"/>
			<point x="116" y="-12"/>
		</contour>
	</outline>
</glyph>
<glyph name="two.cap" format="2">
	<advance width="470"/>
	<outline>
		<contour>
			<point x="49" y="0" type="line"/>
			<point x="433" y="0" type="line"/>
			<point x="433" y="66" type="line"/>
			<point x="88" y="66" type="line"/>
			<point x="88" y="77" type="line"/>
			<point x="71" y="44" type="line"/>
			<point x="116" y="90"/>
			<point x="162" y="138"/>
			<point x="207" y="184" type="curve" smooth="yes"/>
			<point x="349" y="332"/>
			<point x="406" y="421"/>
			<point x="406" y="513" type="curve" smooth="yes"/>
			<point x="406" y="609"/>
			<point x="358" y="685"/>
			<point x="224" y="685" type="curve" smooth="yes"/>
			<point x="124" y="685"/>
			<point x="55" y="626"/>
			<point x="44" y="544" type="curve"/>
			<point x="53" y="525"/>
			<point x="63" y="516"/>
			<point x="82" y="516" type="curve" smooth="yes"/>
			<point x="108" y="516"/>
			<point x="119" y="535"/>
			<point x="129" y="577" type="curve" smooth="yes"/>
			<point x="152" y="669" type="line"/>
			<point x="117" y="637" type="line"/>
			<point x="151" y="656"/>
			<point x="183" y="664"/>
			<point x="213" y="664" type="curve" smooth="yes"/>
			<point x="285" y="664"/>
			<point x="333" y="609"/>
			<point x="333" y="507" type="curve" smooth="yes"/>
			<point x="333" y="423"/>
			<point x="277" y="323"/>
			<point x="189" y="215" type="curve" smooth="yes"/>
			<point x="142" y="159"/>
			<point x="96" y="101"/>
			<point x="49" y="46" type="curve"/>
		</contour>
	</outline>
</glyph>
<glyph name="two.lf" format="2">
	<advance width="470"/>
	<outline>
		<contour>
			<point x="49" y="0" type="line"/>
			<point x="433" y="0" type="line"/>
			<point x="433" y="66" type="line"/>
			<point x="87" y="66" type="line"/>
			<point x="87" y="76" type="line"/>
			<point x="71" y="44" type="line"/>
			<point x="116" y="87"/>
			<point x="162" y="132"/>
			<point x="207" y="176" type="curve" smooth="yes"/>
			<point x="353" y="320"/>
			<point x="406" y="398"/>
			<point x="406" y="486" type="curve" smooth="yes"/>
			<point x="406" y="586"/>
			<point x="358" y="658"/>
			<point x="224" y="658" type="curve" smooth="yes"/>
			<point x="124" y="658"/>
			<point x="55" y="599"/>
			<point x="44" y="517" type="curve"/>
			<point x="53" y="498"/>
			<point x="63" y="489"/>
			<point x="82" y="489" type="curve" smooth="yes"/>
			<point x="108" y="489"/>
			<point x="119" y="508"/>
			<point x="129" y="550" type="curve" smooth="yes"/>
			<point x="152" y="642" type="line"/>
			<point x="117" y="609" type="line"/>
			<point x="151" y="629"/>
			<point x="183" y="637"/>
			<point x="213" y="637" type="curve" smooth="yes"/>
			<point x="285" y="637"/>
			<point x="333" y="585"/>
			<point x="333" y="480" type="curve" smooth="yes"/>
			<point x="333" y="400"/>
			<point x="280" y="313"/>
			<point x="189" y="207" type="curve" smooth="yes"/>
			<point x="142" y="153"/>
			<point x="96" y="99"/>
			<point x="49" y="46" type="curve"/>
		</contour>
	</outline>
</glyph>
<glyph name="two.osf" format="2">
	<advance width="478"/>
	<outline>
		<contour>
			<point x="52" y="0" type="line"/>
			<point x="430" y="0" type="line"/>
			<point x="430" y="66" type="line"/>
			<point x="92" y="66" type="line"/>
			<point x="92" y="77" type="line"/>
			<point x="75" y="46" type="line"/>
			<point x="120" y="81"/>
			<point x="165" y="109"/>
			<point x="211" y="143" type="curve" smooth="yes"/>
			<point x="356" y="246"/>
			<point x="410" y="309"/>
			<point x="410" y="381" type="curve" smooth="yes"/>
			<point x="410" y="470"/>
			<point x="339" y="522"/>
			<point x="233" y="522" type="curve" smooth="yes"/>
			<point x="134" y="522"/>
			<point x="65" y="461"/>
			<point x="54" y="379" type="curve"/>
			<point x="62" y="360"/>
			<point x="73" y="352"/>
			<point x="92" y="352" type="curve" smooth="yes"/>
			<point x="117" y="352"/>
			<point x="129" y="371"/>
			<point x="139" y="413" type="curve" smooth="yes"/>
			<point x="162" y="506" type="line"/>
			<point x="127" y="473" type="line"/>
			<point x="161" y="493"/>
			<point x="192" y="500"/>
			<point x="221" y="500" type="curve" smooth="yes"/>
			<point x="287" y="500"/>
			<point x="336" y="455"/>
			<point x="336" y="377" type="curve" smooth="yes"/>
			<point x="336" y="306"/>
			<point x="284" y="248"/>
			<point x="198" y="174" type="curve" smooth="yes"/>
			<point x="149" y="133"/>
			<point x="99" y="91"/>
			<point x="52" y="48" type="curve"/>
		</contour>
	</outline>
</glyph>
<glyph name="u" format="2">
	<advance width="542"/>
	<outline>
		<contour>
			<point x="212" y="-12" type="curve" smooth="yes"/>
			<point x="285" y="-12"/>
			<point x="349" y="43"/>
			<point x="388" y="95" type="curve"/>
			<point x="392" y="95" type="line"/>
			<point x="384" y="112" type="line"/>
			<point x="334" y="65"/>
			<point x="290" y="38"/>
			<point x="243" y="38" type="curve" smooth="yes"/>
			<point x="186" y="38"/>
			<point x="162" y="61"/>
			<point x="162" y="146" type="curve" smooth="yes"/>
			<point x="162" y="330" type="line"/>
			<point x="166" y="456" type="line"/>
			<point x="157" y="464" type="line"/>
			<point x="24" y="432" type="line"/>
			<point x="24" y="418" type="line"/>
			<point x="113" y="399" type="line"/>
			<point x="92" y="429" type="line"/>
			<point x="92" y="130" type="line" smooth="yes"/>
			<point x="92" y="30"/>
			<point x="136" y="-12"/>
		</contour>
		<contour>
			<point x="378" y="-10" type="line"/>
			<point x="514" y="0" type="line"/>
			<point x="514" y="16" type="line"/>
			<point x="448" y="25" type="line"/>
			<point x="448" y="330" type="line"/>
			<point x="452" y="456" type="line"/>
			<point x="443" y="464" type="line"/>
			<point x="306" y="432" type="line"/>
			<point x="306" y="418" type="line"/>
			<point x="378" y="403" type="line"/>
			<point x="378" y="93" type="line"/>
			<point x="378" y="90" type="line"/>
		</contour>
	</outline>
	<anchor name="aboveLC" x="266" y="472"/>
	<anchor name="belowLC" x="285" y="-20"/>
	<anchor name="hornLC" x="429" y="411"/>
	<anchor name="ogonek" x="444" y="0"/>
</glyph>
<glyph name="uhorn" format="2">
	<advance width="542"/>
	<outline>
		<contour>
			<point x="212" y="-12" type="curve" smooth="yes"/>
			<point x="285" y="-12"/>
			<point x="349" y="43"/>
			<point x="388" y="95" type="curve"/>
			<point x="392" y="95" type="line"/>
			<point x="384" y="112" type="line"/>
			<point x="334" y="65"/>
			<point x="290" y="38"/>
			<point x="243" y="38" type="curve" smooth="yes"/>
			<point x="186" y="38"/>
			<point x="162" y="61"/>
			<point x="162" y="146" type="curve" smooth="yes"/>
			<point x="162" y="330" type="line"/>
			<point x="166" y="456" type="line"/>
			<point x="157" y="464" type="line"/>
			<point x="24" y="432" type="line"/>
			<point x="24" y="418" type="line"/>
			<point x="113" y="399" type="line"/>
			<point x="92" y="429" type="line"/>
			<point x="92" y="130" type="line" smooth="yes"/>
			<point x="92" y="30"/>
			<point x="136" y="-12"/>
		</contour>
		<contour>
			<point x="378" y="-10" type="line"/>
			<point x="514" y="0" type="line"/>
			<point x="514" y="16" type="line"/>
			<point x="448" y="25" type="line"/>
			<point x="448" y="330" type="line"/>
			<point x="452" y="456" type="line"/>
			<point x="427" y="442" type="line"/>
			<point x="492" y="453"/>
			<point x="533" y="492"/>
			<point x="533" y="551" type="curve" smooth="yes"/>
			<point x="533" y="576"/>
			<point x="529" y="592"/>
			<point x="521" y="607" type="curve"/>
			<point x="514" y="614"/>
			<point x="505" y="617"/>
			<point x="494" y="617" type="curve" smooth="yes"/>
			<point x="476" y="617"/>
			<point x="460" y="603"/>
			<point x="460" y="583" type="curve" smooth="yes"/>
			<point x="460" y="553"/>
			<point x="487" y="537"/>
			<point x="487" y="511" type="curve" smooth="yes"/>
			<point x="487" y="478"/>
			<point x="466" y="469"/>
			<point x="427" y="460" type="curve" smooth="yes"/>
			<point x="306" y="432" type="line"/>
			<point x="306" y="418" type="line"/>
			<point x="378" y="403" type="line"/>
			<point x="378" y="93" type="line"/>
			<point x="378" y="90" type="line"/>
		</contour>
	</outline>
	<anchor name="aboveLC" x="266" y="472"/>
	<anchor name="belowLC" x="285" y="-20"/>
</glyph>
<glyph name="uogonek" format="2">
	<advance width="542"/>
	<outline>
		<contour>
			<point x="437" y="-230" type="curve" smooth="yes"/>
			<point x="473" y="-230"/>
			<point x="502" y="-216"/>
			<point x="529" y="-185" type="curve"/>
			<point x="523" y="-173" type="line"/>
			<point x="502" y="-182"/>
			<point x="481" y="-185"/>
			<point x="464" y="-185" type="curve" smooth="yes"/>
			<point x="428" y="-185"/>
			<point x="406" y="-163"/>
			<point x="406" y="-118" type="curve" smooth="yes"/>
			<point x="406" y="-71"/>
			<point x="428" y="-28"/>
			<point x="468" y="1" type="curve"/>
			<point x="452" y="9" type="line"/>
			<point x="452" y="1" type="line"/>
			<point x="398" y="-25"/>
			<point x="351" y="-81"/>
			<point x="351" y="-144" type="curve" smooth="yes"/>
			<point x="351" y="-195"/>
			<point x="385" y="-230"/>
		</contour>
		<component base="u"/>
	</outline>
	<anchor name="aboveLC" x="266" y="472"/>
</glyph>
<glyph name="v" format="2">
	<advance width="466"/>
	<outline>
		<contour>
			<point x="224" y="-4" type="line"/>
			<point x="246" y="-4" type="line"/>
			<point x="418" y="452" type="line"/>
			<point x="390" y="452" type="line"/>
			<point x="255" y="84" type="line"/>
			<point x="251" y="72" type="line"/>
			<point x="268" y="72" type="line"/>
			<point x="125" y="452" type="line"/>
			<point x="44" y="452" type="line"/>
		</contour>
		<contour>
			<point x="4" y="436" type="line"/>
			<point x="91" y="424" type="line"/>
			<point x="114" y="424" type="line"/>
			<point x="213" y="437" type="line"/>
			<point x="213" y="452" type="line"/>
			<point x="4" y="452" type="line"/>
		</contour>
		<contour>
			<point x="314" y="437" type="line"/>
			<point x="390" y="428" type="line"/>
			<point x="402" y="428" type="line"/>
			<point x="462" y="436" type="line"/>
			<point x="462" y="452" type="line"/>
			<point x="314" y="452" type="line"/>
		</contour>
	</outline>
	<anchor name="aboveLC" x="258" y="472"/>
	<anchor name="belowLC" x="235" y="-20"/>
</glyph>
<glyph name="w" format="2">
	<advance width="699"/>
	<outline>
		<contour>
			<point x="204" y="-4" type="line"/>
			<point x="227" y="-4" type="line"/>
			<point x="355" y="362" type="line"/>
			<point x="358" y="370" type="line"/>
			<point x="345" y="370" type="line"/>
			<point x="476" y="-4" type="line"/>
			<point x="499" y="-4" type="line"/>
			<point x="655" y="452" type="line"/>
			<point x="626" y="452" type="line"/>
			<point x="506" y="85" type="line"/>
			<point x="502" y="72" type="line"/>
			<point x="520" y="72" type="line"/>
			<point x="390" y="452" type="line"/>
			<point x="358" y="452" type="line"/>
			<point x="235" y="85" type="line"/>
			<point x="230" y="72" type="line"/>
			<point x="248" y="72" type="line"/>
			<point x="125" y="452" type="line"/>
			<point x="44" y="452" type="line"/>
		</contour>
		<contour>
			<point x="4" y="436" type="line"/>
			<point x="91" y="424" type="line"/>
			<point x="113" y="424" type="line"/>
			<point x="201" y="437" type="line"/>
			<point x="201" y="452" type="line"/>
			<point x="4" y="452" type="line"/>
		</contour>
		<contour>
			<point x="279" y="437" type="line"/>
			<point x="355" y="428" type="line"/>
			<point x="393" y="428" type="line"/>
			<point x="469" y="437" type="line"/>
			<point x="469" y="452" type="line"/>
			<point x="279" y="452" type="line"/>
		</contour>
		<contour>
			<point x="550" y="437" type="line"/>
			<point x="623" y="428" type="line"/>
			<point x="635" y="428" type="line"/>
			<point x="695" y="436" type="line"/>
			<point x="695" y="452" type="line"/>
			<point x="550" y="452" type="line"/>
		</contour>
	</outline>
	<anchor name="aboveLC" x="374" y="472"/>
	<anchor name="belowLC" x="355" y="-20"/>
</glyph>
<glyph name="x" format="2">
	<advance width="460"/>
	<outline>
		<contour>
			<point x="4" y="0" type="line"/>
			<point x="150" y="0" type="line"/>
			<point x="150" y="15" type="line"/>
			<point x="84" y="24" type="line"/>
			<point x="69" y="24" type="line"/>
			<point x="4" y="16" type="line"/>
		</contour>
		<contour>
			<point x="46" y="0" type="line"/>
			<point x="77" y="0" type="line"/>
			<point x="154" y="113" type="line"/>
			<point x="231" y="227" type="line"/>
			<point x="223" y="233" type="line"/>
			<point x="214" y="242" type="line"/>
		</contour>
		<contour>
			<point x="258" y="0" type="line"/>
			<point x="454" y="0" type="line"/>
			<point x="454" y="16" type="line"/>
			<point x="372" y="28" type="line"/>
			<point x="349" y="28" type="line"/>
			<point x="258" y="15" type="line"/>
		</contour>
		<contour>
			<point x="232" y="211" type="line"/>
			<point x="402" y="452" type="line"/>
			<point x="370" y="452" type="line"/>
			<point x="293" y="339" type="line"/>
			<point x="217" y="225" type="line"/>
			<point x="224" y="219" type="line"/>
		</contour>
		<contour>
			<point x="333" y="0" type="line"/>
			<point x="420" y="0" type="line"/>
			<point x="254" y="252" type="line"/>
			<point x="131" y="452" type="line"/>
			<point x="44" y="452" type="line"/>
			<point x="199" y="216" type="line"/>
		</contour>
		<contour>
			<point x="12" y="436" type="line"/>
			<point x="92" y="424" type="line"/>
			<point x="114" y="424" type="line"/>
			<point x="209" y="437" type="line"/>
			<point x="209" y="452" type="line"/>
			<point x="12" y="452" type="line"/>
		</contour>
		<contour>
			<point x="298" y="437" type="line"/>
			<point x="363" y="428" type="line"/>
			<point x="378" y="428" type="line"/>
			<point x="439" y="436" type="line"/>
			<point x="439" y="452" type="line"/>
			<point x="298" y="452" type="line"/>
		</contour>
	</outline>
	<anchor name="aboveLC" x="244" y="472"/>
	<anchor name="belowLC" x="213" y="-20"/>
</glyph>
<glyph name="y" format="2">
	<advance width="466"/>
	<outline>
		<contour>
			<point x="58" y="-258" type="curve" smooth="yes"/>
			<point x="138" y="-258"/>
			<point x="184" y="-171"/>
			<point x="233" y="-41" type="curve" smooth="yes"/>
			<point x="418" y="452" type="line"/>
			<point x="390" y="452" type="line"/>
			<point x="314" y="247" type="line"/>
			<point x="238" y="39" type="line"/>
			<point x="237" y="35" type="line"/>
			<point x="208" y="-41" type="line" smooth="yes"/>
			<point x="169" y="-140"/>
			<point x="139" y="-204"/>
			<point x="87" y="-233" type="curve"/>
			<point x="108" y="-228" type="line"/>
			<point x="117" y="-223" type="line"/>
			<point x="93" y="-205" type="line" smooth="yes"/>
			<point x="74" y="-189"/>
			<point x="57" y="-180"/>
			<point x="34" y="-180" type="curve" smooth="yes"/>
			<point x="8" y="-180"/>
			<point x="-13" y="-194"/>
			<point x="-15" y="-217" type="curve"/>
			<point x="-5" y="-245"/>
			<point x="27" y="-258"/>
		</contour>
		<contour>
			<point x="226" y="-8" type="line"/>
			<point x="242" y="25" type="line"/>
			<point x="268" y="72" type="line"/>
			<point x="125" y="452" type="line"/>
			<point x="44" y="452" type="line"/>
		</contour>
		<contour>
			<point x="4" y="436" type="line"/>
			<point x="91" y="424" type="line"/>
			<point x="114" y="424" type="line"/>
			<point x="213" y="437" type="line"/>
			<point x="213" y="452" type="line"/>
			<point x="4" y="452" type="line"/>
		</contour>
		<contour>
			<point x="310" y="437" type="line"/>
			<point x="386" y="428" type="line"/>
			<point x="398" y="428" type="line"/>
			<point x="462" y="436" type="line"/>
			<point x="462" y="452" type="line"/>
			<point x="310" y="452" type="line"/>
		</contour>
	</outline>
	<anchor name="aboveLC" x="265" y="472"/>
	<anchor name="belowLC" x="109" y="-268"/>
</glyph>
<glyph name="z" format="2">
	<advance width="414"/>
	<outline>
		<contour>
			<point x="28" y="0" type="line"/>
			<point x="383" y="0" type="line"/>
			<point x="390" y="156" type="line"/>
			<point x="376" y="156" type="line"/>
			<point x="325" y="12" type="line"/>
			<point x="362" y="22" type="line"/>
			<point x="226" y="22" type="line"/>
			<point x="107" y="22" type="line"/>
			<point x="107" y="36" type="line"/>
			<point x="100" y="5" type="line"/>
			<point x="378" y="440" type="line"/>
			<point x="378" y="452" type="line"/>
			<point x="44" y="452" type="line"/>
			<point x="41" y="312" type="line"/>
			<point x="56" y="310" type="line"/>
			<point x="104" y="440" type="line"/>
			<point x="64" y="430" type="line"/>
			<point x="190" y="430" type="line"/>
			<point x="301" y="430" type="line"/>
			<point x="305" y="421" type="line"/>
			<point x="305" y="445" type="line"/>
			<point x="28" y="12" type="line"/>
		</contour>
	</outline>
	<anchor name="aboveLC" x="209" y="472"/>
	<anchor name="belowLC" x="215" y="-20"/>
</glyph>
<glyph name="zero.cap" format="2">
	<advance width="485"/>
	<outline>
		<contour>
			<point x="243" y="-12" type="curve" smooth="yes"/>
			<point x="345" y="-12"/>
			<point x="438" y="75"/>
			<point x="438" y="336" type="curve" smooth="yes"/>
			<point x="438" y="595"/>
			<point x="345" y="685"/>
			<point x="243" y="685" type="curve" smooth="yes"/>
			<point x="140" y="685"/>
			<point x="47" y="595"/>
			<point x="47" y="336" type="curve" smooth="yes"/>
			<point x="47" y="75"/>
			<point x="140" y="-12"/>
		</contour>
		<contour>
			<point x="243" y="9" type="curve" smooth="yes"/>
			<point x="186" y="9"/>
			<point x="124" y="70"/>
			<point x="124" y="336" type="curve" smooth="yes"/>
			<point x="124" y="599"/>
			<point x="186" y="664"/>
			<point x="243" y="664" type="curve" smooth="yes"/>
			<point x="298" y="664"/>
			<point x="361" y="599"/>
			<point x="361" y="336" type="curve" smooth="yes"/>
			<point x="361" y="70"/>
			<point x="298" y="9"/>
		</contour>
	</outline>
</glyph>
<glyph name="zero" format="2">
	<advance width="472"/>
	<outline>
		<contour>
			<point x="236" y="-12" type="curve" smooth="yes"/>
			<point x="338" y="-12"/>
			<point x="429" y="76"/>
			<point x="429" y="324" type="curve" smooth="yes"/>
			<point x="429" y="571"/>
			<point x="338" y="658"/>
			<point x="236" y="658" type="curve" smooth="yes"/>
			<point x="134" y="658"/>
			<point x="42" y="571"/>
			<point x="42" y="324" type="curve" smooth="yes"/>
			<point x="42" y="76"/>
			<point x="134" y="-12"/>
		</contour>
		<contour>
			<point x="236" y="9" type="curve" smooth="yes"/>
			<point x="177" y="9"/>
			<point x="119" y="72"/>
			<point x="119" y="324" type="curve" smooth="yes"/>
			<point x="119" y="575"/>
			<point x="177" y="637"/>
			<point x="236" y="637" type="curve" smooth="yes"/>
			<point x="293" y="637"/>
			<point x="352" y="575"/>
			<point x="352" y="324" type="curve" smooth="yes"/>
			<point x="352" y="72"/>
			<point x="293" y="9"/>
		</contour>
	</outline>
</glyph>
<glyph name="zero.lf" format="2">
	<advance width="485"/>
	<outline>
		<contour>
			<point x="243" y="-12" type="curve" smooth="yes"/>
			<point x="345" y="-12"/>
			<point x="438" y="75"/>
			<point x="438" y="324" type="curve" smooth="yes"/>
			<point x="438" y="571"/>
			<point x="345" y="658"/>
			<point x="243" y="658" type="curve" smooth="yes"/>
			<point x="140" y="658"/>
			<point x="47" y="571"/>
			<point x="47" y="324" type="curve" smooth="yes"/>
			<point x="47" y="75"/>
			<point x="140" y="-12"/>
		</contour>
		<contour>
			<point x="243" y="9" type="curve" smooth="yes"/>
			<point x="186" y="9"/>
			<point x="124" y="70"/>
			<point x="124" y="324" type="curve" smooth="yes"/>
			<point x="124" y="575"/>
			<point x="186" y="637"/>
			<point x="243" y="637" type="curve" smooth="yes"/>
			<point x="298" y="637"/>
			<point x="361" y="575"/>
			<point x="361" y="324" type="curve" smooth="yes"/>
			<point x="361" y="70"/>
			<point x="298" y="9"/>
		</contour>
	</outline>
</glyph>
<glyph name="zero.lfslash" format="2">
	<advance width="485"/>
	<outline>
		<contour>
			<point x="243" y="-12" type="curve" smooth="yes"/>
			<point x="345" y="-12"/>
			<point x="438" y="75"/>
			<point x="438" y="324" type="curve" smooth="yes"/>
			<point x="438" y="571"/>
			<point x="345" y="658"/>
			<point x="243" y="658" type="curve" smooth="yes"/>
			<point x="140" y="658"/>
			<point x="47" y="571"/>
			<point x="47" y="324" type="curve" smooth="yes"/>
			<point x="47" y="75"/>
			<point x="140" y="-12"/>
		</contour>
		<contour>
			<point x="243" y="9" type="curve" smooth="yes"/>
			<point x="186" y="9"/>
			<point x="120" y="70"/>
			<point x="120" y="324" type="curve" smooth="yes"/>
			<point x="120" y="575"/>
			<point x="186" y="637"/>
			<point x="243" y="637" type="curve" smooth="yes"/>
			<point x="298" y="637"/>
			<point x="365" y="575"/>
			<point x="365" y="324" type="curve" smooth="yes"/>
			<point x="365" y="70"/>
			<point x="298" y="9"/>
		</contour>
		<contour>
			<point x="68" y="-12" type="line"/>
			<point x="135" y="108" type="line"/>
			<point x="108" y="108" type="line"/>
			<point x="47" y="0" type="line"/>
		</contour>
		<contour>
			<point x="136" y="108" type="line"/>
			<point x="375" y="539" type="line"/>
			<point x="349" y="539" type="line"/>
			<point x="111" y="108" type="line"/>
		</contour>
		<contour>
			<point x="417" y="658" type="line"/>
			<point x="350" y="539" type="line"/>
			<point x="378" y="539" type="line"/>
			<point x="438" y="646" type="line"/>
		</contour>
	</outline>
</glyph>
<glyph name="zero.osf" format="2">
	<advance width="520"/>
	<outline>
		<contour>
			<point x="260" y="-12" type="curve" smooth="yes"/>
			<point x="376" y="-12"/>
			<point x="480" y="65"/>
			<point x="480" y="251" type="curve" smooth="yes"/>
			<point x="480" y="448"/>
			<point x="376" y="522"/>
			<point x="260" y="522" type="curve" smooth="yes"/>
			<point x="142" y="522"/>
			<point x="39" y="448"/>
			<point x="39" y="251" type="curve" smooth="yes"/>
			<point x="39" y="65"/>
			<point x="142" y="-12"/>
		</contour>
		<contour>
			<point x="260" y="9" type="curve" smooth="yes"/>
			<point x="190" y="9"/>
			<point x="115" y="57"/>
			<point x="115" y="251" type="curve" smooth="yes"/>
			<point x="115" y="455"/>
			<point x="190" y="500"/>
			<point x="260" y="500" type="curve" smooth="yes"/>
			<point x="330" y="500"/>
			<point x="404" y="455"/>
			<point x="404" y="251" type="curve" smooth="yes"/>
			<point x="404" y="57"/>
			<point x="330" y="9"/>
		</contour>
	</outline>
</glyph>
<glyph name="zero.slash" format="2">
	<advance width="472"/>
	<outline>
		<contour>
			<point x="63" y="-12" type="line"/>
			<point x="129" y="108" type="line"/>
			<point x="102" y="108" type="line"/>
			<point x="42" y="0" type="line"/>
		</contour>
		<contour>
			<point x="105" y="108" type="line"/>
			<point x="130" y="108" type="line"/>
			<point x="367" y="539" type="line"/>
			<point x="342" y="539" type="line"/>
		</contour>
		<contour>
			<point x="236" y="-12" type="curve" smooth="yes"/>
			<point x="338" y="-12"/>
			<point x="429" y="76"/>
			<point x="429" y="324" type="curve" smooth="yes"/>
			<point x="429" y="571"/>
			<point x="338" y="658"/>
			<point x="236" y="658" type="curve" smooth="yes"/>
			<point x="134" y="658"/>
			<point x="42" y="571"/>
			<point x="42" y="324" type="curve" smooth="yes"/>
			<point x="42" y="76"/>
			<point x="134" y="-12"/>
		</contour>
		<contour>
			<point x="236" y="9" type="curve" smooth="yes"/>
			<point x="177" y="9"/>
			<point x="115" y="72"/>
			<point x="115" y="324" type="curve" smooth="yes"/>
			<point x="115" y="575"/>
			<point x="177" y="637"/>
			<point x="236" y="637" type="curve" smooth="yes"/>
			<point x="293" y="637"/>
			<point x="356" y="575"/>
			<point x="356" y="324" type="curve" smooth="yes"/>
			<point x="356" y="72"/>
			<point x="293" y="9"/>
		</contour>
		<contour>
			<point x="343" y="539" type="line"/>
			<point x="370" y="539" type="line"/>
			<point x="429" y="646" type="line"/>
			<point x="408" y="658" type="line"/>
		</contour>
	</outline>
</glyph>
<glyph name="zero.tosf" format="2">
	<advance width="472"/>
	<outline>
		<contour>
			<point x="236" y="-12" type="curve" smooth="yes"/>
			<point x="343" y="-12"/>
			<point x="436" y="65"/>
			<point x="436" y="251" type="curve" smooth="yes"/>
			<point x="436" y="438"/>
			<point x="343" y="522"/>
			<point x="236" y="522" type="curve" smooth="yes"/>
			<point x="129" y="522"/>
			<point x="36" y="438"/>
			<point x="36" y="251" type="curve" smooth="yes"/>
			<point x="36" y="65"/>
			<point x="129" y="-12"/>
		</contour>
		<contour>
			<point x="236" y="9" type="curve" smooth="yes"/>
			<point x="175" y="9"/>
			<point x="112" y="57"/>
			<point x="112" y="251" type="curve" smooth="yes"/>
			<point x="112" y="443"/>
			<point x="175" y="500"/>
			<point x="236" y="500" type="curve" smooth="yes"/>
			<point x="297" y="500"/>
			<point x="360" y="443"/>
			<point x="360" y="251" type="curve" smooth="yes"/>
			<point x="360" y="57"/>
			<point x="297" y="9"/>
		</contour>
	</outline>
</glyph>
